{
	"patcher" : 	{
		"fileversion" : 1,
		"appversion" : 		{
			"major" : 7,
			"minor" : 0,
			"revision" : 0,
			"architecture" : "x86",
			"modernui" : 1
		}
,
		"rect" : [ 1169.0, 193.0, 880.0, 846.0 ],
		"bglocked" : 0,
		"openinpresentation" : 0,
		"default_fontsize" : 12.0,
		"default_fontface" : 0,
		"default_fontname" : "Arial",
		"gridonopen" : 0,
		"gridsize" : [ 10.0, 10.0 ],
		"gridsnaponopen" : 0,
		"statusbarvisible" : 2,
		"toolbarvisible" : 1,
		"lefttoolbarpinned" : 0,
		"toptoolbarpinned" : 0,
		"righttoolbarpinned" : 0,
		"bottomtoolbarpinned" : 0,
		"toolbars_unpinned_last_save" : 0,
		"tallnewobj" : 0,
		"boxanimatetime" : 200,
		"enablehscroll" : 1,
		"enablevscroll" : 1,
		"devicewidth" : 0.0,
		"description" : "",
		"digest" : "",
		"tags" : "",
		"style" : "",
		"boxes" : [ 			{
				"box" : 				{
					"fontname" : "Arial",
					"fontsize" : 12.0,
					"id" : "obj-15",
					"maxclass" : "newobj",
					"numinlets" : 1,
					"numoutlets" : 1,
					"outlettype" : [ "" ],
					"patching_rect" : [ 429.0, 653.0, 72.0, 22.0 ],
					"style" : "",
					"text" : "loadmess 1"
				}

			}
, 			{
				"box" : 				{
					"id" : "obj-14",
					"maxclass" : "preset",
					"numinlets" : 1,
					"numoutlets" : 4,
					"outlettype" : [ "preset", "int", "preset", "int" ],
					"patching_rect" : [ 429.0, 686.0, 100.0, 40.0 ],
					"preset_data" : [ 						{
							"number" : 1,
							"data" : [ 5, "obj-8", "umenu", "int", 0, 5, "obj-22", "number", "int", 128, 5, "obj-16", "number~", "list", 0.0, 6, "obj-33", "gain~", "list", 80, 10.0, 6, "obj-36", "gain~", "list", 80, 10.0, 5, "obj-32", "number~", "list", 0.0, 5, "obj-40", "number~", "list", 0.0, 5, "obj-41", "number~", "list", 0.0, 5, "obj-42", "number~", "list", 0.0, 5, "obj-19", "number~", "list", 1.8, 5, "obj-23", "number~", "list", 0.32, 5, "obj-25", "number~", "list", 1.09, 5, "obj-24", "number~", "list", 0.51 ]
						}
, 						{
							"number" : 2,
							"data" : [ 5, "obj-8", "umenu", "int", 0, 5, "obj-22", "number", "int", 128, 5, "obj-16", "number~", "list", 0.0, 6, "obj-33", "gain~", "list", 80, 10.0, 6, "obj-36", "gain~", "list", 80, 10.0, 5, "obj-32", "number~", "list", 0.0, 5, "obj-40", "number~", "list", 0.0, 5, "obj-41", "number~", "list", 0.0, 5, "obj-42", "number~", "list", 0.0, 5, "obj-19", "number~", "list", 1.0, 5, "obj-23", "number~", "list", 0.25, 5, "obj-25", "number~", "list", 1.5, 5, "obj-24", "number~", "list", 0.666 ]
						}
, 						{
							"number" : 3,
							"data" : [ 5, "obj-8", "umenu", "int", 0, 5, "obj-22", "number", "int", 128, 5, "obj-16", "number~", "list", 0.0, 6, "obj-33", "gain~", "list", 80, 10.0, 6, "obj-36", "gain~", "list", 80, 10.0, 5, "obj-32", "number~", "list", 0.0, 5, "obj-40", "number~", "list", 0.0, 5, "obj-41", "number~", "list", 0.0, 5, "obj-42", "number~", "list", 0.0, 5, "obj-19", "number~", "list", 1.0, 5, "obj-23", "number~", "list", 0.99, 5, "obj-25", "number~", "list", 0.98, 5, "obj-24", "number~", "list", 0.97 ]
						}
, 						{
							"number" : 4,
							"data" : [ 5, "obj-8", "umenu", "int", 0, 5, "obj-22", "number", "int", 128, 5, "obj-16", "number~", "list", 0.0, 6, "obj-33", "gain~", "list", 80, 10.0, 6, "obj-36", "gain~", "list", 80, 10.0, 5, "obj-32", "number~", "list", 0.0, 5, "obj-40", "number~", "list", 0.0, 5, "obj-41", "number~", "list", 0.0, 5, "obj-42", "number~", "list", 0.0, 5, "obj-19", "number~", "list", 1.0, 5, "obj-23", "number~", "list", 1.25, 5, "obj-25", "number~", "list", 1.5, 5, "obj-24", "number~", "list", 1.875 ]
						}
 ],
					"style" : ""
				}

			}
, 			{
				"box" : 				{
					"fontname" : "Arial",
					"fontsize" : 12.0,
					"id" : "obj-49",
					"maxclass" : "newobj",
					"numinlets" : 0,
					"numoutlets" : 1,
					"outlettype" : [ "" ],
					"patching_rect" : [ 139.5, 376.0, 97.0, 22.0 ],
					"style" : "",
					"text" : "r splitbank.msgs"
				}

			}
, 			{
				"box" : 				{
					"fontname" : "Arial",
					"fontsize" : 12.0,
					"id" : "obj-48",
					"maxclass" : "newobj",
					"numinlets" : 1,
					"numoutlets" : 0,
					"patcher" : 					{
						"fileversion" : 1,
						"appversion" : 						{
							"major" : 7,
							"minor" : 0,
							"revision" : 0,
							"architecture" : "x86",
							"modernui" : 1
						}
,
						"rect" : [ 598.0, 729.0, 640.0, 480.0 ],
						"bglocked" : 0,
						"openinpresentation" : 0,
						"default_fontsize" : 12.0,
						"default_fontface" : 0,
						"default_fontname" : "Arial",
						"gridonopen" : 0,
						"gridsize" : [ 10.0, 10.0 ],
						"gridsnaponopen" : 0,
						"statusbarvisible" : 2,
						"toolbarvisible" : 1,
						"lefttoolbarpinned" : 0,
						"toptoolbarpinned" : 0,
						"righttoolbarpinned" : 0,
						"bottomtoolbarpinned" : 0,
						"toolbars_unpinned_last_save" : 0,
						"tallnewobj" : 0,
						"boxanimatetime" : 200,
						"enablehscroll" : 1,
						"enablevscroll" : 1,
						"devicewidth" : 0.0,
						"description" : "",
						"digest" : "",
						"tags" : "",
						"style" : "",
						"boxes" : [ 							{
								"box" : 								{
									"fontname" : "Arial",
									"fontsize" : 12.0,
									"id" : "obj-4",
									"maxclass" : "newobj",
									"numinlets" : 1,
									"numoutlets" : 1,
									"outlettype" : [ "bang" ],
									"patching_rect" : [ 318.0, 129.0, 60.0, 20.0 ],
									"style" : "",
									"text" : "loadbang"
								}

							}
, 							{
								"box" : 								{
									"fontname" : "Arial",
									"fontsize" : 12.0,
									"id" : "obj-3",
									"maxclass" : "newobj",
									"numinlets" : 1,
									"numoutlets" : 1,
									"outlettype" : [ "bang" ],
									"patching_rect" : [ 224.0, 163.0, 24.0, 20.0 ],
									"style" : "",
									"text" : "t b"
								}

							}
, 							{
								"box" : 								{
									"comment" : "",
									"id" : "obj-2",
									"maxclass" : "inlet",
									"numinlets" : 0,
									"numoutlets" : 1,
									"outlettype" : [ "" ],
									"patching_rect" : [ 224.0, 111.0, 25.0, 25.0 ],
									"style" : ""
								}

							}
, 							{
								"box" : 								{
									"fontname" : "Arial",
									"fontsize" : 12.0,
									"format" : 6,
									"id" : "obj-38",
									"maxclass" : "flonum",
									"maximum" : 1000.0,
									"minimum" : 0.0,
									"numinlets" : 1,
									"numoutlets" : 2,
									"outlettype" : [ "", "bang" ],
									"parameter_enable" : 0,
									"patching_rect" : [ 433.0, 200.0, 50.0, 20.0 ],
									"style" : ""
								}

							}
, 							{
								"box" : 								{
									"id" : "obj-39",
									"maxclass" : "toggle",
									"numinlets" : 1,
									"numoutlets" : 1,
									"outlettype" : [ "int" ],
									"parameter_enable" : 0,
									"patching_rect" : [ 44.0, 200.0, 20.0, 20.0 ],
									"style" : ""
								}

							}
, 							{
								"box" : 								{
									"id" : "obj-35",
									"maxclass" : "toggle",
									"numinlets" : 1,
									"numoutlets" : 1,
									"outlettype" : [ "int" ],
									"parameter_enable" : 0,
									"patching_rect" : [ 378.0, 200.0, 20.0, 20.0 ],
									"style" : ""
								}

							}
, 							{
								"box" : 								{
									"fontname" : "Arial",
									"fontsize" : 12.0,
									"id" : "obj-11",
									"maxclass" : "message",
									"numinlets" : 2,
									"numoutlets" : 1,
									"outlettype" : [ "" ],
									"patching_rect" : [ 170.0, 261.0, 40.0, 18.0 ],
									"style" : "",
									"text" : "fftinfo"
								}

							}
, 							{
								"box" : 								{
									"fontname" : "Arial",
									"fontsize" : 12.0,
									"id" : "obj-30",
									"maxclass" : "message",
									"numinlets" : 2,
									"numoutlets" : 1,
									"outlettype" : [ "" ],
									"patching_rect" : [ 220.0, 261.0, 64.0, 18.0 ],
									"style" : "",
									"text" : "showstate"
								}

							}
, 							{
								"box" : 								{
									"fontname" : "Arial",
									"fontsize" : 12.0,
									"id" : "obj-31",
									"maxclass" : "message",
									"numinlets" : 2,
									"numoutlets" : 1,
									"outlettype" : [ "" ],
									"patching_rect" : [ 284.0, 261.0, 91.0, 18.0 ],
									"style" : "",
									"text" : "ramptime 5000"
								}

							}
, 							{
								"box" : 								{
									"fontname" : "Arial",
									"fontsize" : 12.0,
									"id" : "obj-37",
									"maxclass" : "message",
									"numinlets" : 2,
									"numoutlets" : 1,
									"outlettype" : [ "" ],
									"patching_rect" : [ 378.0, 261.0, 54.0, 18.0 ],
									"style" : "",
									"text" : "mute $1"
								}

							}
, 							{
								"box" : 								{
									"fontname" : "Arial",
									"fontsize" : 12.0,
									"id" : "obj-43",
									"maxclass" : "message",
									"numinlets" : 2,
									"numoutlets" : 1,
									"outlettype" : [ "" ],
									"patching_rect" : [ 433.0, 261.0, 67.0, 18.0 ],
									"style" : "",
									"text" : "minfreq $1"
								}

							}
, 							{
								"box" : 								{
									"fontname" : "Arial",
									"fontsize" : 12.0,
									"id" : "obj-45",
									"maxclass" : "message",
									"numinlets" : 2,
									"numoutlets" : 1,
									"outlettype" : [ "" ],
									"patching_rect" : [ 502.0, 261.0, 85.0, 18.0 ],
									"style" : "",
									"text" : "maxfreq 8000"
								}

							}
, 							{
								"box" : 								{
									"fontname" : "Arial",
									"fontsize" : 12.0,
									"id" : "obj-47",
									"maxclass" : "message",
									"numinlets" : 2,
									"numoutlets" : 1,
									"outlettype" : [ "" ],
									"patching_rect" : [ 44.0, 261.0, 116.0, 18.0 ],
									"style" : "",
									"text" : "manual_override $1"
								}

							}
, 							{
								"box" : 								{
									"fontname" : "Arial",
									"fontsize" : 12.0,
									"id" : "obj-1",
									"maxclass" : "newobj",
									"numinlets" : 1,
									"numoutlets" : 0,
									"patching_rect" : [ 44.0, 348.0, 99.0, 20.0 ],
									"style" : "",
									"text" : "s splitbank.msgs"
								}

							}
 ],
						"lines" : [ 							{
								"patchline" : 								{
									"destination" : [ "obj-1", 0 ],
									"disabled" : 0,
									"hidden" : 0,
									"source" : [ "obj-11", 0 ]
								}

							}
, 							{
								"patchline" : 								{
									"destination" : [ "obj-3", 0 ],
									"disabled" : 0,
									"hidden" : 0,
									"source" : [ "obj-2", 0 ]
								}

							}
, 							{
								"patchline" : 								{
									"destination" : [ "obj-31", 0 ],
									"disabled" : 0,
									"hidden" : 0,
									"source" : [ "obj-3", 0 ]
								}

							}
, 							{
								"patchline" : 								{
									"destination" : [ "obj-1", 0 ],
									"disabled" : 0,
									"hidden" : 0,
									"source" : [ "obj-30", 0 ]
								}

							}
, 							{
								"patchline" : 								{
									"destination" : [ "obj-1", 0 ],
									"disabled" : 0,
									"hidden" : 0,
									"source" : [ "obj-31", 0 ]
								}

							}
, 							{
								"patchline" : 								{
									"destination" : [ "obj-37", 0 ],
									"disabled" : 0,
									"hidden" : 0,
									"source" : [ "obj-35", 0 ]
								}

							}
, 							{
								"patchline" : 								{
									"destination" : [ "obj-1", 0 ],
									"disabled" : 0,
									"hidden" : 0,
									"source" : [ "obj-37", 0 ]
								}

							}
, 							{
								"patchline" : 								{
									"destination" : [ "obj-43", 0 ],
									"disabled" : 0,
									"hidden" : 0,
									"source" : [ "obj-38", 0 ]
								}

							}
, 							{
								"patchline" : 								{
									"destination" : [ "obj-47", 0 ],
									"disabled" : 0,
									"hidden" : 0,
									"source" : [ "obj-39", 0 ]
								}

							}
, 							{
								"patchline" : 								{
									"destination" : [ "obj-31", 0 ],
									"disabled" : 0,
									"hidden" : 0,
									"source" : [ "obj-4", 0 ]
								}

							}
, 							{
								"patchline" : 								{
									"destination" : [ "obj-1", 0 ],
									"disabled" : 0,
									"hidden" : 0,
									"source" : [ "obj-43", 0 ]
								}

							}
, 							{
								"patchline" : 								{
									"destination" : [ "obj-1", 0 ],
									"disabled" : 0,
									"hidden" : 0,
									"source" : [ "obj-45", 0 ]
								}

							}
, 							{
								"patchline" : 								{
									"destination" : [ "obj-1", 0 ],
									"disabled" : 0,
									"hidden" : 0,
									"source" : [ "obj-47", 0 ]
								}

							}
 ]
					}
,
					"patching_rect" : [ 5.0, 492.0, 107.0, 22.0 ],
					"saved_object_attributes" : 					{
						"description" : "",
						"digest" : "",
						"globalpatchername" : "",
						"style" : "",
						"tags" : ""
					}
,
					"style" : "",
					"text" : "p more-messages"
				}

			}
, 			{
				"box" : 				{
					"fontface" : 0,
					"fontname" : "Arial",
					"fontsize" : 12.0,
					"id" : "obj-24",
					"maxclass" : "number~",
					"maximum" : 2.0,
					"minimum" : 0.2,
					"mode" : 1,
					"numinlets" : 2,
					"numoutlets" : 2,
					"outlettype" : [ "signal", "float" ],
					"patching_rect" : [ 369.0, 434.0, 56.0, 22.0 ],
					"sig" : 0.51,
					"style" : ""
				}

			}
, 			{
				"box" : 				{
					"fontface" : 0,
					"fontname" : "Arial",
					"fontsize" : 12.0,
					"ft1" : 5.0,
					"id" : "obj-25",
					"maxclass" : "number~",
					"maximum" : 1.8,
					"minimum" : 0.2,
					"mode" : 1,
					"numinlets" : 2,
					"numoutlets" : 2,
					"outlettype" : [ "signal", "float" ],
					"patching_rect" : [ 305.0, 434.0, 56.0, 22.0 ],
					"sig" : 1.09,
					"style" : ""
				}

			}
, 			{
				"box" : 				{
					"fontface" : 0,
					"fontname" : "Arial",
					"fontsize" : 12.0,
					"ft1" : 5.0,
					"id" : "obj-23",
					"maxclass" : "number~",
					"maximum" : 1.8,
					"minimum" : 0.2,
					"mode" : 1,
					"numinlets" : 2,
					"numoutlets" : 2,
					"outlettype" : [ "signal", "float" ],
					"patching_rect" : [ 240.5, 434.0, 56.0, 22.0 ],
					"sig" : 0.32,
					"style" : ""
				}

			}
, 			{
				"box" : 				{
					"fontface" : 0,
					"fontname" : "Arial",
					"fontsize" : 12.0,
					"ft1" : 5.0,
					"id" : "obj-19",
					"maxclass" : "number~",
					"maximum" : 1.8,
					"minimum" : 0.2,
					"mode" : 1,
					"numinlets" : 2,
					"numoutlets" : 2,
					"outlettype" : [ "signal", "float" ],
					"patching_rect" : [ 177.0, 434.0, 56.0, 22.0 ],
					"sig" : 1.8,
					"style" : ""
				}

			}
, 			{
				"box" : 				{
					"fontname" : "Arial",
					"fontsize" : 12.0,
					"id" : "obj-18",
					"maxclass" : "newobj",
					"numinlets" : 4,
					"numoutlets" : 2,
					"outlettype" : [ "signal", "signal" ],
					"patching_rect" : [ 113.0, 541.0, 100.0, 22.0 ],
					"style" : "",
					"text" : "el.shoehorn~ 4 2"
				}

			}
, 			{
				"box" : 				{
					"fontname" : "Arial",
					"fontsize" : 12.0,
					"id" : "obj-44",
					"maxclass" : "comment",
					"numinlets" : 1,
					"numoutlets" : 0,
					"patching_rect" : [ 416.0, 250.0, 361.0, 20.0 ],
					"style" : "",
					"text" : "Force vector size to 128, to gain FFT size of (VS * overlap) = 1024"
				}

			}
, 			{
				"box" : 				{
					"fontface" : 0,
					"fontname" : "Arial",
					"fontsize" : 12.0,
					"ft1" : 5.0,
					"id" : "obj-42",
					"maxclass" : "number~",
					"maximum" : 1.0,
					"minimum" : 0.0,
					"mode" : 1,
					"numinlets" : 2,
					"numoutlets" : 2,
					"outlettype" : [ "signal", "float" ],
					"patching_rect" : [ 433.0, 434.0, 56.0, 22.0 ],
					"sig" : 0.0,
					"style" : ""
				}

			}
, 			{
				"box" : 				{
					"fontface" : 0,
					"fontname" : "Arial",
					"fontsize" : 12.0,
					"ft1" : 5.0,
					"id" : "obj-41",
					"maxclass" : "number~",
					"maximum" : 1.0,
					"minimum" : 0.0,
					"mode" : 1,
					"numinlets" : 2,
					"numoutlets" : 2,
					"outlettype" : [ "signal", "float" ],
					"patching_rect" : [ 497.0, 434.0, 56.0, 22.0 ],
					"sig" : 0.0,
					"style" : ""
				}

			}
, 			{
				"box" : 				{
					"fontface" : 0,
					"fontname" : "Arial",
					"fontsize" : 12.0,
					"ft1" : 5.0,
					"id" : "obj-40",
					"maxclass" : "number~",
					"maximum" : 1.0,
					"minimum" : 0.0,
					"mode" : 1,
					"numinlets" : 2,
					"numoutlets" : 2,
					"outlettype" : [ "signal", "float" ],
					"patching_rect" : [ 561.0, 434.0, 56.0, 22.0 ],
					"sig" : 0.0,
					"style" : ""
				}

			}
, 			{
				"box" : 				{
					"fontface" : 0,
					"fontname" : "Arial",
					"fontsize" : 12.0,
					"ft1" : 5.0,
					"id" : "obj-32",
					"maxclass" : "number~",
					"maximum" : 1.0,
					"minimum" : 0.0,
					"mode" : 1,
					"numinlets" : 2,
					"numoutlets" : 2,
					"outlettype" : [ "signal", "float" ],
					"patching_rect" : [ 625.0, 434.0, 56.0, 22.0 ],
					"sig" : 0.0,
					"style" : ""
				}

			}
, 			{
				"box" : 				{
					"id" : "obj-36",
					"interpinlet" : 1,
					"maxclass" : "gain~",
					"numinlets" : 2,
					"numoutlets" : 2,
					"outlettype" : [ "signal", "int" ],
					"parameter_enable" : 0,
					"patching_rect" : [ 139.5, 575.0, 22.0, 140.0 ],
					"style" : ""
				}

			}
, 			{
				"box" : 				{
					"id" : "obj-33",
					"interpinlet" : 1,
					"maxclass" : "gain~",
					"numinlets" : 2,
					"numoutlets" : 2,
					"outlettype" : [ "signal", "int" ],
					"parameter_enable" : 0,
					"patching_rect" : [ 113.0, 575.0, 22.0, 140.0 ],
					"style" : ""
				}

			}
, 			{
				"box" : 				{
					"fontname" : "Arial",
					"fontsize" : 12.0,
					"id" : "obj-17",
					"maxclass" : "newobj",
					"numinlets" : 2,
					"numoutlets" : 1,
					"outlettype" : [ "signal" ],
					"patching_rect" : [ 113.0, 214.0, 62.0, 22.0 ],
					"style" : "",
					"text" : "saw~ 150"
				}

			}
, 			{
				"box" : 				{
					"fontface" : 0,
					"fontname" : "Arial",
					"fontsize" : 12.0,
					"ft1" : 6.0,
					"id" : "obj-16",
					"maxclass" : "number~",
					"mode" : 2,
					"numinlets" : 2,
					"numoutlets" : 2,
					"outlettype" : [ "signal", "float" ],
					"patching_rect" : [ 522.599976, 549.0, 56.0, 22.0 ],
					"sig" : 0.0,
					"style" : ""
				}

			}
, 			{
				"box" : 				{
					"fontname" : "Arial",
					"fontsize" : 8.0,
					"id" : "obj-10",
					"linecount" : 33,
					"maxclass" : "message",
					"numinlets" : 2,
					"numoutlets" : 1,
					"outlettype" : [ "" ],
					"patching_rect" : [ 610.0, 521.0, 244.0, 303.0 ],
					"style" : "",
					"text" : "8 339 421 147 268 434 235 18 53 419 240 272 27 373 125 392 324 308 414 376 423 490 510 252 478 400 429 333 175 26 4 144 285 292 258 122 379 473 119 181 411 345 3 139 360 157 359 395 413 270 349 66 304 137 347 310 62 186 199 269 81 232 267 178 507 346 450 248 410 32 458 194 357 219 43 316 404 94 287 177 365 382 466 30 317 152 148 470 462 206 262 220 128 337 131 173 54 243 7 167 75 156 138 463 436 468 261 121 369 202 112 453 465 45 482 256 340 182 17 299 377 200 101 331 498 89 358 401 348 251 415 254 493 505 77 136 48 368 40 508 172 145 92 351 329 431 336 452 472 253 184 71 492 280 134 198 502 375 38 323 50 363 388 330 95 277 494 154 222 20 289 444 78 399 100 210 356 403 205 85 51 108 225 28 440 275 37 509 343 307 475 396 417 47 237 96 242 58 9 79 271 163 260 511 218 180 239 146 118 158 212 486 393 10 102 274 216 68 155 69 428 328 442 390 105 433 74 93 129 132 65 372 162 460 394 325 2 435 284 24 405 504 189 91 15 279 227 455 153 126 361 300 161 496 387 367 483 82 479 293 406 115 309 469 0 35 176 127 19 451 487 306 114 476 353 52 371 384 374 233 207 471 445 215 281 64 98 14 448 228 23 164 140 67 150 143 151 305 229 501 244 250 165 236 174 183 288 179 301 116 63 197 418 246 109 497 312 474 495 196 170 407 273 226 441 381 13 425 25 290 73 491 211 41 36 489 168 314 90 383 49 449 420 276 386 57 120 294 88 334 201 461 297 234 427 124 416 402 61 70 315 223 169 214 149 159 355 321 99 5 454 464 123 11 185 141 385 263 42 499 264 255 142 265 133 422 84 193 110 398 208 438 117 266 190 313 344 362 80 320 259 484 209 76 341 245 366 481 221 500 342 97 350 160 111 56 456 354 1 326 480 303 412 29 286 302 424 332 44 33 409 46 467 31 408 166 477 443 104 187 391 457 319 389 230 113 430 437 447 204 247 298 16 60 459 278 106 439 22 249 282 352 506 6 318 370 72 364 83 311 107 291 380 296 135 192 488 171 485 103 203 503 241 12 446 55 432 87 378 39 213 335 327 224 34 338 195 426 231 86 217 283 257 130 295 188 238 21 59 191 322 397"
				}

			}
, 			{
				"box" : 				{
					"id" : "obj-12",
					"maxclass" : "ezdac~",
					"numinlets" : 2,
					"numoutlets" : 0,
					"patching_rect" : [ 113.0, 740.0, 45.0, 45.0 ],
					"style" : ""
				}

			}
, 			{
				"box" : 				{
					"fontname" : "Arial",
					"fontsize" : 12.0,
					"id" : "obj-13",
					"maxclass" : "newobj",
					"numinlets" : 9,
					"numoutlets" : 6,
					"outlettype" : [ "signal", "signal", "signal", "signal", "signal", "list" ],
					"patching_rect" : [ 113.0, 492.0, 531.0, 22.0 ],
					"style" : "",
					"text" : "el.splitbank~ 4"
				}

			}
, 			{
				"box" : 				{
					"id" : "obj-20",
					"maxclass" : "button",
					"numinlets" : 1,
					"numoutlets" : 1,
					"outlettype" : [ "bang" ],
					"patching_rect" : [ 258.5, 179.0, 20.0, 20.0 ],
					"style" : ""
				}

			}
, 			{
				"box" : 				{
					"fontname" : "Arial",
					"fontsize" : 12.0,
					"id" : "obj-21",
					"maxclass" : "newobj",
					"numinlets" : 1,
					"numoutlets" : 1,
					"outlettype" : [ "" ],
					"patching_rect" : [ 291.0, 179.0, 72.0, 22.0 ],
					"style" : "",
					"text" : "loadmess 7"
				}

			}
, 			{
				"box" : 				{
					"fontname" : "Arial",
					"fontsize" : 12.0,
					"id" : "obj-22",
					"maxclass" : "number",
					"numinlets" : 1,
					"numoutlets" : 2,
					"outlettype" : [ "", "bang" ],
					"parameter_enable" : 0,
					"patching_rect" : [ 359.0, 250.0, 50.0, 22.0 ],
					"style" : ""
				}

			}
, 			{
				"box" : 				{
					"fontname" : "Arial",
					"fontsize" : 12.0,
					"id" : "obj-27",
					"maxclass" : "newobj",
					"numinlets" : 2,
					"numoutlets" : 2,
					"outlettype" : [ "", "int" ],
					"patching_rect" : [ 291.0, 217.0, 87.0, 22.0 ],
					"style" : "",
					"text" : "adstatus sigvs"
				}

			}
, 			{
				"box" : 				{
					"fontname" : "Arial",
					"fontsize" : 12.0,
					"id" : "obj-29",
					"maxclass" : "message",
					"numinlets" : 2,
					"numoutlets" : 1,
					"outlettype" : [ "" ],
					"patching_rect" : [ 56.0, 380.0, 58.0, 22.0 ],
					"style" : "",
					"text" : "scramble"
				}

			}
, 			{
				"box" : 				{
					"fontname" : "Arial",
					"fontsize" : 12.0,
					"hidden" : 1,
					"id" : "obj-1",
					"maxclass" : "newobj",
					"numinlets" : 1,
					"numoutlets" : 0,
					"patching_rect" : [ 213.0, 665.0, 57.0, 22.0 ],
					"style" : "",
					"text" : "autohelp"
				}

			}
, 			{
				"box" : 				{
					"fontface" : 3,
					"fontname" : "Arial",
					"fontsize" : 20.871338,
					"id" : "obj-2",
					"maxclass" : "comment",
					"numinlets" : 1,
					"numoutlets" : 0,
					"patching_rect" : [ 10.0, 8.0, 485.0, 30.0 ],
					"style" : "",
					"text" : "el.splitbank",
					"textcolor" : [ 0.2, 0.2, 0.2, 1.0 ],
					"varname" : "autohelp_top_title"
				}

			}
, 			{
				"box" : 				{
					"fontface" : 0,
					"fontname" : "Arial",
					"fontsize" : 12.754705,
					"id" : "obj-3",
					"maxclass" : "comment",
					"numinlets" : 1,
					"numoutlets" : 0,
					"patching_rect" : [ 10.0, 36.0, 485.0, 21.0 ],
					"style" : "",
					"text" : "Tunable spectrum splitter",
					"textcolor" : [ 0.2, 0.2, 0.2, 1.0 ],
					"varname" : "autohelp_top_digest"
				}

			}
, 			{
				"box" : 				{
					"fontface" : 0,
					"fontname" : "Arial",
					"fontsize" : 11.595187,
					"id" : "obj-4",
					"linecount" : 5,
					"maxclass" : "comment",
					"numinlets" : 1,
					"numoutlets" : 0,
					"patching_rect" : [ 10.0, 57.0, 490.0, 71.0 ],
					"style" : "",
					"text" : "el.splitbank breaks an incoming spectrum into a specified number of derived spectra, each of which is independently tunable. This is useful for multichannel spectral diffusion. This is a \"legacy\" object first created in 2003, so the FFT size is defined indirectly by controlling the Max signal vector size. The default overlap factor is 8, and the FFT size is calculated as the vector size * overlap.",
					"varname" : "autohelp_top_description"
				}

			}
, 			{
				"box" : 				{
					"bgcolor" : [ 0.0, 0.0, 0.0, 0.0 ],
					"bgoncolor" : [ 0.0, 0.0, 0.0, 0.0 ],
					"fontface" : 3,
					"fontlink" : 1,
					"fontsize" : 12.754705,
					"id" : "obj-5",
					"legacytextcolor" : 1,
					"maxclass" : "textbutton",
					"numinlets" : 1,
					"numoutlets" : 3,
					"outlettype" : [ "", "", "int" ],
					"parameter_enable" : 0,
					"patching_rect" : [ 326.842773, 22.0, 173.157242, 14.249397 ],
					"presentation_rect" : [ 0.0, 0.0, 173.157242, 14.249397 ],
					"spacing_x" : 0.0,
					"spacing_y" : 0.0,
					"style" : "",
					"text" : "open el.splitbank reference",
					"textcolor" : [ 0.27, 0.35, 0.47, 1.0 ],
					"textoncolor" : [ 0.27, 0.35, 0.47, 1.0 ],
					"textovercolor" : [ 0.4, 0.5, 0.65, 1.0 ],
					"underline" : 1,
					"usebgoncolor" : 1,
					"usetextovercolor" : 1,
					"varname" : "autohelp_top_ref"
				}

			}
, 			{
				"box" : 				{
					"fontface" : 1,
					"fontname" : "Arial",
					"fontsize" : 11.595187,
					"id" : "obj-7",
					"maxclass" : "comment",
					"numinlets" : 1,
					"numoutlets" : 0,
					"patching_rect" : [ 218.0, 669.0, 100.0, 19.0 ],
					"style" : "",
					"text" : "See Also:",
					"varname" : "autohelp_see_title"
				}

			}
, 			{
				"box" : 				{
					"fontface" : 0,
					"fontname" : "Arial",
					"fontsize" : 11.595187,
					"id" : "obj-8",
					"items" : "el.splitspect~",
					"maxclass" : "umenu",
					"numinlets" : 1,
					"numoutlets" : 3,
					"outlettype" : [ "int", "", "" ],
					"parameter_enable" : 0,
					"patching_rect" : [ 218.0, 689.0, 130.0, 21.0 ],
					"style" : "",
					"varname" : "autohelp_see_menu"
				}

			}
, 			{
				"box" : 				{
					"angle" : 0.0,
					"background" : 1,
					"grad1" : [ 0.88, 0.98, 0.78, 1.0 ],
					"grad2" : [ 0.9, 0.9, 0.9, 1.0 ],
					"id" : "obj-6",
					"maxclass" : "panel",
					"mode" : 1,
					"numinlets" : 1,
					"numoutlets" : 0,
					"patching_rect" : [ 5.0, 5.0, 495.0, 52.0 ],
					"proportion" : 0.39,
					"style" : "",
					"varname" : "autohelp_top_panel"
				}

			}
, 			{
				"box" : 				{
					"angle" : 0.0,
					"background" : 1,
					"bgcolor" : [ 0.85, 0.85, 0.85, 0.75 ],
					"border" : 2,
					"bordercolor" : [ 0.5, 0.5, 0.5, 0.75 ],
					"id" : "obj-9",
					"maxclass" : "panel",
					"mode" : 0,
					"numinlets" : 1,
					"numoutlets" : 0,
					"patching_rect" : [ 213.0, 665.0, 140.0, 50.0 ],
					"proportion" : 0.39,
					"style" : "",
					"varname" : "autohelp_see_panel"
				}

			}
 ],
		"lines" : [ 			{
				"patchline" : 				{
					"destination" : [ "obj-10", 1 ],
					"disabled" : 0,
					"hidden" : 0,
					"source" : [ "obj-13", 5 ]
				}

			}
, 			{
				"patchline" : 				{
					"destination" : [ "obj-16", 0 ],
					"disabled" : 0,
					"hidden" : 0,
					"source" : [ "obj-13", 4 ]
				}

			}
, 			{
				"patchline" : 				{
					"destination" : [ "obj-18", 3 ],
					"disabled" : 0,
					"hidden" : 0,
					"midpoints" : [ 429.700012, 533.0, 203.5, 533.0 ],
					"source" : [ "obj-13", 3 ]
				}

			}
, 			{
				"patchline" : 				{
					"destination" : [ "obj-18", 2 ],
					"disabled" : 0,
					"hidden" : 0,
					"midpoints" : [ 327.299988, 526.0, 176.5, 526.0 ],
					"source" : [ "obj-13", 2 ]
				}

			}
, 			{
				"patchline" : 				{
					"destination" : [ "obj-18", 1 ],
					"disabled" : 0,
					"hidden" : 0,
					"midpoints" : [ 224.899994, 519.0, 149.5, 519.0 ],
					"source" : [ "obj-13", 1 ]
				}

			}
, 			{
				"patchline" : 				{
					"destination" : [ "obj-18", 0 ],
					"disabled" : 0,
					"hidden" : 0,
					"source" : [ "obj-13", 0 ]
				}

			}
, 			{
				"patchline" : 				{
					"destination" : [ "obj-14", 0 ],
					"disabled" : 0,
					"hidden" : 0,
					"source" : [ "obj-15", 0 ]
				}

			}
, 			{
				"patchline" : 				{
					"destination" : [ "obj-13", 0 ],
					"disabled" : 0,
					"hidden" : 0,
					"source" : [ "obj-17", 0 ]
				}

			}
, 			{
				"patchline" : 				{
					"destination" : [ "obj-33", 0 ],
					"disabled" : 0,
					"hidden" : 0,
					"source" : [ "obj-18", 0 ]
				}

			}
, 			{
				"patchline" : 				{
					"destination" : [ "obj-36", 0 ],
					"disabled" : 0,
					"hidden" : 0,
					"midpoints" : [ 203.5, 567.5, 149.0, 567.5 ],
					"source" : [ "obj-18", 1 ]
				}

			}
, 			{
				"patchline" : 				{
					"destination" : [ "obj-13", 1 ],
					"disabled" : 0,
					"hidden" : 0,
					"source" : [ "obj-19", 0 ]
				}

			}
, 			{
				"patchline" : 				{
					"destination" : [ "obj-27", 0 ],
					"disabled" : 0,
					"hidden" : 0,
					"source" : [ "obj-20", 0 ]
				}

			}
, 			{
				"patchline" : 				{
					"destination" : [ "obj-27", 0 ],
					"disabled" : 0,
					"hidden" : 0,
					"source" : [ "obj-21", 0 ]
				}

			}
, 			{
				"patchline" : 				{
					"destination" : [ "obj-13", 2 ],
					"disabled" : 0,
					"hidden" : 0,
					"source" : [ "obj-23", 0 ]
				}

			}
, 			{
				"patchline" : 				{
					"destination" : [ "obj-13", 4 ],
					"disabled" : 0,
					"hidden" : 0,
					"source" : [ "obj-24", 0 ]
				}

			}
, 			{
				"patchline" : 				{
					"destination" : [ "obj-13", 3 ],
					"disabled" : 0,
					"hidden" : 0,
					"source" : [ "obj-25", 0 ]
				}

			}
, 			{
				"patchline" : 				{
					"destination" : [ "obj-22", 0 ],
					"disabled" : 0,
					"hidden" : 0,
					"source" : [ "obj-27", 1 ]
				}

			}
, 			{
				"patchline" : 				{
					"destination" : [ "obj-13", 0 ],
					"disabled" : 0,
					"hidden" : 0,
					"midpoints" : [ 65.5, 444.5, 122.5, 444.5 ],
					"source" : [ "obj-29", 0 ]
				}

			}
, 			{
				"patchline" : 				{
					"destination" : [ "obj-48", 0 ],
					"disabled" : 0,
					"hidden" : 0,
					"midpoints" : [ 65.5, 444.5, 14.5, 444.5 ],
					"source" : [ "obj-29", 0 ]
				}

			}
, 			{
				"patchline" : 				{
					"destination" : [ "obj-13", 8 ],
					"disabled" : 0,
					"hidden" : 0,
					"source" : [ "obj-32", 0 ]
				}

			}
, 			{
				"patchline" : 				{
					"destination" : [ "obj-12", 0 ],
					"disabled" : 0,
					"hidden" : 0,
					"source" : [ "obj-33", 0 ]
				}

			}
, 			{
				"patchline" : 				{
					"destination" : [ "obj-36", 0 ],
					"disabled" : 0,
					"hidden" : 0,
					"source" : [ "obj-33", 1 ]
				}

			}
, 			{
				"patchline" : 				{
					"destination" : [ "obj-12", 1 ],
					"disabled" : 0,
					"hidden" : 0,
					"source" : [ "obj-36", 0 ]
				}

			}
, 			{
				"patchline" : 				{
					"destination" : [ "obj-13", 7 ],
					"disabled" : 0,
					"hidden" : 0,
					"source" : [ "obj-40", 0 ]
				}

			}
, 			{
				"patchline" : 				{
					"destination" : [ "obj-13", 6 ],
					"disabled" : 0,
					"hidden" : 0,
					"source" : [ "obj-41", 0 ]
				}

			}
, 			{
				"patchline" : 				{
					"destination" : [ "obj-13", 5 ],
					"disabled" : 0,
					"hidden" : 0,
					"source" : [ "obj-42", 0 ]
				}

			}
, 			{
				"patchline" : 				{
					"destination" : [ "obj-13", 0 ],
					"disabled" : 0,
					"hidden" : 0,
					"midpoints" : [ 149.0, 443.5, 122.5, 443.5 ],
					"source" : [ "obj-49", 0 ]
				}

			}
 ],
		"dependency_cache" : [ 			{
				"name" : "el.splitbank~.mxo",
				"type" : "iLaX"
			}
, 			{
				"name" : "el.shoehorn~.mxo",
				"type" : "iLaX"
			}
 ],
		"embedsnapshot" : 0
	}

}
