{
	"patcher" : 	{
		"fileversion" : 1,
		"appversion" : 		{
			"major" : 7,
			"minor" : 0,
			"revision" : 0,
			"architecture" : "x86",
			"modernui" : 1
		}
,
		"rect" : [ 163.0, 82.0, 567.0, 568.0 ],
		"bglocked" : 0,
		"openinpresentation" : 0,
		"default_fontsize" : 10.0,
		"default_fontface" : 0,
		"default_fontname" : "Arial",
		"gridonopen" : 0,
		"gridsize" : [ 15.0, 15.0 ],
		"gridsnaponopen" : 0,
		"statusbarvisible" : 2,
		"toolbarvisible" : 1,
		"lefttoolbarpinned" : 0,
		"toptoolbarpinned" : 0,
		"righttoolbarpinned" : 0,
		"bottomtoolbarpinned" : 0,
		"toolbars_unpinned_last_save" : 0,
		"tallnewobj" : 0,
		"boxanimatetime" : 200,
		"enablehscroll" : 1,
		"enablevscroll" : 1,
		"devicewidth" : 0.0,
		"description" : "",
		"digest" : "",
		"tags" : "",
		"style" : "",
		"boxes" : [ 			{
				"box" : 				{
					"fontname" : "Arial",
					"fontsize" : 12.0,
					"hidden" : 1,
					"id" : "obj-26",
					"maxclass" : "newobj",
					"numinlets" : 1,
					"numoutlets" : 0,
					"patching_rect" : [ 162.0, 372.0, 58.0, 22.0 ],
					"style" : "",
					"text" : "autohelp"
				}

			}
, 			{
				"box" : 				{
					"fontname" : "Arial",
					"fontsize" : 12.0,
					"hidden" : 1,
					"id" : "obj-27",
					"maxclass" : "newobj",
					"numinlets" : 1,
					"numoutlets" : 1,
					"outlettype" : [ "" ],
					"patching_rect" : [ 164.0, 393.0, 80.0, 22.0 ],
					"style" : "",
					"text" : "loadmess 80"
				}

			}
, 			{
				"box" : 				{
					"fontname" : "Arial",
					"fontsize" : 12.0,
					"id" : "obj-1",
					"maxclass" : "message",
					"numinlets" : 2,
					"numoutlets" : 1,
					"outlettype" : [ "" ],
					"patching_rect" : [ 207.0, 268.0, 308.0, 22.0 ],
					"style" : "",
					"text" : "0 0.2 0.4 0.6 1 1 0 1 0 0 1 0 0.3 0.3 0.3 0 0 1 0.5 0.3 0.1"
				}

			}
, 			{
				"box" : 				{
					"fontname" : "Arial",
					"fontsize" : 12.0,
					"hidden" : 1,
					"id" : "obj-2",
					"maxclass" : "newobj",
					"numinlets" : 1,
					"numoutlets" : 1,
					"outlettype" : [ "bang" ],
					"patching_rect" : [ 341.0, 217.0, 61.0, 22.0 ],
					"style" : "",
					"text" : "loadbang"
				}

			}
, 			{
				"box" : 				{
					"fontname" : "Arial",
					"fontsize" : 12.0,
					"hidden" : 1,
					"id" : "obj-3",
					"maxclass" : "message",
					"numinlets" : 2,
					"numoutlets" : 1,
					"outlettype" : [ "" ],
					"patching_rect" : [ 39.0, 139.0, 29.0, 22.0 ],
					"style" : "",
					"text" : "0.5"
				}

			}
, 			{
				"box" : 				{
					"id" : "obj-8",
					"interpinlet" : 1,
					"maxclass" : "gain~",
					"numinlets" : 2,
					"numoutlets" : 2,
					"orientation" : 2,
					"outlettype" : [ "signal", "int" ],
					"parameter_enable" : 0,
					"patching_rect" : [ 111.0, 365.0, 25.0, 53.0 ],
					"style" : ""
				}

			}
, 			{
				"box" : 				{
					"fontname" : "Arial",
					"fontsize" : 12.0,
					"hidden" : 1,
					"id" : "obj-9",
					"maxclass" : "message",
					"numinlets" : 2,
					"numoutlets" : 1,
					"outlettype" : [ "" ],
					"patching_rect" : [ 23.0, 145.0, 29.0, 22.0 ],
					"style" : "",
					"text" : "60."
				}

			}
, 			{
				"box" : 				{
					"fontname" : "Arial",
					"fontsize" : 12.0,
					"hidden" : 1,
					"id" : "obj-10",
					"maxclass" : "newobj",
					"numinlets" : 1,
					"numoutlets" : 1,
					"outlettype" : [ "bang" ],
					"patching_rect" : [ 23.0, 126.0, 58.0, 22.0 ],
					"style" : "",
					"text" : "loadbang"
				}

			}
, 			{
				"box" : 				{
					"bgcolor" : [ 0.866667, 0.866667, 0.866667, 1.0 ],
					"fontname" : "Arial",
					"fontsize" : 12.0,
					"format" : 6,
					"htricolor" : [ 0.87, 0.82, 0.24, 1.0 ],
					"id" : "obj-11",
					"maxclass" : "flonum",
					"maximum" : 1.0,
					"minimum" : 0.1,
					"numinlets" : 1,
					"numoutlets" : 2,
					"outlettype" : [ "", "bang" ],
					"parameter_enable" : 0,
					"patching_rect" : [ 33.0, 219.0, 41.0, 22.0 ],
					"style" : "",
					"textcolor" : [ 0.0, 0.0, 0.0, 1.0 ],
					"tricolor" : [ 0.75, 0.75, 0.75, 1.0 ],
					"triscale" : 0.9
				}

			}
, 			{
				"box" : 				{
					"fontname" : "Arial",
					"fontsize" : 12.0,
					"id" : "obj-12",
					"maxclass" : "message",
					"numinlets" : 2,
					"numoutlets" : 1,
					"outlettype" : [ "" ],
					"patching_rect" : [ 207.0, 244.0, 198.0, 22.0 ],
					"style" : "",
					"text" : "0 0.2 0 0.2 0 0.2 0 0 1 0 0 0 0 0 0.5"
				}

			}
, 			{
				"box" : 				{
					"fontname" : "Arial",
					"fontsize" : 12.0,
					"id" : "obj-13",
					"maxclass" : "message",
					"numinlets" : 2,
					"numoutlets" : 1,
					"outlettype" : [ "" ],
					"patching_rect" : [ 207.0, 221.0, 98.0, 22.0 ],
					"style" : "",
					"text" : "0 0.5 0 0 1 0.3 1"
				}

			}
, 			{
				"box" : 				{
					"fontname" : "Arial",
					"fontsize" : 12.0,
					"id" : "obj-14",
					"maxclass" : "message",
					"numinlets" : 2,
					"numoutlets" : 1,
					"outlettype" : [ "" ],
					"patching_rect" : [ 207.0, 198.0, 58.0, 22.0 ],
					"style" : "",
					"text" : "0 0 0 1 1"
				}

			}
, 			{
				"box" : 				{
					"bgcolor" : [ 0.403922, 0.403922, 0.403922, 1.0 ],
					"coldcolor" : [ 0.0, 0.658824, 0.0, 1.0 ],
					"id" : "obj-15",
					"interval" : 100,
					"maxclass" : "meter~",
					"numinlets" : 1,
					"numoutlets" : 1,
					"outlettype" : [ "float" ],
					"patching_rect" : [ 194.0, 464.0, 80.0, 13.0 ],
					"style" : "",
					"tepidcolor" : [ 0.6, 0.729412, 0.0, 1.0 ],
					"warmcolor" : [ 0.85098, 0.85098, 0.0, 1.0 ]
				}

			}
, 			{
				"box" : 				{
					"bgcolor" : [ 0.866667, 0.866667, 0.866667, 1.0 ],
					"fontname" : "Arial",
					"fontsize" : 12.0,
					"format" : 6,
					"htricolor" : [ 0.87, 0.82, 0.24, 1.0 ],
					"id" : "obj-16",
					"maxclass" : "flonum",
					"numinlets" : 1,
					"numoutlets" : 2,
					"outlettype" : [ "", "bang" ],
					"parameter_enable" : 0,
					"patching_rect" : [ 106.0, 141.0, 41.0, 22.0 ],
					"style" : "",
					"textcolor" : [ 0.0, 0.0, 0.0, 1.0 ],
					"tricolor" : [ 0.75, 0.75, 0.75, 1.0 ],
					"triscale" : 0.9
				}

			}
, 			{
				"box" : 				{
					"bgcolor" : [ 0.529412, 0.529412, 0.529412, 1.0 ],
					"calccount" : 17,
					"fgcolor" : [ 0.403, 1.0, 0.2, 1.0 ],
					"gridcolor" : [ 0.33, 0.33, 0.33, 1.0 ],
					"id" : "obj-17",
					"maxclass" : "scope~",
					"numinlets" : 2,
					"numoutlets" : 0,
					"patching_rect" : [ 351.0, 396.0, 130.0, 130.0 ],
					"style" : ""
				}

			}
, 			{
				"box" : 				{
					"fontname" : "Arial",
					"fontsize" : 12.0,
					"id" : "obj-18",
					"maxclass" : "newobj",
					"numinlets" : 1,
					"numoutlets" : 1,
					"outlettype" : [ "signal" ],
					"patching_rect" : [ 132.0, 332.0, 66.0, 22.0 ],
					"style" : "",
					"text" : "el.killdc~"
				}

			}
, 			{
				"box" : 				{
					"fontname" : "Arial",
					"fontsize" : 12.0,
					"id" : "obj-19",
					"maxclass" : "newobj",
					"numinlets" : 2,
					"numoutlets" : 1,
					"outlettype" : [ "signal" ],
					"patching_rect" : [ 132.0, 254.0, 33.0, 22.0 ],
					"style" : "",
					"text" : "*~"
				}

			}
, 			{
				"box" : 				{
					"fontname" : "Arial",
					"fontsize" : 12.0,
					"id" : "obj-20",
					"maxclass" : "newobj",
					"numinlets" : 2,
					"numoutlets" : 1,
					"outlettype" : [ "signal" ],
					"patching_rect" : [ 132.0, 225.0, 69.0, 22.0 ],
					"style" : "",
					"text" : "cycle~ 74"
				}

			}
, 			{
				"box" : 				{
					"fontname" : "Arial",
					"fontsize" : 12.0,
					"id" : "obj-21",
					"maxclass" : "newobj",
					"numinlets" : 1,
					"numoutlets" : 1,
					"outlettype" : [ "signal" ],
					"patching_rect" : [ 132.0, 300.0, 99.0, 22.0 ],
					"style" : "",
					"text" : "el.waveshape~"
				}

			}
, 			{
				"box" : 				{
					"id" : "obj-22",
					"maxclass" : "ezdac~",
					"numinlets" : 2,
					"numoutlets" : 0,
					"patching_rect" : [ 96.0, 433.0, 45.0, 45.0 ],
					"style" : ""
				}

			}
, 			{
				"box" : 				{
					"fontname" : "Arial",
					"fontsize" : 12.0,
					"id" : "obj-23",
					"maxclass" : "comment",
					"numinlets" : 1,
					"numoutlets" : 0,
					"patching_rect" : [ 206.0, 180.0, 310.0, 20.0 ],
					"style" : "",
					"text" : "select a weighted summation of Chebychev polynomials"
				}

			}
, 			{
				"box" : 				{
					"fontname" : "Arial",
					"fontsize" : 12.0,
					"id" : "obj-24",
					"linecount" : 3,
					"maxclass" : "comment",
					"numinlets" : 1,
					"numoutlets" : 0,
					"patching_rect" : [ 18.0, 174.0, 114.0, 47.0 ],
					"style" : "",
					"text" : "preamp for waveshaper - vary to change spectrum"
				}

			}
, 			{
				"box" : 				{
					"fontname" : "Arial",
					"fontsize" : 12.0,
					"id" : "obj-25",
					"maxclass" : "comment",
					"numinlets" : 1,
					"numoutlets" : 0,
					"patching_rect" : [ 106.0, 122.0, 147.0, 20.0 ],
					"style" : "",
					"text" : "fundamental frequency"
				}

			}
, 			{
				"box" : 				{
					"fontface" : 3,
					"fontname" : "Arial",
					"fontsize" : 20.871338,
					"id" : "obj-28",
					"maxclass" : "comment",
					"numinlets" : 1,
					"numoutlets" : 0,
					"patching_rect" : [ 10.0, 8.0, 485.0, 30.0 ],
					"style" : "",
					"text" : "el.waveshape~",
					"textcolor" : [ 0.2, 0.2, 0.2, 1.0 ],
					"varname" : "autohelp_top_title"
				}

			}
, 			{
				"box" : 				{
					"fontface" : 0,
					"fontname" : "Arial",
					"fontsize" : 12.754705,
					"id" : "obj-29",
					"maxclass" : "comment",
					"numinlets" : 1,
					"numoutlets" : 0,
					"patching_rect" : [ 10.0, 36.0, 485.0, 21.0 ],
					"style" : "",
					"text" : "Waveshaper",
					"textcolor" : [ 0.2, 0.2, 0.2, 1.0 ],
					"varname" : "autohelp_top_digest"
				}

			}
, 			{
				"box" : 				{
					"fontface" : 0,
					"fontname" : "Arial",
					"fontsize" : 11.595187,
					"id" : "obj-30",
					"linecount" : 3,
					"maxclass" : "comment",
					"numinlets" : 1,
					"numoutlets" : 0,
					"patching_rect" : [ 10.0, 57.0, 485.0, 45.0 ],
					"style" : "",
					"text" : "el.waveshape~ stores a user-specified sum of Chebychev polynomials in a table which is then used as a transfer function. Waveshaping is a non-linear process; higher amplitude of input will generally increase the amount of harmonic distortion.",
					"varname" : "autohelp_top_description"
				}

			}
, 			{
				"box" : 				{
					"bgcolor" : [ 0.0, 0.0, 0.0, 0.0 ],
					"bgoncolor" : [ 0.0, 0.0, 0.0, 0.0 ],
					"fontface" : 3,
					"fontlink" : 1,
					"fontsize" : 12.754705,
					"id" : "obj-31",
					"legacytextcolor" : 1,
					"maxclass" : "textbutton",
					"numinlets" : 1,
					"numoutlets" : 3,
					"outlettype" : [ "", "", "int" ],
					"parameter_enable" : 0,
					"patching_rect" : [ 307.318359, 22.0, 192.681641, 14.249397 ],
					"presentation_rect" : [ 0.0, 0.0, 192.681641, 14.249397 ],
					"spacing_x" : 0.0,
					"spacing_y" : 0.0,
					"style" : "",
					"text" : "open el.waveshape~ reference",
					"textcolor" : [ 0.361, 0.455, 0.596, 1.0 ],
					"textoncolor" : [ 0.27, 0.35, 0.47, 1.0 ],
					"textovercolor" : [ 0.4, 0.5, 0.65, 1.0 ],
					"underline" : 1,
					"usebgoncolor" : 1,
					"usetextovercolor" : 1,
					"varname" : "autohelp_top_ref"
				}

			}
, 			{
				"box" : 				{
					"fontface" : 1,
					"fontname" : "Arial",
					"fontsize" : 11.595187,
					"id" : "obj-33",
					"maxclass" : "comment",
					"numinlets" : 1,
					"numoutlets" : 0,
					"patching_rect" : [ 167.0, 376.0, 100.0, 19.0 ],
					"style" : "",
					"text" : "See Also:",
					"varname" : "autohelp_see_title"
				}

			}
, 			{
				"box" : 				{
					"fontface" : 0,
					"fontname" : "Arial",
					"fontsize" : 11.595187,
					"id" : "obj-34",
					"items" : [ "(Objects:)", ",", "lookup~", ",", "<separator>" ],
					"maxclass" : "umenu",
					"numinlets" : 1,
					"numoutlets" : 3,
					"outlettype" : [ "int", "", "" ],
					"parameter_enable" : 0,
					"patching_rect" : [ 167.0, 396.0, 130.0, 21.0 ],
					"style" : "",
					"varname" : "autohelp_see_menu"
				}

			}
, 			{
				"box" : 				{
					"angle" : 0.0,
					"background" : 1,
					"grad1" : [ 0.88, 0.98, 0.78, 1.0 ],
					"grad2" : [ 0.9, 0.9, 0.9, 1.0 ],
					"id" : "obj-32",
					"maxclass" : "panel",
					"mode" : 1,
					"numinlets" : 1,
					"numoutlets" : 0,
					"patching_rect" : [ 5.0, 5.0, 495.0, 52.0 ],
					"proportion" : 0.39,
					"style" : "",
					"varname" : "autohelp_top_panel"
				}

			}
, 			{
				"box" : 				{
					"angle" : 0.0,
					"background" : 1,
					"bgcolor" : [ 0.85, 0.85, 0.85, 0.75 ],
					"border" : 2,
					"bordercolor" : [ 0.5, 0.5, 0.5, 0.75 ],
					"id" : "obj-35",
					"maxclass" : "panel",
					"mode" : 0,
					"numinlets" : 1,
					"numoutlets" : 0,
					"patching_rect" : [ 162.0, 372.0, 140.0, 50.0 ],
					"proportion" : 0.39,
					"style" : "",
					"varname" : "autohelp_see_panel"
				}

			}
 ],
		"lines" : [ 			{
				"patchline" : 				{
					"destination" : [ "obj-21", 0 ],
					"disabled" : 0,
					"hidden" : 0,
					"source" : [ "obj-1", 0 ]
				}

			}
, 			{
				"patchline" : 				{
					"destination" : [ "obj-3", 0 ],
					"disabled" : 0,
					"hidden" : 1,
					"source" : [ "obj-10", 0 ]
				}

			}
, 			{
				"patchline" : 				{
					"destination" : [ "obj-9", 0 ],
					"disabled" : 0,
					"hidden" : 1,
					"source" : [ "obj-10", 0 ]
				}

			}
, 			{
				"patchline" : 				{
					"color" : [ 1.0, 0.611765, 0.611765, 1.0 ],
					"destination" : [ "obj-19", 1 ],
					"disabled" : 0,
					"hidden" : 0,
					"midpoints" : [ 42.5, 249.0, 155.5, 249.0 ],
					"source" : [ "obj-11", 0 ]
				}

			}
, 			{
				"patchline" : 				{
					"destination" : [ "obj-21", 0 ],
					"disabled" : 0,
					"hidden" : 0,
					"source" : [ "obj-12", 0 ]
				}

			}
, 			{
				"patchline" : 				{
					"destination" : [ "obj-21", 0 ],
					"disabled" : 0,
					"hidden" : 0,
					"source" : [ "obj-13", 0 ]
				}

			}
, 			{
				"patchline" : 				{
					"destination" : [ "obj-21", 0 ],
					"disabled" : 0,
					"hidden" : 0,
					"source" : [ "obj-14", 0 ]
				}

			}
, 			{
				"patchline" : 				{
					"destination" : [ "obj-20", 0 ],
					"disabled" : 0,
					"hidden" : 0,
					"midpoints" : [ 115.5, 190.0, 141.5, 190.0 ],
					"source" : [ "obj-16", 0 ]
				}

			}
, 			{
				"patchline" : 				{
					"destination" : [ "obj-17", 0 ],
					"disabled" : 0,
					"hidden" : 0,
					"midpoints" : [ 141.5, 367.5, 360.5, 367.5 ],
					"source" : [ "obj-18", 0 ]
				}

			}
, 			{
				"patchline" : 				{
					"destination" : [ "obj-8", 0 ],
					"disabled" : 0,
					"hidden" : 0,
					"midpoints" : [ 141.5, 354.0, 120.5, 354.0 ],
					"source" : [ "obj-18", 0 ]
				}

			}
, 			{
				"patchline" : 				{
					"destination" : [ "obj-21", 0 ],
					"disabled" : 0,
					"hidden" : 0,
					"source" : [ "obj-19", 0 ]
				}

			}
, 			{
				"patchline" : 				{
					"destination" : [ "obj-12", 0 ],
					"disabled" : 0,
					"hidden" : 1,
					"source" : [ "obj-2", 0 ]
				}

			}
, 			{
				"patchline" : 				{
					"destination" : [ "obj-19", 0 ],
					"disabled" : 0,
					"hidden" : 0,
					"source" : [ "obj-20", 0 ]
				}

			}
, 			{
				"patchline" : 				{
					"destination" : [ "obj-18", 0 ],
					"disabled" : 0,
					"hidden" : 0,
					"source" : [ "obj-21", 0 ]
				}

			}
, 			{
				"patchline" : 				{
					"destination" : [ "obj-8", 0 ],
					"disabled" : 0,
					"hidden" : 1,
					"source" : [ "obj-27", 0 ]
				}

			}
, 			{
				"patchline" : 				{
					"destination" : [ "obj-11", 0 ],
					"disabled" : 0,
					"hidden" : 1,
					"source" : [ "obj-3", 0 ]
				}

			}
, 			{
				"patchline" : 				{
					"destination" : [ "obj-15", 0 ],
					"disabled" : 0,
					"hidden" : 0,
					"midpoints" : [ 120.5, 422.0, 203.5, 422.0 ],
					"source" : [ "obj-8", 0 ]
				}

			}
, 			{
				"patchline" : 				{
					"destination" : [ "obj-22", 1 ],
					"disabled" : 0,
					"hidden" : 0,
					"midpoints" : [ 120.5, 422.0, 131.5, 422.0 ],
					"source" : [ "obj-8", 0 ]
				}

			}
, 			{
				"patchline" : 				{
					"destination" : [ "obj-22", 0 ],
					"disabled" : 0,
					"hidden" : 0,
					"midpoints" : [ 120.5, 422.0, 105.5, 422.0 ],
					"source" : [ "obj-8", 0 ]
				}

			}
, 			{
				"patchline" : 				{
					"destination" : [ "obj-16", 0 ],
					"disabled" : 0,
					"hidden" : 1,
					"source" : [ "obj-9", 0 ]
				}

			}
 ],
		"dependency_cache" : [ 			{
				"name" : "el.waveshape~.mxo",
				"type" : "iLaX"
			}
, 			{
				"name" : "el.killdc~.mxo",
				"type" : "iLaX"
			}
 ],
		"embedsnapshot" : 0
	}

}
