{
	"patcher" : 	{
		"fileversion" : 1,
		"appversion" : 		{
			"major" : 8,
			"minor" : 1,
			"revision" : 3,
			"architecture" : "x64",
			"modernui" : 1
		}
,
		"classnamespace" : "box",
		"rect" : [ 34.0, 82.0, 1412.0, 1004.0 ],
		"bglocked" : 0,
		"openinpresentation" : 1,
		"default_fontsize" : 12.0,
		"default_fontface" : 0,
		"default_fontname" : "Arial",
		"gridonopen" : 1,
		"gridsize" : [ 15.0, 15.0 ],
		"gridsnaponopen" : 1,
		"objectsnaponopen" : 1,
		"statusbarvisible" : 2,
		"toolbarvisible" : 1,
		"lefttoolbarpinned" : 0,
		"toptoolbarpinned" : 0,
		"righttoolbarpinned" : 0,
		"bottomtoolbarpinned" : 0,
		"toolbars_unpinned_last_save" : 0,
		"tallnewobj" : 0,
		"boxanimatetime" : 200,
		"enablehscroll" : 1,
		"enablevscroll" : 1,
		"devicewidth" : 0.0,
		"description" : "",
		"digest" : "",
		"tags" : "",
		"style" : "",
		"subpatcher_template" : "",
		"boxes" : [ 			{
				"box" : 				{
					"id" : "obj-66",
					"linecount" : 3,
					"maxclass" : "newobj",
					"numinlets" : 1,
					"numoutlets" : 1,
					"outlettype" : [ "" ],
					"patcher" : 					{
						"fileversion" : 1,
						"appversion" : 						{
							"major" : 8,
							"minor" : 1,
							"revision" : 3,
							"architecture" : "x64",
							"modernui" : 1
						}
,
						"classnamespace" : "box",
						"rect" : [ 59.0, 81.0, 640.0, 480.0 ],
						"bglocked" : 0,
						"openinpresentation" : 0,
						"default_fontsize" : 12.0,
						"default_fontface" : 0,
						"default_fontname" : "Arial",
						"gridonopen" : 1,
						"gridsize" : [ 15.0, 15.0 ],
						"gridsnaponopen" : 1,
						"objectsnaponopen" : 1,
						"statusbarvisible" : 2,
						"toolbarvisible" : 1,
						"lefttoolbarpinned" : 0,
						"toptoolbarpinned" : 0,
						"righttoolbarpinned" : 0,
						"bottomtoolbarpinned" : 0,
						"toolbars_unpinned_last_save" : 0,
						"tallnewobj" : 0,
						"boxanimatetime" : 200,
						"enablehscroll" : 1,
						"enablevscroll" : 1,
						"devicewidth" : 0.0,
						"description" : "",
						"digest" : "",
						"tags" : "",
						"style" : "",
						"subpatcher_template" : "",
						"boxes" : [ 							{
								"box" : 								{
									"id" : "obj-57",
									"maxclass" : "newobj",
									"numinlets" : 2,
									"numoutlets" : 1,
									"outlettype" : [ "" ],
									"patcher" : 									{
										"fileversion" : 1,
										"appversion" : 										{
											"major" : 8,
											"minor" : 1,
											"revision" : 3,
											"architecture" : "x64",
											"modernui" : 1
										}
,
										"classnamespace" : "box",
										"rect" : [ 0.0, 0.0, 640.0, 480.0 ],
										"bglocked" : 0,
										"openinpresentation" : 0,
										"default_fontsize" : 12.0,
										"default_fontface" : 0,
										"default_fontname" : "Arial",
										"gridonopen" : 1,
										"gridsize" : [ 15.0, 15.0 ],
										"gridsnaponopen" : 1,
										"objectsnaponopen" : 1,
										"statusbarvisible" : 2,
										"toolbarvisible" : 1,
										"lefttoolbarpinned" : 0,
										"toptoolbarpinned" : 0,
										"righttoolbarpinned" : 0,
										"bottomtoolbarpinned" : 0,
										"toolbars_unpinned_last_save" : 0,
										"tallnewobj" : 0,
										"boxanimatetime" : 200,
										"enablehscroll" : 1,
										"enablevscroll" : 1,
										"devicewidth" : 0.0,
										"description" : "",
										"digest" : "",
										"tags" : "",
										"style" : "",
										"subpatcher_template" : "",
										"boxes" : [ 											{
												"box" : 												{
													"id" : "obj-45",
													"linecount" : 5,
													"maxclass" : "message",
													"numinlets" : 2,
													"numoutlets" : 1,
													"outlettype" : [ "" ],
													"patching_rect" : [ 50.0, 100.0, 50.0, 102.0 ],
													"text" : "\"Macintosh HD:/Users/cella/\""
												}

											}
, 											{
												"box" : 												{
													"comment" : "",
													"id" : "obj-53",
													"index" : 1,
													"maxclass" : "inlet",
													"numinlets" : 0,
													"numoutlets" : 1,
													"outlettype" : [ "bang" ],
													"patching_rect" : [ 50.0, 40.0, 30.0, 30.0 ]
												}

											}
, 											{
												"box" : 												{
													"comment" : "",
													"id" : "obj-54",
													"index" : 2,
													"maxclass" : "inlet",
													"numinlets" : 0,
													"numoutlets" : 1,
													"outlettype" : [ "" ],
													"patching_rect" : [ 81.0, 40.0, 30.0, 30.0 ]
												}

											}
, 											{
												"box" : 												{
													"comment" : "",
													"id" : "obj-56",
													"index" : 1,
													"maxclass" : "outlet",
													"numinlets" : 1,
													"numoutlets" : 0,
													"patching_rect" : [ 50.0, 262.0, 30.0, 30.0 ]
												}

											}
 ],
										"lines" : [ 											{
												"patchline" : 												{
													"destination" : [ "obj-56", 0 ],
													"source" : [ "obj-45", 0 ]
												}

											}
, 											{
												"patchline" : 												{
													"destination" : [ "obj-45", 0 ],
													"source" : [ "obj-53", 0 ]
												}

											}
, 											{
												"patchline" : 												{
													"destination" : [ "obj-45", 1 ],
													"source" : [ "obj-54", 0 ]
												}

											}
 ]
									}
,
									"patching_rect" : [ 64.0, 654.0, 29.5, 22.0 ],
									"saved_object_attributes" : 									{
										"description" : "",
										"digest" : "",
										"globalpatchername" : "",
										"tags" : ""
									}
,
									"text" : "p"
								}

							}
, 							{
								"box" : 								{
									"id" : "obj-47",
									"maxclass" : "newobj",
									"numinlets" : 1,
									"numoutlets" : 2,
									"outlettype" : [ "bang", "" ],
									"patching_rect" : [ 64.0, 608.0, 31.0, 22.0 ],
									"text" : "t b s"
								}

							}
, 							{
								"box" : 								{
									"id" : "obj-34",
									"maxclass" : "newobj",
									"numinlets" : 1,
									"numoutlets" : 1,
									"outlettype" : [ "bang" ],
									"patching_rect" : [ 245.5, 473.64312744140625, 58.0, 22.0 ],
									"text" : "loadbang"
								}

							}
, 							{
								"box" : 								{
									"id" : "obj-35",
									"maxclass" : "newobj",
									"numinlets" : 1,
									"numoutlets" : 1,
									"outlettype" : [ "" ],
									"patching_rect" : [ 245.5, 539.0, 57.0, 22.0 ],
									"text" : "tosymbol"
								}

							}
, 							{
								"box" : 								{
									"id" : "obj-36",
									"maxclass" : "newobj",
									"numinlets" : 1,
									"numoutlets" : 1,
									"outlettype" : [ "" ],
									"patching_rect" : [ 245.5, 506.64312744140625, 67.0, 22.0 ],
									"text" : "12c_config"
								}

							}
, 							{
								"box" : 								{
									"id" : "obj-37",
									"maxclass" : "newobj",
									"numinlets" : 1,
									"numoutlets" : 1,
									"outlettype" : [ "" ],
									"patching_rect" : [ 245.5, 569.70001220703125, 69.0, 22.0 ],
									"text" : "sprintf %s\\\""
								}

							}
, 							{
								"box" : 								{
									"id" : "obj-55",
									"maxclass" : "newobj",
									"numinlets" : 2,
									"numoutlets" : 1,
									"outlettype" : [ "" ],
									"patching_rect" : [ 64.0, 689.0, 282.0, 22.0 ],
									"text" : "sprintf read \\\"%snnirror/presets/obxd/leads/%s.fxp\\\""
								}

							}
, 							{
								"box" : 								{
									"fontname" : "Arial",
									"fontsize" : 12.0,
									"id" : "obj-10",
									"maxclass" : "newobj",
									"numinlets" : 1,
									"numoutlets" : 1,
									"outlettype" : [ "" ],
									"patching_rect" : [ 94.0, 519.0, 98.0, 22.0 ],
									"text" : "prepend append"
								}

							}
, 							{
								"box" : 								{
									"fontname" : "Arial",
									"fontsize" : 12.0,
									"id" : "obj-18",
									"maxclass" : "newobj",
									"numinlets" : 2,
									"numoutlets" : 2,
									"outlettype" : [ "bang", "" ],
									"patching_rect" : [ 94.0, 489.0, 59.0, 22.0 ],
									"text" : "select 32"
								}

							}
, 							{
								"box" : 								{
									"fontname" : "Arial",
									"fontsize" : 12.0,
									"id" : "obj-46",
									"maxclass" : "newobj",
									"numinlets" : 3,
									"numoutlets" : 1,
									"outlettype" : [ "int" ],
									"patching_rect" : [ 64.0, 579.0, 46.0, 22.0 ],
									"text" : "itoa"
								}

							}
, 							{
								"box" : 								{
									"fontname" : "Arial",
									"fontsize" : 12.0,
									"id" : "obj-15",
									"maxclass" : "newobj",
									"numinlets" : 3,
									"numoutlets" : 1,
									"outlettype" : [ "list" ],
									"patching_rect" : [ 67.0, 379.0, 46.0, 22.0 ],
									"text" : "atoi"
								}

							}
, 							{
								"box" : 								{
									"fontname" : "Arial",
									"fontsize" : 12.0,
									"id" : "obj-16",
									"maxclass" : "newobj",
									"numinlets" : 1,
									"numoutlets" : 3,
									"outlettype" : [ "set", "bang", "" ],
									"patching_rect" : [ 64.0, 414.0, 49.0, 22.0 ],
									"text" : "t set b l"
								}

							}
, 							{
								"box" : 								{
									"fontname" : "Arial",
									"fontsize" : 12.0,
									"id" : "obj-49",
									"maxclass" : "newobj",
									"numinlets" : 1,
									"numoutlets" : 1,
									"outlettype" : [ "" ],
									"patching_rect" : [ 94.0, 459.0, 27.0, 22.0 ],
									"text" : "iter"
								}

							}
, 							{
								"box" : 								{
									"fontname" : "Arial",
									"fontsize" : 12.0,
									"id" : "obj-17",
									"maxclass" : "message",
									"numinlets" : 2,
									"numoutlets" : 1,
									"outlettype" : [ "" ],
									"patching_rect" : [ 64.0, 549.0, 50.0, 22.0 ]
								}

							}
, 							{
								"box" : 								{
									"id" : "obj-31",
									"maxclass" : "newobj",
									"numinlets" : 2,
									"numoutlets" : 2,
									"outlettype" : [ "bang", "" ],
									"patching_rect" : [ 127.0, 220.0, 34.0, 22.0 ],
									"text" : "sel 1"
								}

							}
, 							{
								"box" : 								{
									"id" : "obj-30",
									"maxclass" : "message",
									"numinlets" : 2,
									"numoutlets" : 1,
									"outlettype" : [ "" ],
									"patching_rect" : [ 50.0, 274.067627000000016, 63.0, 22.0 ],
									"text" : "prepend 0"
								}

							}
, 							{
								"box" : 								{
									"id" : "obj-19",
									"maxclass" : "newobj",
									"numinlets" : 2,
									"numoutlets" : 2,
									"outlettype" : [ "bang", "" ],
									"patching_rect" : [ 60.0, 220.0, 34.0, 22.0 ],
									"text" : "sel 1"
								}

							}
, 							{
								"box" : 								{
									"id" : "obj-27",
									"maxclass" : "newobj",
									"numinlets" : 1,
									"numoutlets" : 4,
									"outlettype" : [ "bang", "int", "int", "int" ],
									"patching_rect" : [ 67.0, 100.0, 50.5, 22.0 ],
									"text" : "t b i i i"
								}

							}
, 							{
								"box" : 								{
									"id" : "obj-20",
									"maxclass" : "newobj",
									"numinlets" : 2,
									"numoutlets" : 1,
									"outlettype" : [ "int" ],
									"patching_rect" : [ 127.0, 171.0, 39.0, 22.0 ],
									"text" : "< 100"
								}

							}
, 							{
								"box" : 								{
									"id" : "obj-21",
									"maxclass" : "newobj",
									"numinlets" : 2,
									"numoutlets" : 1,
									"outlettype" : [ "int" ],
									"patching_rect" : [ 60.0, 159.0, 32.0, 22.0 ],
									"text" : "< 10"
								}

							}
, 							{
								"box" : 								{
									"id" : "obj-22",
									"maxclass" : "message",
									"numinlets" : 2,
									"numoutlets" : 1,
									"outlettype" : [ "" ],
									"patching_rect" : [ 67.0, 338.0, 50.0, 22.0 ],
									"text" : "0 23"
								}

							}
, 							{
								"box" : 								{
									"id" : "obj-25",
									"maxclass" : "message",
									"numinlets" : 2,
									"numoutlets" : 1,
									"outlettype" : [ "" ],
									"patching_rect" : [ 137.0, 267.567627000000016, 63.0, 22.0 ],
									"text" : "prepend 0"
								}

							}
, 							{
								"box" : 								{
									"comment" : "",
									"id" : "obj-58",
									"index" : 1,
									"maxclass" : "inlet",
									"numinlets" : 0,
									"numoutlets" : 1,
									"outlettype" : [ "int" ],
									"patching_rect" : [ 67.0, 40.0, 30.0, 30.0 ]
								}

							}
, 							{
								"box" : 								{
									"comment" : "",
									"id" : "obj-59",
									"index" : 1,
									"maxclass" : "outlet",
									"numinlets" : 1,
									"numoutlets" : 0,
									"patching_rect" : [ 64.0, 771.0, 30.0, 30.0 ]
								}

							}
 ],
						"lines" : [ 							{
								"patchline" : 								{
									"destination" : [ "obj-17", 0 ],
									"source" : [ "obj-10", 0 ]
								}

							}
, 							{
								"patchline" : 								{
									"destination" : [ "obj-16", 0 ],
									"source" : [ "obj-15", 0 ]
								}

							}
, 							{
								"patchline" : 								{
									"destination" : [ "obj-17", 0 ],
									"midpoints" : [ 88.5, 531.0, 73.5, 531.0 ],
									"source" : [ "obj-16", 1 ]
								}

							}
, 							{
								"patchline" : 								{
									"destination" : [ "obj-17", 0 ],
									"midpoints" : [ 73.5, 531.0, 73.5, 531.0 ],
									"source" : [ "obj-16", 0 ]
								}

							}
, 							{
								"patchline" : 								{
									"destination" : [ "obj-49", 0 ],
									"source" : [ "obj-16", 2 ]
								}

							}
, 							{
								"patchline" : 								{
									"destination" : [ "obj-46", 0 ],
									"source" : [ "obj-17", 0 ]
								}

							}
, 							{
								"patchline" : 								{
									"destination" : [ "obj-10", 0 ],
									"source" : [ "obj-18", 1 ]
								}

							}
, 							{
								"patchline" : 								{
									"destination" : [ "obj-30", 0 ],
									"source" : [ "obj-19", 0 ]
								}

							}
, 							{
								"patchline" : 								{
									"destination" : [ "obj-31", 0 ],
									"source" : [ "obj-20", 0 ]
								}

							}
, 							{
								"patchline" : 								{
									"destination" : [ "obj-19", 0 ],
									"source" : [ "obj-21", 0 ]
								}

							}
, 							{
								"patchline" : 								{
									"destination" : [ "obj-15", 0 ],
									"source" : [ "obj-22", 0 ]
								}

							}
, 							{
								"patchline" : 								{
									"destination" : [ "obj-22", 0 ],
									"source" : [ "obj-25", 0 ]
								}

							}
, 							{
								"patchline" : 								{
									"destination" : [ "obj-20", 0 ],
									"source" : [ "obj-27", 2 ]
								}

							}
, 							{
								"patchline" : 								{
									"destination" : [ "obj-21", 0 ],
									"source" : [ "obj-27", 1 ]
								}

							}
, 							{
								"patchline" : 								{
									"destination" : [ "obj-22", 1 ],
									"source" : [ "obj-27", 3 ]
								}

							}
, 							{
								"patchline" : 								{
									"destination" : [ "obj-22", 0 ],
									"source" : [ "obj-27", 0 ]
								}

							}
, 							{
								"patchline" : 								{
									"destination" : [ "obj-22", 0 ],
									"source" : [ "obj-30", 0 ]
								}

							}
, 							{
								"patchline" : 								{
									"destination" : [ "obj-25", 0 ],
									"source" : [ "obj-31", 0 ]
								}

							}
, 							{
								"patchline" : 								{
									"destination" : [ "obj-36", 0 ],
									"source" : [ "obj-34", 0 ]
								}

							}
, 							{
								"patchline" : 								{
									"destination" : [ "obj-37", 0 ],
									"source" : [ "obj-35", 0 ]
								}

							}
, 							{
								"patchline" : 								{
									"destination" : [ "obj-35", 0 ],
									"source" : [ "obj-36", 0 ]
								}

							}
, 							{
								"patchline" : 								{
									"destination" : [ "obj-57", 1 ],
									"source" : [ "obj-37", 0 ]
								}

							}
, 							{
								"patchline" : 								{
									"destination" : [ "obj-47", 0 ],
									"source" : [ "obj-46", 0 ]
								}

							}
, 							{
								"patchline" : 								{
									"destination" : [ "obj-55", 1 ],
									"source" : [ "obj-47", 1 ]
								}

							}
, 							{
								"patchline" : 								{
									"destination" : [ "obj-57", 0 ],
									"source" : [ "obj-47", 0 ]
								}

							}
, 							{
								"patchline" : 								{
									"destination" : [ "obj-18", 0 ],
									"source" : [ "obj-49", 0 ]
								}

							}
, 							{
								"patchline" : 								{
									"destination" : [ "obj-59", 0 ],
									"source" : [ "obj-55", 0 ]
								}

							}
, 							{
								"patchline" : 								{
									"destination" : [ "obj-55", 0 ],
									"source" : [ "obj-57", 0 ]
								}

							}
, 							{
								"patchline" : 								{
									"destination" : [ "obj-27", 0 ],
									"source" : [ "obj-58", 0 ]
								}

							}
 ]
					}
,
					"patching_rect" : [ 978.600000000000023, 313.0, 66.999999999999886, 49.0 ],
					"saved_object_attributes" : 					{
						"description" : "",
						"digest" : "",
						"globalpatchername" : "",
						"tags" : ""
					}
,
					"text" : "p select_lead_preset"
				}

			}
, 			{
				"box" : 				{
					"id" : "obj-61",
					"linecount" : 3,
					"maxclass" : "newobj",
					"numinlets" : 1,
					"numoutlets" : 1,
					"outlettype" : [ "" ],
					"patcher" : 					{
						"fileversion" : 1,
						"appversion" : 						{
							"major" : 8,
							"minor" : 1,
							"revision" : 3,
							"architecture" : "x64",
							"modernui" : 1
						}
,
						"classnamespace" : "box",
						"rect" : [ 34.0, 79.0, 1717.0, 1007.0 ],
						"bglocked" : 0,
						"openinpresentation" : 0,
						"default_fontsize" : 12.0,
						"default_fontface" : 0,
						"default_fontname" : "Arial",
						"gridonopen" : 1,
						"gridsize" : [ 15.0, 15.0 ],
						"gridsnaponopen" : 1,
						"objectsnaponopen" : 1,
						"statusbarvisible" : 2,
						"toolbarvisible" : 1,
						"lefttoolbarpinned" : 0,
						"toptoolbarpinned" : 0,
						"righttoolbarpinned" : 0,
						"bottomtoolbarpinned" : 0,
						"toolbars_unpinned_last_save" : 0,
						"tallnewobj" : 0,
						"boxanimatetime" : 200,
						"enablehscroll" : 1,
						"enablevscroll" : 1,
						"devicewidth" : 0.0,
						"description" : "",
						"digest" : "",
						"tags" : "",
						"style" : "",
						"subpatcher_template" : "",
						"boxes" : [ 							{
								"box" : 								{
									"id" : "obj-57",
									"maxclass" : "newobj",
									"numinlets" : 2,
									"numoutlets" : 1,
									"outlettype" : [ "" ],
									"patcher" : 									{
										"fileversion" : 1,
										"appversion" : 										{
											"major" : 8,
											"minor" : 1,
											"revision" : 3,
											"architecture" : "x64",
											"modernui" : 1
										}
,
										"classnamespace" : "box",
										"rect" : [ 0.0, 0.0, 640.0, 480.0 ],
										"bglocked" : 0,
										"openinpresentation" : 0,
										"default_fontsize" : 12.0,
										"default_fontface" : 0,
										"default_fontname" : "Arial",
										"gridonopen" : 1,
										"gridsize" : [ 15.0, 15.0 ],
										"gridsnaponopen" : 1,
										"objectsnaponopen" : 1,
										"statusbarvisible" : 2,
										"toolbarvisible" : 1,
										"lefttoolbarpinned" : 0,
										"toptoolbarpinned" : 0,
										"righttoolbarpinned" : 0,
										"bottomtoolbarpinned" : 0,
										"toolbars_unpinned_last_save" : 0,
										"tallnewobj" : 0,
										"boxanimatetime" : 200,
										"enablehscroll" : 1,
										"enablevscroll" : 1,
										"devicewidth" : 0.0,
										"description" : "",
										"digest" : "",
										"tags" : "",
										"style" : "",
										"subpatcher_template" : "",
										"boxes" : [ 											{
												"box" : 												{
													"id" : "obj-45",
													"linecount" : 5,
													"maxclass" : "message",
													"numinlets" : 2,
													"numoutlets" : 1,
													"outlettype" : [ "" ],
													"patching_rect" : [ 50.0, 100.0, 50.0, 102.0 ],
													"text" : "\"Macintosh HD:/Users/cella/\""
												}

											}
, 											{
												"box" : 												{
													"comment" : "",
													"id" : "obj-53",
													"index" : 1,
													"maxclass" : "inlet",
													"numinlets" : 0,
													"numoutlets" : 1,
													"outlettype" : [ "bang" ],
													"patching_rect" : [ 50.0, 40.0, 30.0, 30.0 ]
												}

											}
, 											{
												"box" : 												{
													"comment" : "",
													"id" : "obj-54",
													"index" : 2,
													"maxclass" : "inlet",
													"numinlets" : 0,
													"numoutlets" : 1,
													"outlettype" : [ "" ],
													"patching_rect" : [ 81.0, 40.0, 30.0, 30.0 ]
												}

											}
, 											{
												"box" : 												{
													"comment" : "",
													"id" : "obj-56",
													"index" : 1,
													"maxclass" : "outlet",
													"numinlets" : 1,
													"numoutlets" : 0,
													"patching_rect" : [ 50.0, 262.0, 30.0, 30.0 ]
												}

											}
 ],
										"lines" : [ 											{
												"patchline" : 												{
													"destination" : [ "obj-56", 0 ],
													"source" : [ "obj-45", 0 ]
												}

											}
, 											{
												"patchline" : 												{
													"destination" : [ "obj-45", 0 ],
													"source" : [ "obj-53", 0 ]
												}

											}
, 											{
												"patchline" : 												{
													"destination" : [ "obj-45", 1 ],
													"source" : [ "obj-54", 0 ]
												}

											}
 ]
									}
,
									"patching_rect" : [ 64.0, 654.0, 29.5, 22.0 ],
									"saved_object_attributes" : 									{
										"description" : "",
										"digest" : "",
										"globalpatchername" : "",
										"tags" : ""
									}
,
									"text" : "p"
								}

							}
, 							{
								"box" : 								{
									"id" : "obj-47",
									"maxclass" : "newobj",
									"numinlets" : 1,
									"numoutlets" : 2,
									"outlettype" : [ "bang", "" ],
									"patching_rect" : [ 64.0, 608.0, 31.0, 22.0 ],
									"text" : "t b s"
								}

							}
, 							{
								"box" : 								{
									"id" : "obj-34",
									"maxclass" : "newobj",
									"numinlets" : 1,
									"numoutlets" : 1,
									"outlettype" : [ "bang" ],
									"patching_rect" : [ 245.5, 473.64312744140625, 58.0, 22.0 ],
									"text" : "loadbang"
								}

							}
, 							{
								"box" : 								{
									"id" : "obj-35",
									"maxclass" : "newobj",
									"numinlets" : 1,
									"numoutlets" : 1,
									"outlettype" : [ "" ],
									"patching_rect" : [ 245.5, 539.0, 57.0, 22.0 ],
									"text" : "tosymbol"
								}

							}
, 							{
								"box" : 								{
									"id" : "obj-36",
									"maxclass" : "newobj",
									"numinlets" : 1,
									"numoutlets" : 1,
									"outlettype" : [ "" ],
									"patching_rect" : [ 245.5, 506.64312744140625, 67.0, 22.0 ],
									"text" : "12c_config"
								}

							}
, 							{
								"box" : 								{
									"id" : "obj-37",
									"maxclass" : "newobj",
									"numinlets" : 1,
									"numoutlets" : 1,
									"outlettype" : [ "" ],
									"patching_rect" : [ 245.5, 569.70001220703125, 69.0, 22.0 ],
									"text" : "sprintf %s\\\""
								}

							}
, 							{
								"box" : 								{
									"id" : "obj-55",
									"maxclass" : "newobj",
									"numinlets" : 2,
									"numoutlets" : 1,
									"outlettype" : [ "" ],
									"patching_rect" : [ 64.0, 689.0, 278.0, 22.0 ],
									"text" : "sprintf read \\\"%snnirror/presets/obxd/bass/%s.fxp\\\""
								}

							}
, 							{
								"box" : 								{
									"fontname" : "Arial",
									"fontsize" : 12.0,
									"id" : "obj-10",
									"maxclass" : "newobj",
									"numinlets" : 1,
									"numoutlets" : 1,
									"outlettype" : [ "" ],
									"patching_rect" : [ 94.0, 519.0, 98.0, 22.0 ],
									"text" : "prepend append"
								}

							}
, 							{
								"box" : 								{
									"fontname" : "Arial",
									"fontsize" : 12.0,
									"id" : "obj-18",
									"maxclass" : "newobj",
									"numinlets" : 2,
									"numoutlets" : 2,
									"outlettype" : [ "bang", "" ],
									"patching_rect" : [ 94.0, 489.0, 59.0, 22.0 ],
									"text" : "select 32"
								}

							}
, 							{
								"box" : 								{
									"fontname" : "Arial",
									"fontsize" : 12.0,
									"id" : "obj-46",
									"maxclass" : "newobj",
									"numinlets" : 3,
									"numoutlets" : 1,
									"outlettype" : [ "int" ],
									"patching_rect" : [ 64.0, 579.0, 46.0, 22.0 ],
									"text" : "itoa"
								}

							}
, 							{
								"box" : 								{
									"fontname" : "Arial",
									"fontsize" : 12.0,
									"id" : "obj-15",
									"maxclass" : "newobj",
									"numinlets" : 3,
									"numoutlets" : 1,
									"outlettype" : [ "list" ],
									"patching_rect" : [ 67.0, 379.0, 46.0, 22.0 ],
									"text" : "atoi"
								}

							}
, 							{
								"box" : 								{
									"fontname" : "Arial",
									"fontsize" : 12.0,
									"id" : "obj-16",
									"maxclass" : "newobj",
									"numinlets" : 1,
									"numoutlets" : 3,
									"outlettype" : [ "set", "bang", "" ],
									"patching_rect" : [ 64.0, 414.0, 49.0, 22.0 ],
									"text" : "t set b l"
								}

							}
, 							{
								"box" : 								{
									"fontname" : "Arial",
									"fontsize" : 12.0,
									"id" : "obj-49",
									"maxclass" : "newobj",
									"numinlets" : 1,
									"numoutlets" : 1,
									"outlettype" : [ "" ],
									"patching_rect" : [ 94.0, 459.0, 27.0, 22.0 ],
									"text" : "iter"
								}

							}
, 							{
								"box" : 								{
									"fontname" : "Arial",
									"fontsize" : 12.0,
									"id" : "obj-17",
									"maxclass" : "message",
									"numinlets" : 2,
									"numoutlets" : 1,
									"outlettype" : [ "" ],
									"patching_rect" : [ 64.0, 549.0, 50.0, 22.0 ]
								}

							}
, 							{
								"box" : 								{
									"id" : "obj-31",
									"maxclass" : "newobj",
									"numinlets" : 2,
									"numoutlets" : 2,
									"outlettype" : [ "bang", "" ],
									"patching_rect" : [ 127.0, 220.0, 34.0, 22.0 ],
									"text" : "sel 1"
								}

							}
, 							{
								"box" : 								{
									"id" : "obj-30",
									"maxclass" : "message",
									"numinlets" : 2,
									"numoutlets" : 1,
									"outlettype" : [ "" ],
									"patching_rect" : [ 50.0, 274.067627000000016, 63.0, 22.0 ],
									"text" : "prepend 0"
								}

							}
, 							{
								"box" : 								{
									"id" : "obj-19",
									"maxclass" : "newobj",
									"numinlets" : 2,
									"numoutlets" : 2,
									"outlettype" : [ "bang", "" ],
									"patching_rect" : [ 60.0, 220.0, 34.0, 22.0 ],
									"text" : "sel 1"
								}

							}
, 							{
								"box" : 								{
									"id" : "obj-27",
									"maxclass" : "newobj",
									"numinlets" : 1,
									"numoutlets" : 4,
									"outlettype" : [ "bang", "int", "int", "int" ],
									"patching_rect" : [ 67.0, 100.0, 50.5, 22.0 ],
									"text" : "t b i i i"
								}

							}
, 							{
								"box" : 								{
									"id" : "obj-20",
									"maxclass" : "newobj",
									"numinlets" : 2,
									"numoutlets" : 1,
									"outlettype" : [ "int" ],
									"patching_rect" : [ 127.0, 171.0, 39.0, 22.0 ],
									"text" : "< 100"
								}

							}
, 							{
								"box" : 								{
									"id" : "obj-21",
									"maxclass" : "newobj",
									"numinlets" : 2,
									"numoutlets" : 1,
									"outlettype" : [ "int" ],
									"patching_rect" : [ 60.0, 159.0, 32.0, 22.0 ],
									"text" : "< 10"
								}

							}
, 							{
								"box" : 								{
									"id" : "obj-22",
									"maxclass" : "message",
									"numinlets" : 2,
									"numoutlets" : 1,
									"outlettype" : [ "" ],
									"patching_rect" : [ 67.0, 338.0, 50.0, 22.0 ],
									"text" : "0 23"
								}

							}
, 							{
								"box" : 								{
									"id" : "obj-25",
									"maxclass" : "message",
									"numinlets" : 2,
									"numoutlets" : 1,
									"outlettype" : [ "" ],
									"patching_rect" : [ 137.0, 267.567627000000016, 63.0, 22.0 ],
									"text" : "prepend 0"
								}

							}
, 							{
								"box" : 								{
									"comment" : "",
									"id" : "obj-58",
									"index" : 1,
									"maxclass" : "inlet",
									"numinlets" : 0,
									"numoutlets" : 1,
									"outlettype" : [ "int" ],
									"patching_rect" : [ 67.0, 40.0, 30.0, 30.0 ]
								}

							}
, 							{
								"box" : 								{
									"comment" : "",
									"id" : "obj-59",
									"index" : 1,
									"maxclass" : "outlet",
									"numinlets" : 1,
									"numoutlets" : 0,
									"patching_rect" : [ 64.0, 771.0, 30.0, 30.0 ]
								}

							}
 ],
						"lines" : [ 							{
								"patchline" : 								{
									"destination" : [ "obj-17", 0 ],
									"source" : [ "obj-10", 0 ]
								}

							}
, 							{
								"patchline" : 								{
									"destination" : [ "obj-16", 0 ],
									"source" : [ "obj-15", 0 ]
								}

							}
, 							{
								"patchline" : 								{
									"destination" : [ "obj-17", 0 ],
									"midpoints" : [ 88.5, 531.0, 73.5, 531.0 ],
									"source" : [ "obj-16", 1 ]
								}

							}
, 							{
								"patchline" : 								{
									"destination" : [ "obj-17", 0 ],
									"midpoints" : [ 73.5, 531.0, 73.5, 531.0 ],
									"source" : [ "obj-16", 0 ]
								}

							}
, 							{
								"patchline" : 								{
									"destination" : [ "obj-49", 0 ],
									"source" : [ "obj-16", 2 ]
								}

							}
, 							{
								"patchline" : 								{
									"destination" : [ "obj-46", 0 ],
									"source" : [ "obj-17", 0 ]
								}

							}
, 							{
								"patchline" : 								{
									"destination" : [ "obj-10", 0 ],
									"source" : [ "obj-18", 1 ]
								}

							}
, 							{
								"patchline" : 								{
									"destination" : [ "obj-30", 0 ],
									"source" : [ "obj-19", 0 ]
								}

							}
, 							{
								"patchline" : 								{
									"destination" : [ "obj-31", 0 ],
									"source" : [ "obj-20", 0 ]
								}

							}
, 							{
								"patchline" : 								{
									"destination" : [ "obj-19", 0 ],
									"source" : [ "obj-21", 0 ]
								}

							}
, 							{
								"patchline" : 								{
									"destination" : [ "obj-15", 0 ],
									"source" : [ "obj-22", 0 ]
								}

							}
, 							{
								"patchline" : 								{
									"destination" : [ "obj-22", 0 ],
									"source" : [ "obj-25", 0 ]
								}

							}
, 							{
								"patchline" : 								{
									"destination" : [ "obj-20", 0 ],
									"source" : [ "obj-27", 2 ]
								}

							}
, 							{
								"patchline" : 								{
									"destination" : [ "obj-21", 0 ],
									"source" : [ "obj-27", 1 ]
								}

							}
, 							{
								"patchline" : 								{
									"destination" : [ "obj-22", 1 ],
									"source" : [ "obj-27", 3 ]
								}

							}
, 							{
								"patchline" : 								{
									"destination" : [ "obj-22", 0 ],
									"source" : [ "obj-27", 0 ]
								}

							}
, 							{
								"patchline" : 								{
									"destination" : [ "obj-22", 0 ],
									"source" : [ "obj-30", 0 ]
								}

							}
, 							{
								"patchline" : 								{
									"destination" : [ "obj-25", 0 ],
									"source" : [ "obj-31", 0 ]
								}

							}
, 							{
								"patchline" : 								{
									"destination" : [ "obj-36", 0 ],
									"source" : [ "obj-34", 0 ]
								}

							}
, 							{
								"patchline" : 								{
									"destination" : [ "obj-37", 0 ],
									"source" : [ "obj-35", 0 ]
								}

							}
, 							{
								"patchline" : 								{
									"destination" : [ "obj-35", 0 ],
									"source" : [ "obj-36", 0 ]
								}

							}
, 							{
								"patchline" : 								{
									"destination" : [ "obj-57", 1 ],
									"source" : [ "obj-37", 0 ]
								}

							}
, 							{
								"patchline" : 								{
									"destination" : [ "obj-47", 0 ],
									"source" : [ "obj-46", 0 ]
								}

							}
, 							{
								"patchline" : 								{
									"destination" : [ "obj-55", 1 ],
									"source" : [ "obj-47", 1 ]
								}

							}
, 							{
								"patchline" : 								{
									"destination" : [ "obj-57", 0 ],
									"source" : [ "obj-47", 0 ]
								}

							}
, 							{
								"patchline" : 								{
									"destination" : [ "obj-18", 0 ],
									"source" : [ "obj-49", 0 ]
								}

							}
, 							{
								"patchline" : 								{
									"destination" : [ "obj-59", 0 ],
									"source" : [ "obj-55", 0 ]
								}

							}
, 							{
								"patchline" : 								{
									"destination" : [ "obj-55", 0 ],
									"source" : [ "obj-57", 0 ]
								}

							}
, 							{
								"patchline" : 								{
									"destination" : [ "obj-27", 0 ],
									"source" : [ "obj-58", 0 ]
								}

							}
 ]
					}
,
					"patching_rect" : [ 323.600000000000023, 320.0, 68.0, 49.0 ],
					"saved_object_attributes" : 					{
						"description" : "",
						"digest" : "",
						"globalpatchername" : "",
						"tags" : ""
					}
,
					"text" : "p select_bass_preset"
				}

			}
, 			{
				"box" : 				{
					"id" : "obj-50",
					"linecount" : 12,
					"maxclass" : "message",
					"numinlets" : 2,
					"numoutlets" : 1,
					"outlettype" : [ "" ],
					"patching_rect" : [ 678.531738000000018, 1086.0, 50.0, 169.0 ],
					"text" : "read \"Macintosh HD:/Users/cella/nnirror/presets/obxdnnirror/presets/obxd002.fxp\""
				}

			}
, 			{
				"box" : 				{
					"id" : "obj-5",
					"linecount" : 2,
					"maxclass" : "message",
					"numinlets" : 2,
					"numoutlets" : 1,
					"outlettype" : [ "" ],
					"patching_rect" : [ 170.800000000000011, 286.0, 66.0, 35.0 ],
					"text" : "VoiceDetune $1"
				}

			}
, 			{
				"box" : 				{
					"id" : "obj-7",
					"maxclass" : "message",
					"numinlets" : 2,
					"numoutlets" : 1,
					"outlettype" : [ "" ],
					"patching_rect" : [ 247.199999999999989, 286.0, 88.0, 22.0 ],
					"text" : "Resonance $1"
				}

			}
, 			{
				"box" : 				{
					"id" : "obj-9",
					"maxclass" : "message",
					"numinlets" : 2,
					"numoutlets" : 1,
					"outlettype" : [ "" ],
					"patching_rect" : [ 94.399999999999977, 286.0, 63.0, 22.0 ],
					"text" : "Cutoff $1"
				}

			}
, 			{
				"box" : 				{
					"id" : "obj-11",
					"maxclass" : "newobj",
					"numinlets" : 2,
					"numoutlets" : 1,
					"outlettype" : [ "int" ],
					"patching_rect" : [ 323.600000000000023, 222.0, 29.5, 22.0 ],
					"text" : "i"
				}

			}
, 			{
				"box" : 				{
					"id" : "obj-2",
					"maxclass" : "newobj",
					"numinlets" : 2,
					"numoutlets" : 1,
					"outlettype" : [ "int" ],
					"patching_rect" : [ 978.600000000000023, 241.194946000000016, 29.5, 22.0 ],
					"text" : "i"
				}

			}
, 			{
				"box" : 				{
					"id" : "obj-14",
					"maxclass" : "newobj",
					"numinlets" : 3,
					"numoutlets" : 1,
					"outlettype" : [ "" ],
					"patching_rect" : [ 1055.031737999999905, 286.0, 67.0, 22.0 ],
					"text" : "clip 0. 0.66"
				}

			}
, 			{
				"box" : 				{
					"id" : "obj-8",
					"maxclass" : "newobj",
					"numinlets" : 3,
					"numoutlets" : 1,
					"outlettype" : [ "" ],
					"patching_rect" : [ 432.531738000000018, 286.0, 67.0, 22.0 ],
					"text" : "clip 0. 0.66"
				}

			}
, 			{
				"box" : 				{
					"id" : "obj-13",
					"maxclass" : "newobj",
					"numinlets" : 1,
					"numoutlets" : 0,
					"patching_rect" : [ 639.531738000000018, 520.0, 80.0, 22.0 ],
					"text" : "send~ synth2"
				}

			}
, 			{
				"box" : 				{
					"id" : "obj-3",
					"maxclass" : "newobj",
					"numinlets" : 1,
					"numoutlets" : 0,
					"patching_rect" : [ 418.531738000000018, 520.0, 80.0, 22.0 ],
					"text" : "send~ synth1"
				}

			}
, 			{
				"box" : 				{
					"id" : "obj-60",
					"maxclass" : "newobj",
					"numinlets" : 7,
					"numoutlets" : 2,
					"outlettype" : [ "int", "" ],
					"patching_rect" : [ 673.0, 286.0, 69.0, 22.0 ],
					"text" : "midiformat"
				}

			}
, 			{
				"box" : 				{
					"id" : "obj-43",
					"maxclass" : "newobj",
					"numinlets" : 1,
					"numoutlets" : 1,
					"outlettype" : [ "signal" ],
					"patching_rect" : [ 652.531738000000018, 393.0, 33.0, 22.0 ],
					"text" : "sig~"
				}

			}
, 			{
				"box" : 				{
					"id" : "obj-42",
					"maxclass" : "newobj",
					"numinlets" : 3,
					"numoutlets" : 1,
					"outlettype" : [ "signal" ],
					"patching_rect" : [ 652.531738000000018, 426.5, 144.0, 22.0 ],
					"text" : "rampsmooth~ 1000 1000"
				}

			}
, 			{
				"box" : 				{
					"id" : "obj-28",
					"maxclass" : "newobj",
					"numinlets" : 6,
					"numoutlets" : 1,
					"outlettype" : [ "" ],
					"patching_rect" : [ 1055.031737999999905, 241.194946000000016, 125.0, 22.0 ],
					"text" : "scale 0 127 0. 2. 1.06"
				}

			}
, 			{
				"box" : 				{
					"id" : "obj-26",
					"maxclass" : "newobj",
					"numinlets" : 2,
					"numoutlets" : 1,
					"outlettype" : [ "signal" ],
					"patching_rect" : [ 639.531738000000018, 478.0, 32.0, 22.0 ],
					"text" : "*~ 1"
				}

			}
, 			{
				"box" : 				{
					"id" : "obj-76",
					"maxclass" : "message",
					"numinlets" : 2,
					"numoutlets" : 1,
					"outlettype" : [ "" ],
					"patching_rect" : [ 825.799999999999955, 286.0, 93.0, 22.0 ],
					"text" : "VoiceDetune $1"
				}

			}
, 			{
				"box" : 				{
					"id" : "obj-74",
					"maxclass" : "message",
					"numinlets" : 2,
					"numoutlets" : 1,
					"outlettype" : [ "" ],
					"patching_rect" : [ 902.200000000000045, 286.0, 88.0, 22.0 ],
					"text" : "Resonance $1"
				}

			}
, 			{
				"box" : 				{
					"id" : "obj-72",
					"maxclass" : "message",
					"numinlets" : 2,
					"numoutlets" : 1,
					"outlettype" : [ "" ],
					"patching_rect" : [ 749.399999999999977, 286.0, 63.0, 22.0 ],
					"text" : "Cutoff $1"
				}

			}
, 			{
				"box" : 				{
					"autosave" : 1,
					"bgmode" : 0,
					"border" : 0,
					"clickthrough" : 0,
					"id" : "obj-12",
					"maxclass" : "newobj",
					"numinlets" : 2,
					"numoutlets" : 8,
					"offset" : [ 0.0, 0.0 ],
					"outlettype" : [ "signal", "signal", "", "list", "int", "", "", "" ],
					"patching_rect" : [ 713.0, 393.0, 92.5, 22.0 ],
					"save" : [ "#N", "vst~", "loaduniqueid", 0, "Obxd", ";" ],
					"saved_attribute_attributes" : 					{
						"valueof" : 						{
							"parameter_invisible" : 1,
							"parameter_longname" : "vst~[3]",
							"parameter_shortname" : "vst~[1]",
							"parameter_type" : 3
						}

					}
,
					"saved_object_attributes" : 					{
						"parameter_enable" : 1,
						"parameter_mappable" : 0
					}
,
					"snapshot" : 					{
						"filetype" : "C74Snapshot",
						"version" : 2,
						"minorversion" : 0,
						"name" : "snapshotlist",
						"origin" : "vst~",
						"type" : "list",
						"subtype" : "Undefined",
						"embed" : 1,
						"snapshot" : 						{
							"pluginname" : "Obxd.vstinfo",
							"plugindisplayname" : "OB-Xd",
							"pluginsavedname" : "",
							"pluginsaveduniqueid" : 0,
							"version" : 1,
							"isbank" : 0,
							"isbase64" : 1,
							"blob" : "1291.CMlaKA....fQPMDZ....A7jX3QF.AT.......JjdBUDSeUCcnABQo0lay4FHsDC..............PvyVMjLgXLA...ODEFcy8VctQ1bf.SOh.iHfDSOh.iHfHSOhfiK4HCLv.CLwjSM0.yLxLSMk0RLh.xL8HhLtTSYsDiHfPSOhHiK1LSN4jSN1fyM1bSL1XSLk0RLh.RM8HRLtfCNv.CLvHyLyXSMvHCL3TVKwHBH1ziHvHBH2ziHvHBH3ziHwHBH4ziHy3BNz.CLv.yLyDCMvDCNxTSYsDiHfDCL8HBLh.RLwziH13RM1.CLv.SL3DSL4fSLxTVKwHBHwHSOhDiHfDyL8HBLh.RLzziHvHBHwTSOhPiKv.CLv.CLvTSN1.CM1PSMk0RLh.RL1ziH33BN3.CLv.SLwPCMz.SNwfSYsDiHfDyM8HhLtLiMv.CLvDiMyLSL1biL2TVKwHBHwfSOhDiHfDSN8HBLh.hLvziHvHBHxDSOhPiKyjSN4jSNxLSLw.CLvfiLk0hLh.hLxziHvHBHxLSOh.iHfHCM8HRLh.hL0ziHvHBHxXSOh.iHfHyM8HBLh.hL3ziHvHBHxjSOhLiK4TSN4jSN4bCN0PiLyHCNk0RLh.xLvziH13xL1.CLv.yL2DSNyHSN3LSYsDiHfLSL8HBMtbiMv.CLvPCL2XSN0byMk0RLh.xLxziHvHBHyLSOh.iHfLCM8HBLh.xL0ziHvHBHyXSOh.iHfLyM8HRLh.xL3ziHvHBHyjSOh.iHfPCL8HRNtbSM4jSN4TSLyXiL1.SN4TVKwHBHzDSOhTiK1.CLv.CLvHyL3PSL3TCNk0RLh.BMxziHvHBHzLSOhDiHfPCM8HhLtPCNv.CLvTSM0TSL0HCN4TVKwHBHzTSOh.iHfPiM8HxMtjSN4jSN4fiLwDCN1.iM1TVKxHBHzbSOhDiHfPCN8HBLh.BM4ziHvHBH0.SOhbiKyXCLv.CLvDCMy.SMwDSMk0RLh.RMwziHvHBH0HSOhfiK1.CLv.CLwPyLvTSLwPyMk0RLh.RMyziHvHBH0PSOhbiK1LSN4jSN4fSM1jCM3fSMk0RLh.RM0ziHvHBH0XSOhXiKyTSN4jSN2bSM3fiM0LiMk0RLh.RM2ziHvHBH0fSOhXiK4DSN4jSN2DCN1XiMvbyMk0RLh.RM4ziHw3BMv.CLv.CLvTSN1.CM1PSYsDiHfXCL8HRLtPCLv.CLvDSMzjyMx.yM1TVKwHBH1DSOh.iHfXiL8HBMtHCMv.CLvHCM2jSM0LiLxTVKwHBH1LSOhPiK4jSN4jSNz.yL4TyL0TiLk0RLh.hMzziH13BL2jSN4jCNvPCM4XyM1TSYsDiHfXSM8HBMtHCNv.CLvLiL4.SL2XyL4TVKwHBH1XSOhTiKx.CLv.CLz.SMyDSL0fCMk0RLh.hM2ziH03BNv.CLv.CMxjSL0LCMzHSYsDiHfXCN8HBMtXCNv.CLvHCM0TyMwDyL1TVKwHBH1jSOhTiK3.CLv.CLzHSNwTyLzPiLk0RLh.xMvziHvHBH2DSOhDiHfbiL8HBLh.xMyziHvHBH2PSOh.iHfbSM8HBLh.xM1ziHvHBH2bSOh.iHfbCN8HxLt.CLv.CLvDSL4HCL4HSNk0RLh.xM4ziHvHBH18VZiU1PuUmaz0iHyHiHf.mbuclbg0lSg0VY8HhP5ITQL8UMzgFHDkVatMmafzRLh7hO.."
						}
,
						"snapshotlist" : 						{
							"current_snapshot" : 0,
							"entries" : [ 								{
									"filetype" : "C74Snapshot",
									"version" : 2,
									"minorversion" : 0,
									"name" : "OB-Xd",
									"origin" : "Obxd.vstinfo",
									"type" : "VST",
									"subtype" : "Instrument",
									"embed" : 0,
									"snapshot" : 									{
										"pluginname" : "Obxd.vstinfo",
										"plugindisplayname" : "OB-Xd",
										"pluginsavedname" : "",
										"pluginsaveduniqueid" : 0,
										"version" : 1,
										"isbank" : 0,
										"isbase64" : 1,
										"blob" : "1291.CMlaKA....fQPMDZ....A7jX3QF.AT.......JjdBUDSeUCcnABQo0lay4FHsDC..............PvyVMjLgXLA...ODEFcy8VctQ1bf.SOh.iHfDSOh.iHfHSOhfiK4HCLv.CLwjSM0.yLxLSMk0RLh.xL8HhLtTSYsDiHfPSOhHiK1LSN4jSN1fyM1bSL1XSLk0RLh.RM8HRLtfCNv.CLvHyLyXSMvHCL3TVKwHBH1ziHvHBH2ziHvHBH3ziHwHBH4ziHy3BNz.CLv.yLyDCMvDCNxTSYsDiHfDCL8HBLh.RLwziH13RM1.CLv.SL3DSL4fSLxTVKwHBHwHSOhDiHfDyL8HBLh.RLzziHvHBHwTSOhPiKv.CLv.CLvTSN1.CM1PSMk0RLh.RL1ziH33BN3.CLv.SLwPCMz.SNwfSYsDiHfDyM8HhLtLiMv.CLvDiMyLSL1biL2TVKwHBHwfSOhDiHfDSN8HBLh.hLvziHvHBHxDSOhPiKyjSN4jSNxLSLw.CLvfiLk0hLh.hLxziHvHBHxLSOh.iHfHCM8HRLh.hL0ziHvHBHxXSOh.iHfHyM8HBLh.hL3ziHvHBHxjSOhLiK4TSN4jSN4bCN0PiLyHCNk0RLh.xLvziH13xL1.CLv.yL2DSNyHSN3LSYsDiHfLSL8HBMtbiMv.CLvPCL2XSN0byMk0RLh.xLxziHvHBHyLSOh.iHfLCM8HBLh.xL0ziHvHBHyXSOh.iHfLyM8HRLh.xL3ziHvHBHyjSOh.iHfPCL8HRNtbSM4jSN4TSLyXiL1.SN4TVKwHBHzDSOhTiK1.CLv.CLvHyL3PSL3TCNk0RLh.BMxziHvHBHzLSOhDiHfPCM8HhLtPCNv.CLvTSM0TSL0HCN4TVKwHBHzTSOh.iHfPiM8HxMtjSN4jSN4fiLwDCN1.iM1TVKxHBHzbSOhDiHfPCN8HBLh.BM4ziHvHBH0.SOhbiKyXCLv.CLvDCMy.SMwDSMk0RLh.RMwziHvHBH0HSOhfiK1.CLv.CLwPyLvTSLwPyMk0RLh.RMyziHvHBH0PSOhbiK1LSN4jSN4fSM1jCM3fSMk0RLh.RM0ziHvHBH0XSOhXiKyTSN4jSN2bSM3fiM0LiMk0RLh.RM2ziHvHBH0fSOhXiK4DSN4jSN2DCN1XiMvbyMk0RLh.RM4ziHw3BMv.CLv.CLvTSN1.CM1PSYsDiHfXCL8HRLtPCLv.CLvDSMzjyMx.yM1TVKwHBH1DSOh.iHfXiL8HBMtHCMv.CLvHCM2jSM0LiLxTVKwHBH1LSOhPiK4jSN4jSNz.yL4TyL0TiLk0RLh.hMzziH13BL2jSN4jCNvPCM4XyM1TSYsDiHfXSM8HBMtHCNv.CLvLiL4.SL2XyL4TVKwHBH1XSOhTiKx.CLv.CLz.SMyDSL0fCMk0RLh.hM2ziH03BNv.CLv.CMxjSL0LCMzHSYsDiHfXCN8HBMtXCNv.CLvHCM0TyMwDyL1TVKwHBH1jSOhTiK3.CLv.CLzHSNwTyLzPiLk0RLh.xMvziHvHBH2DSOhDiHfbiL8HBLh.xMyziHvHBH2PSOh.iHfbSM8HBLh.xM1ziHvHBH2bSOh.iHfbCN8HxLt.CLv.CLvDSL4HCL4HSNk0RLh.xM4ziHvHBH18VZiU1PuUmaz0iHyHiHf.mbuclbg0lSg0VY8HhP5ITQL8UMzgFHDkVatMmafzRLh7hO.."
									}
,
									"fileref" : 									{
										"name" : "OB-Xd",
										"filename" : "OB-Xd.maxsnap",
										"filepath" : "~/Documents/Max 8/Snapshots",
										"filepos" : -1,
										"snapshotfileid" : "bfd0f8807e7ccc34ac416de33cd73d33"
									}

								}
 ]
						}

					}
,
					"text" : "vst~ Obxd",
					"varname" : "vst~[1]",
					"viewvisibility" : 0
				}

			}
, 			{
				"box" : 				{
					"id" : "obj-62",
					"maxclass" : "newobj",
					"numinlets" : 7,
					"numoutlets" : 2,
					"outlettype" : [ "int", "" ],
					"patching_rect" : [ 343.031738000000018, 286.0, 82.0, 22.0 ],
					"text" : "midiformat"
				}

			}
, 			{
				"box" : 				{
					"id" : "obj-41",
					"maxclass" : "newobj",
					"numinlets" : 1,
					"numoutlets" : 1,
					"outlettype" : [ "signal" ],
					"patching_rect" : [ 431.531738000000018, 393.0, 33.0, 22.0 ],
					"text" : "sig~"
				}

			}
, 			{
				"box" : 				{
					"id" : "obj-40",
					"maxclass" : "newobj",
					"numinlets" : 3,
					"numoutlets" : 1,
					"outlettype" : [ "signal" ],
					"patching_rect" : [ 431.531738000000018, 426.5, 144.0, 22.0 ],
					"text" : "rampsmooth~ 1000 1000"
				}

			}
, 			{
				"box" : 				{
					"id" : "obj-24",
					"maxclass" : "newobj",
					"numinlets" : 2,
					"numoutlets" : 1,
					"outlettype" : [ "signal" ],
					"patching_rect" : [ 418.531738000000018, 478.0, 32.0, 22.0 ],
					"text" : "*~ 1"
				}

			}
, 			{
				"box" : 				{
					"id" : "obj-23",
					"maxclass" : "newobj",
					"numinlets" : 6,
					"numoutlets" : 1,
					"outlettype" : [ "" ],
					"patching_rect" : [ 432.531738000000018, 241.194946000000016, 125.0, 22.0 ],
					"text" : "scale 0 127 0. 2. 1.06"
				}

			}
, 			{
				"box" : 				{
					"autosave" : 1,
					"bgmode" : 0,
					"border" : 0,
					"clickthrough" : 0,
					"id" : "obj-6",
					"maxclass" : "newobj",
					"numinlets" : 2,
					"numoutlets" : 8,
					"offset" : [ 0.0, 0.0 ],
					"outlettype" : [ "signal", "signal", "", "list", "int", "", "", "" ],
					"patching_rect" : [ 323.600000000000023, 393.0, 92.5, 22.0 ],
					"save" : [ "#N", "vst~", "loaduniqueid", 0, "Obxd", ";" ],
					"saved_attribute_attributes" : 					{
						"valueof" : 						{
							"parameter_invisible" : 1,
							"parameter_longname" : "vst~[4]",
							"parameter_shortname" : "vst~",
							"parameter_type" : 3
						}

					}
,
					"saved_object_attributes" : 					{
						"parameter_enable" : 1,
						"parameter_mappable" : 0
					}
,
					"snapshot" : 					{
						"filetype" : "C74Snapshot",
						"version" : 2,
						"minorversion" : 0,
						"name" : "snapshotlist",
						"origin" : "vst~",
						"type" : "list",
						"subtype" : "Undefined",
						"embed" : 1,
						"snapshot" : 						{
							"pluginname" : "Obxd.vstinfo",
							"plugindisplayname" : "OB-Xd",
							"pluginsavedname" : "",
							"pluginsaveduniqueid" : 0,
							"version" : 1,
							"isbank" : 0,
							"isbase64" : 1,
							"blob" : "1270.CMlaKA....fQPMDZ....A7jX3QF.AT.......JjdBM0TeI0a04FYfHTXyMG..................PftVMjLgDKA...ODEFcy8VctQ1bf.SOh.iHfDSOh.iHfHSOhLiK3PCLv.CLyLSLz.SL3HSMk0RLh.xL8HhLtTSYsDiHfPSOhTiKwHCLv.CLxPyLwfiM4TSLk0RLh.RM8HRMk0RLh.hM8HBLh.xM8HBLh.BN8HRLh.RN8HBMt.CNv.CLvHiLwbiL4HyM4TVKwHBHw.SOhfiK2DSN4jSN2jCLwjSL1TSYsDiHfDSL8HBNtLiLv.CLvDyMwXiMwLyM2TVKwHBHwHSOhDiHfDyL8HBLh.RLzziHwHBHwTSOhHiKxLSN4jSN4HCLwHSN2biMk0RLh.RL1ziHvHBHwbSOhPiK3LSN4jSN4byL2byL4TiMk0RLh.RL3ziHvHBHwjSOh.iHfHCL8HBLh.hLwziHvHBHxHSOh.iHfHyL8HBLh.hLzziHvHBHxTSOh.iHfHiM8HBLh.hL2ziHvHBHxfSOh.iHfHSN8HxLtjSN4jSN4jSLvTSNy.yLyTVKxHBHy.SOh.iHfLSL8HBLh.xLxziHvHBHyLSOhDiHfLCM8HRLh.xL0ziHwHBHyXSOhDiHfLyM8HxMtTiLv.CLvjyLzXCLvfyLk0RLh.xL3ziHvHBHyjSOh.iHfPCL8HRLh.BMwziH43RN0jSN4jSNwfSNybiM3LSYsDiHfPiL8HBLh.BMyziHwHBHzPSOhLiKx.CLv.CL0HCM0HCL3bCMk0hLh.BM0ziHvHBHzXSOhDiKvLSN4jSN4PiM4TSL3XiMk0RLh.BM2ziHvHBHzfSOh.iHfPSN8HRLh.RMvziH03hM3.CLv.SL3TSN1XCM4HSYsDiHfTSL8HBLh.RMxziH13BNyjSN4jSM0XSMzDCMzLSYsDiHfTyL8HxMtXyL4jSN4jCN0XSNzfCN0TVKwHBH0PSOhLiK3bSN4jSN3DiMzDyM1jCMk0RLh.RM0ziHvHBH0XSOhLiKyDSN4jSNxbyM0jSL2.SMk0RLh.RM2ziHy3hMyjSN4jSNxXCL4.iLzTVKwHBH0fSOhbiKx.CLv.CLxfiMw.iLxjSMk0RLh.RM4ziH33xM4jSN4jSN0HyLwXiL3PSYsHiHfXCL8HBNtbSN4jSN4jSMxLSL1HCNzTVKxHBH1DSOhjiK1.CLv.CLvfyLzPiM0.yLk0hLh.hMxziHz3hL2jSN4jyMyHSN2DSL4DSYsDiHfXyL8HRMtfyM4jSN4jSN0HyLwXiL3TVKwHBH1PSOhLiK1LSN4jSN4HiMvjCLxPSYsDiHfXSM8HhMtfyL4jSN4TSM1TCMwPCMyTVKwHBH1XSOhHiKyXCLv.CLvDCMy.SMwDSMk0RLh.hM2ziH23BNv.CLv.SNvTSN4.iMvDSYsDiHfXCN8HRLtLSM4jSN4jiLzfSN3DCM3TVKwHBH1jSOhfiKzfCLv.CLzjSM4DCL1PSMk0RLh.xMvziHvHBH2DSOhDiHfbiL8HBLh.xMyziHvHBH2PSOh.iHfbSM8HBLh.xM1ziHvHBH2bSOh.iHfbCN8HxLt.CLv.CLvDSL4HCL4HSNk0RLh.xM4ziHvHBH18VZiU1PuUmaz0iHyHiHf.mbuclbg0lSg0VY8HhP5IzTS8kTuUmajAhPgM2bh7hO.."
						}
,
						"snapshotlist" : 						{
							"current_snapshot" : 0,
							"entries" : [ 								{
									"filetype" : "C74Snapshot",
									"version" : 2,
									"minorversion" : 0,
									"name" : "OB-Xd",
									"origin" : "Obxd.vstinfo",
									"type" : "VST",
									"subtype" : "Instrument",
									"embed" : 0,
									"snapshot" : 									{
										"pluginname" : "Obxd.vstinfo",
										"plugindisplayname" : "OB-Xd",
										"pluginsavedname" : "",
										"pluginsaveduniqueid" : 0,
										"version" : 1,
										"isbank" : 0,
										"isbase64" : 1,
										"blob" : "1270.CMlaKA....fQPMDZ....A7jX3QF.AT.......JjdBM0TeI0a04FYfHTXyMG..................PftVMjLgDKA...ODEFcy8VctQ1bf.SOh.iHfDSOh.iHfHSOhLiK3PCLv.CLyLSLz.SL3HSMk0RLh.xL8HhLtTSYsDiHfPSOhTiKwHCLv.CLxPyLwfiM4TSLk0RLh.RM8HRMk0RLh.hM8HBLh.xM8HBLh.BN8HRLh.RN8HBMt.CNv.CLvHiLwbiL4HyM4TVKwHBHw.SOhfiK2DSN4jSN2jCLwjSL1TSYsDiHfDSL8HBNtLiLv.CLvDyMwXiMwLyM2TVKwHBHwHSOhDiHfDyL8HBLh.RLzziHwHBHwTSOhHiKxLSN4jSN4HCLwHSN2biMk0RLh.RL1ziHvHBHwbSOhPiK3LSN4jSN4byL2byL4TiMk0RLh.RL3ziHvHBHwjSOh.iHfHCL8HBLh.hLwziHvHBHxHSOh.iHfHyL8HBLh.hLzziHvHBHxTSOh.iHfHiM8HBLh.hL2ziHvHBHxfSOh.iHfHSN8HxLtjSN4jSN4jSLvTSNy.yLyTVKxHBHy.SOh.iHfLSL8HBLh.xLxziHvHBHyLSOhDiHfLCM8HRLh.xL0ziHwHBHyXSOhDiHfLyM8HxMtTiLv.CLvjyLzXCLvfyLk0RLh.xL3ziHvHBHyjSOh.iHfPCL8HRLh.BMwziH43RN0jSN4jSNwfSNybiM3LSYsDiHfPiL8HBLh.BMyziHwHBHzPSOhLiKx.CLv.CL0HCM0HCL3bCMk0hLh.BM0ziHvHBHzXSOhDiKvLSN4jSN4PiM4TSL3XiMk0RLh.BM2ziHvHBHzfSOh.iHfPSN8HRLh.RMvziH03hM3.CLv.SL3TSN1XCM4HSYsDiHfTSL8HBLh.RMxziH13BNyjSN4jSM0XSMzDCMzLSYsDiHfTyL8HxMtXyL4jSN4jCN0XSNzfCN0TVKwHBH0PSOhLiK3bSN4jSN3DiMzDyM1jCMk0RLh.RM0ziHvHBH0XSOhLiKyDSN4jSNxbyM0jSL2.SMk0RLh.RM2ziHy3hMyjSN4jSNxXCL4.iLzTVKwHBH0fSOhbiKx.CLv.CLxfiMw.iLxjSMk0RLh.RM4ziH33xM4jSN4jSN0HyLwXiL3PSYsHiHfXCL8HBNtbSN4jSN4jSMxLSL1HCNzTVKxHBH1DSOhjiK1.CLv.CLvfyLzPiM0.yLk0hLh.hMxziHz3hL2jSN4jyMyHSN2DSL4DSYsDiHfXyL8HRMtfyM4jSN4jSN0HyLwXiL3TVKwHBH1PSOhLiK1LSN4jSN4HiMvjCLxPSYsDiHfXSM8HhMtfyL4jSN4TSM1TCMwPCMyTVKwHBH1XSOhHiKyXCLv.CLvDCMy.SMwDSMk0RLh.hM2ziH23BNv.CLv.SNvTSN4.iMvDSYsDiHfXCN8HRLtLSM4jSN4jiLzfSN3DCM3TVKwHBH1jSOhfiKzfCLv.CLzjSM4DCL1PSMk0RLh.xMvziHvHBH2DSOhDiHfbiL8HBLh.xMyziHvHBH2PSOh.iHfbSM8HBLh.xM1ziHvHBH2bSOh.iHfbCN8HxLt.CLv.CLvDSL4HCL4HSNk0RLh.xM4ziHvHBH18VZiU1PuUmaz0iHyHiHf.mbuclbg0lSg0VY8HhP5IzTS8kTuUmajAhPgM2bh7hO.."
									}
,
									"fileref" : 									{
										"name" : "OB-Xd",
										"filename" : "OB-Xd.maxsnap",
										"filepath" : "~/Documents/Max 8/Snapshots",
										"filepos" : -1,
										"snapshotfileid" : "bfd0f8807e7ccc34ac416de33cd73d33"
									}

								}
 ]
						}

					}
,
					"text" : "vst~ Obxd",
					"varname" : "vst~",
					"viewvisibility" : 0
				}

			}
, 			{
				"box" : 				{
					"id" : "obj-4",
					"maxclass" : "newobj",
					"numinlets" : 1,
					"numoutlets" : 4,
					"outlettype" : [ "", "", "", "" ],
					"patching_rect" : [ 443.531738000000018, 23.0, 56.0, 22.0 ],
					"restore" : 					{
						"vst~" : [ 							{
								"filetype" : "C74Snapshot",
								"version" : 2,
								"minorversion" : 0,
								"name" : "OB-Xd",
								"origin" : "Obxd.vstinfo",
								"type" : "VST",
								"subtype" : "Instrument",
								"embed" : 1,
								"snapshot" : 								{
									"pluginname" : "Obxd.vstinfo",
									"plugindisplayname" : "OB-Xd",
									"pluginsavedname" : "",
									"pluginsaveduniqueid" : 0,
									"version" : 1,
									"isbank" : 0,
									"isbase64" : 1,
									"blob" : "1270.CMlaKA....fQPMDZ....A7jX3QF.AT.......JjdBM0TeI0a04FYfHTXyMG..................PftVMjLgDKA...ODEFcy8VctQ1bf.SOh.iHfDSOh.iHfHSOhLiK3PCLv.CLyLSLz.SL3HSMk0RLh.xL8HhLtTSYsDiHfPSOhTiKwHCLv.CLxPyLwfiM4TSLk0RLh.RM8HRMk0RLh.hM8HBLh.xM8HBLh.BN8HRLh.RN8HBMt.CNv.CLvHiLwbiL4HyM4TVKwHBHw.SOhfiK2DSN4jSN2jCLwjSL1TSYsDiHfDSL8HBNtLiLv.CLvDyMwXiMwLyM2TVKwHBHwHSOhDiHfDyL8HBLh.RLzziHwHBHwTSOhHiKxLSN4jSN4HCLwHSN2biMk0RLh.RL1ziHvHBHwbSOhPiK3LSN4jSN4byL2byL4TiMk0RLh.RL3ziHvHBHwjSOh.iHfHCL8HBLh.hLwziHvHBHxHSOh.iHfHyL8HBLh.hLzziHvHBHxTSOh.iHfHiM8HBLh.hL2ziHvHBHxfSOh.iHfHSN8HxLtjSN4jSN4jSLvTSNy.yLyTVKxHBHy.SOh.iHfLSL8HBLh.xLxziHvHBHyLSOhDiHfLCM8HRLh.xL0ziHwHBHyXSOhDiHfLyM8HxMtTiLv.CLvjyLzXCLvfyLk0RLh.xL3ziHvHBHyjSOh.iHfPCL8HRLh.BMwziH43RN0jSN4jSNwfSNybiM3LSYsDiHfPiL8HBLh.BMyziHwHBHzPSOhLiKx.CLv.CL0HCM0HCL3bCMk0hLh.BM0ziHvHBHzXSOhDiKvLSN4jSN4PiM4TSL3XiMk0RLh.BM2ziHvHBHzfSOh.iHfPSN8HRLh.RMvziH03hM3.CLv.SL3TSN1XCM4HSYsDiHfTSL8HBLh.RMxziH13BNyjSN4jSM0XSMzDCMzLSYsDiHfTyL8HxMtXyL4jSN4jCN0XSNzfCN0TVKwHBH0PSOhLiK3bSN4jSN3DiMzDyM1jCMk0RLh.RM0ziHvHBH0XSOhLiKyDSN4jSNxbyM0jSL2.SMk0RLh.RM2ziHy3hMyjSN4jSNxXCL4.iLzTVKwHBH0fSOhbiKx.CLv.CLxfiMw.iLxjSMk0RLh.RM4ziH33xM4jSN4jSN0HyLwXiL3PSYsHiHfXCL8HBNtbSN4jSN4jSMxLSL1HCNzTVKxHBH1DSOhjiK1.CLv.CLvfyLzPiM0.yLk0hLh.hMxziHz3hL2jSN4jyMyHSN2DSL4DSYsDiHfXyL8HRMtfyM4jSN4jSN0HyLwXiL3TVKwHBH1PSOhLiK1LSN4jSN4HiMvjCLxPSYsDiHfXSM8HhMtfyL4jSN4TSM1TCMwPCMyTVKwHBH1XSOhHiKyXCLv.CLvDCMy.SMwDSMk0RLh.hM2ziH23BNv.CLv.SNvTSN4.iMvDSYsDiHfXCN8HRLtLSM4jSN4jiLzfSN3DCM3TVKwHBH1jSOhfiKzfCLv.CLzjSM4DCL1PSMk0RLh.xMvziHvHBH2DSOhDiHfbiL8HBLh.xMyziHvHBH2PSOh.iHfbSM8HBLh.xM1ziHvHBH2bSOh.iHfbCN8HxLt.CLv.CLvDSL4HCL4HSNk0RLh.xM4ziHvHBH18VZiU1PuUmaz0iHyHiHf.mbuclbg0lSg0VY8HhP5IzTS8kTuUmajAhPgM2bh7hO.."
								}

							}
 ],
						"vst~[1]" : [ 							{
								"filetype" : "C74Snapshot",
								"version" : 2,
								"minorversion" : 0,
								"name" : "OB-Xd",
								"origin" : "Obxd.vstinfo",
								"type" : "VST",
								"subtype" : "Instrument",
								"embed" : 1,
								"snapshot" : 								{
									"pluginname" : "Obxd.vstinfo",
									"plugindisplayname" : "OB-Xd",
									"pluginsavedname" : "",
									"pluginsaveduniqueid" : 0,
									"version" : 1,
									"isbank" : 0,
									"isbase64" : 1,
									"blob" : "1291.CMlaKA....fQPMDZ....A7jX3QF.AT.......JjdBUDSeUCcnABQo0lay4FHsDC..............PvyVMjLgXLA...ODEFcy8VctQ1bf.SOh.iHfDSOh.iHfHSOhfiK4HCLv.CLwjSM0.yLxLSMk0RLh.xL8HhLtTSYsDiHfPSOhHiK1LSN4jSN1fyM1bSL1XSLk0RLh.RM8HRLtfCNv.CLvHyLyXSMvHCL3TVKwHBH1ziHvHBH2ziHvHBH3ziHwHBH4ziHy3BNz.CLv.yLyDCMvDCNxTSYsDiHfDCL8HBLh.RLwziH13RM1.CLv.SL3DSL4fSLxTVKwHBHwHSOhDiHfDyL8HBLh.RLzziHvHBHwTSOhPiKv.CLv.CLvTSN1.CM1PSMk0RLh.RL1ziH33BN3.CLv.SLwPCMz.SNwfSYsDiHfDyM8HhLtLiMv.CLvDiMyLSL1biL2TVKwHBHwfSOhDiHfDSN8HBLh.hLvziHvHBHxDSOhPiKyjSN4jSNxLSLw.CLvfiLk0hLh.hLxziHvHBHxLSOh.iHfHCM8HRLh.hL0ziHvHBHxXSOh.iHfHyM8HBLh.hL3ziHvHBHxjSOhLiK4TSN4jSN4bCN0PiLyHCNk0RLh.xLvziH13xL1.CLv.yL2DSNyHSN3LSYsDiHfLSL8HBMtbiMv.CLvPCL2XSN0byMk0RLh.xLxziHvHBHyLSOh.iHfLCM8HBLh.xL0ziHvHBHyXSOh.iHfLyM8HRLh.xL3ziHvHBHyjSOh.iHfPCL8HRNtbSM4jSN4TSLyXiL1.SN4TVKwHBHzDSOhTiK1.CLv.CLvHyL3PSL3TCNk0RLh.BMxziHvHBHzLSOhDiHfPCM8HhLtPCNv.CLvTSM0TSL0HCN4TVKwHBHzTSOh.iHfPiM8HxMtjSN4jSN4fiLwDCN1.iM1TVKxHBHzbSOhDiHfPCN8HBLh.BM4ziHvHBH0.SOhbiKyXCLv.CLvDCMy.SMwDSMk0RLh.RMwziHvHBH0HSOhfiK1.CLv.CLwPyLvTSLwPyMk0RLh.RMyziHvHBH0PSOhbiK1LSN4jSN4fSM1jCM3fSMk0RLh.RM0ziHvHBH0XSOhXiKyTSN4jSN2bSM3fiM0LiMk0RLh.RM2ziHvHBH0fSOhXiK4DSN4jSN2DCN1XiMvbyMk0RLh.RM4ziHw3BMv.CLv.CLvTSN1.CM1PSYsDiHfXCL8HRLtPCLv.CLvDSMzjyMx.yM1TVKwHBH1DSOh.iHfXiL8HBMtHCMv.CLvHCM2jSM0LiLxTVKwHBH1LSOhPiK4jSN4jSNz.yL4TyL0TiLk0RLh.hMzziH13BL2jSN4jCNvPCM4XyM1TSYsDiHfXSM8HBMtHCNv.CLvLiL4.SL2XyL4TVKwHBH1XSOhTiKx.CLv.CLz.SMyDSL0fCMk0RLh.hM2ziH03BNv.CLv.CMxjSL0LCMzHSYsDiHfXCN8HBMtXCNv.CLvHCM0TyMwDyL1TVKwHBH1jSOhTiK3.CLv.CLzHSNwTyLzPiLk0RLh.xMvziHvHBH2DSOhDiHfbiL8HBLh.xMyziHvHBH2PSOh.iHfbSM8HBLh.xM1ziHvHBH2bSOh.iHfbCN8HxLt.CLv.CLvDSL4HCL4HSNk0RLh.xM4ziHvHBH18VZiU1PuUmaz0iHyHiHf.mbuclbg0lSg0VY8HhP5ITQL8UMzgFHDkVatMmafzRLh7hO.."
								}

							}
 ]
					}
,
					"text" : "autopattr",
					"varname" : "u872027895"
				}

			}
, 			{
				"box" : 				{
					"args" : [ "@min", 60, "@max", 127, "@midi_destination", 2, "@1", "Cutoff", "@2", "Detune", "@3", "Resonance", "@presets", 37 ],
					"bgmode" : 0,
					"border" : 0,
					"clickthrough" : 0,
					"enablehscroll" : 0,
					"enablevscroll" : 0,
					"id" : "obj-148",
					"lockeddragscroll" : 0,
					"maxclass" : "bpatcher",
					"name" : "_midi_seq.maxpat",
					"numinlets" : 0,
					"numoutlets" : 6,
					"offset" : [ 0.0, 0.0 ],
					"outlettype" : [ "", "float", "float", "float", "", "" ],
					"patching_rect" : [ 673.0, 23.0, 401.000000000000057, 187.0 ],
					"presentation" : 1,
					"presentation_rect" : [ 332.161925999999994, -0.333341, 325.777770999999973, 180.428513000000009 ],
					"varname" : "_midi_seq2",
					"viewvisibility" : 1
				}

			}
, 			{
				"box" : 				{
					"args" : [ "@min", 36, "@max", 95, "@midi_destination", 1, "@1", "Cutoff", "@2", "Detune", "@3", "Resonance", "@presets", 45 ],
					"bgmode" : 0,
					"border" : 0,
					"clickthrough" : 0,
					"enablehscroll" : 0,
					"enablevscroll" : 0,
					"id" : "obj-1",
					"lockeddragscroll" : 0,
					"maxclass" : "bpatcher",
					"name" : "_midi_seq.maxpat",
					"numinlets" : 0,
					"numoutlets" : 6,
					"offset" : [ 0.0, 0.0 ],
					"outlettype" : [ "", "float", "float", "float", "", "" ],
					"patching_rect" : [ 18.0, 23.0, 401.0, 187.0 ],
					"presentation" : 1,
					"presentation_rect" : [ -1.0, -0.333341, 325.777770999999973, 180.428513000000009 ],
					"varname" : "_midi_seq",
					"viewvisibility" : 1
				}

			}
 ],
		"lines" : [ 			{
				"patchline" : 				{
					"destination" : [ "obj-11", 0 ],
					"source" : [ "obj-1", 4 ]
				}

			}
, 			{
				"patchline" : 				{
					"destination" : [ "obj-23", 0 ],
					"midpoints" : [ 409.5, 226.0, 442.031738000000018, 226.0 ],
					"source" : [ "obj-1", 5 ]
				}

			}
, 			{
				"patchline" : 				{
					"destination" : [ "obj-5", 0 ],
					"source" : [ "obj-1", 2 ]
				}

			}
, 			{
				"patchline" : 				{
					"destination" : [ "obj-62", 0 ],
					"midpoints" : [ 27.5, 251.0, 352.531738000000018, 251.0 ],
					"source" : [ "obj-1", 0 ]
				}

			}
, 			{
				"patchline" : 				{
					"destination" : [ "obj-7", 0 ],
					"source" : [ "obj-1", 3 ]
				}

			}
, 			{
				"patchline" : 				{
					"destination" : [ "obj-9", 0 ],
					"source" : [ "obj-1", 1 ]
				}

			}
, 			{
				"patchline" : 				{
					"destination" : [ "obj-61", 0 ],
					"source" : [ "obj-11", 0 ]
				}

			}
, 			{
				"patchline" : 				{
					"destination" : [ "obj-26", 0 ],
					"midpoints" : [ 722.5, 420.522167384624481, 649.031738000000018, 420.522167384624481 ],
					"source" : [ "obj-12", 0 ]
				}

			}
, 			{
				"patchline" : 				{
					"destination" : [ "obj-43", 0 ],
					"midpoints" : [ 1064.531737999999905, 376.0, 662.031738000000018, 376.0 ],
					"source" : [ "obj-14", 0 ]
				}

			}
, 			{
				"patchline" : 				{
					"destination" : [ "obj-2", 0 ],
					"source" : [ "obj-148", 4 ]
				}

			}
, 			{
				"patchline" : 				{
					"destination" : [ "obj-28", 0 ],
					"source" : [ "obj-148", 5 ]
				}

			}
, 			{
				"patchline" : 				{
					"destination" : [ "obj-60", 0 ],
					"source" : [ "obj-148", 0 ]
				}

			}
, 			{
				"patchline" : 				{
					"destination" : [ "obj-72", 0 ],
					"source" : [ "obj-148", 1 ]
				}

			}
, 			{
				"patchline" : 				{
					"destination" : [ "obj-74", 0 ],
					"source" : [ "obj-148", 3 ]
				}

			}
, 			{
				"patchline" : 				{
					"destination" : [ "obj-76", 0 ],
					"source" : [ "obj-148", 2 ]
				}

			}
, 			{
				"patchline" : 				{
					"destination" : [ "obj-66", 0 ],
					"source" : [ "obj-2", 0 ]
				}

			}
, 			{
				"patchline" : 				{
					"destination" : [ "obj-8", 0 ],
					"source" : [ "obj-23", 0 ]
				}

			}
, 			{
				"patchline" : 				{
					"destination" : [ "obj-3", 0 ],
					"source" : [ "obj-24", 0 ]
				}

			}
, 			{
				"patchline" : 				{
					"destination" : [ "obj-13", 0 ],
					"source" : [ "obj-26", 0 ]
				}

			}
, 			{
				"patchline" : 				{
					"destination" : [ "obj-14", 0 ],
					"source" : [ "obj-28", 0 ]
				}

			}
, 			{
				"patchline" : 				{
					"destination" : [ "obj-24", 1 ],
					"source" : [ "obj-40", 0 ]
				}

			}
, 			{
				"patchline" : 				{
					"destination" : [ "obj-40", 0 ],
					"source" : [ "obj-41", 0 ]
				}

			}
, 			{
				"patchline" : 				{
					"destination" : [ "obj-26", 1 ],
					"source" : [ "obj-42", 0 ]
				}

			}
, 			{
				"patchline" : 				{
					"destination" : [ "obj-42", 0 ],
					"source" : [ "obj-43", 0 ]
				}

			}
, 			{
				"patchline" : 				{
					"destination" : [ "obj-6", 0 ],
					"midpoints" : [ 180.300000000000011, 384.0, 333.100000000000023, 384.0 ],
					"source" : [ "obj-5", 0 ]
				}

			}
, 			{
				"patchline" : 				{
					"destination" : [ "obj-24", 0 ],
					"midpoints" : [ 333.100000000000023, 450.0, 428.031738000000018, 450.0 ],
					"source" : [ "obj-6", 0 ]
				}

			}
, 			{
				"patchline" : 				{
					"destination" : [ "obj-12", 0 ],
					"midpoints" : [ 732.5, 386.0, 722.5, 386.0 ],
					"source" : [ "obj-60", 1 ]
				}

			}
, 			{
				"patchline" : 				{
					"destination" : [ "obj-6", 0 ],
					"source" : [ "obj-61", 0 ]
				}

			}
, 			{
				"patchline" : 				{
					"destination" : [ "obj-6", 0 ],
					"midpoints" : [ 415.531738000000018, 382.0, 333.100000000000023, 382.0 ],
					"source" : [ "obj-62", 1 ]
				}

			}
, 			{
				"patchline" : 				{
					"destination" : [ "obj-12", 0 ],
					"midpoints" : [ 988.100000000000023, 384.0, 722.5, 384.0 ],
					"source" : [ "obj-66", 0 ]
				}

			}
, 			{
				"patchline" : 				{
					"destination" : [ "obj-6", 0 ],
					"midpoints" : [ 256.699999999999989, 384.0, 333.100000000000023, 384.0 ],
					"source" : [ "obj-7", 0 ]
				}

			}
, 			{
				"patchline" : 				{
					"destination" : [ "obj-12", 0 ],
					"midpoints" : [ 758.899999999999977, 328.0, 722.5, 328.0 ],
					"source" : [ "obj-72", 0 ]
				}

			}
, 			{
				"patchline" : 				{
					"destination" : [ "obj-12", 0 ],
					"midpoints" : [ 911.700000000000045, 328.0, 722.5, 328.0 ],
					"source" : [ "obj-74", 0 ]
				}

			}
, 			{
				"patchline" : 				{
					"destination" : [ "obj-12", 0 ],
					"midpoints" : [ 835.299999999999955, 327.0, 722.5, 327.0 ],
					"source" : [ "obj-76", 0 ]
				}

			}
, 			{
				"patchline" : 				{
					"destination" : [ "obj-41", 0 ],
					"source" : [ "obj-8", 0 ]
				}

			}
, 			{
				"patchline" : 				{
					"destination" : [ "obj-6", 0 ],
					"midpoints" : [ 103.899999999999977, 383.0, 333.100000000000023, 383.0 ],
					"source" : [ "obj-9", 0 ]
				}

			}
 ],
		"styles" : [ 			{
				"name" : "AudioStatus_Menu",
				"default" : 				{
					"bgfillcolor" : 					{
						"type" : "color",
						"color" : [ 0.294118, 0.313726, 0.337255, 1 ],
						"color1" : [ 0.454902, 0.462745, 0.482353, 0.0 ],
						"color2" : [ 0.290196, 0.309804, 0.301961, 1.0 ],
						"angle" : 270.0,
						"proportion" : 0.39,
						"autogradient" : 0
					}

				}
,
				"parentstyle" : "",
				"multi" : 0
			}
, 			{
				"name" : "buttonGreen-1",
				"default" : 				{
					"bgcolor" : [ 0.043137, 0.364706, 0.094118, 1.0 ]
				}
,
				"parentstyle" : "",
				"multi" : 0
			}
, 			{
				"name" : "dUG Yello 01-1",
				"newobj" : 				{
					"bgcolor" : [ 1.0, 0.941176, 0.803922, 1.0 ],
					"fontsize" : [ 10.0 ],
					"textcolor_inverse" : [ 0.0, 0.0, 0.0, 1.0 ],
					"fontface" : [ 1 ]
				}
,
				"default" : 				{
					"bgcolor" : [ 1.0, 0.941176, 0.803922, 1.0 ],
					"fontsize" : [ 10.0 ],
					"textcolor_inverse" : [ 0.0, 0.0, 0.0, 1.0 ],
					"bgfillcolor" : 					{
						"type" : "gradient",
						"color" : [ 0.290196, 0.309804, 0.301961, 1.0 ],
						"color1" : [ 0.94902, 0.992157, 1.0, 1.0 ],
						"color2" : [ 0.862745, 0.870588, 0.878431, 1.0 ],
						"angle" : 270.0,
						"proportion" : 0.39,
						"autogradient" : 0
					}
,
					"fontface" : [ 1 ]
				}
,
				"button" : 				{
					"bgcolor" : [ 1.0, 0.941176, 0.803922, 1.0 ]
				}
,
				"toggle" : 				{
					"bgcolor" : [ 1.0, 0.941176, 0.803922, 1.0 ]
				}
,
				"message" : 				{
					"fontsize" : [ 10.0 ],
					"textcolor_inverse" : [ 0.0, 0.0, 0.0, 1.0 ],
					"bgfillcolor" : 					{
						"type" : "gradient",
						"color" : [ 0.290196, 0.309804, 0.301961, 1.0 ],
						"color1" : [ 0.94902, 0.992157, 1.0, 1.0 ],
						"color2" : [ 0.862745, 0.870588, 0.878431, 1.0 ],
						"angle" : 270.0,
						"proportion" : 0.39,
						"autogradient" : 0
					}
,
					"fontface" : [ 1 ]
				}
,
				"parentstyle" : "",
				"multi" : 0
			}
, 			{
				"name" : "ksliderWhite",
				"default" : 				{
					"color" : [ 1.0, 1.0, 1.0, 1.0 ]
				}
,
				"parentstyle" : "",
				"multi" : 0
			}
, 			{
				"name" : "newobjBlue-1",
				"default" : 				{
					"accentcolor" : [ 0.317647, 0.654902, 0.976471, 1.0 ]
				}
,
				"parentstyle" : "",
				"multi" : 0
			}
, 			{
				"name" : "newobjBrown-1",
				"default" : 				{
					"accentcolor" : [ 0.654902, 0.572549, 0.376471, 1.0 ]
				}
,
				"parentstyle" : "",
				"multi" : 0
			}
, 			{
				"name" : "newobjCyan-1",
				"default" : 				{
					"accentcolor" : [ 0.029546, 0.773327, 0.821113, 1.0 ]
				}
,
				"parentstyle" : "",
				"multi" : 0
			}
, 			{
				"name" : "newobjGreen-1",
				"default" : 				{
					"accentcolor" : [ 0.0, 0.533333, 0.168627, 1.0 ]
				}
,
				"parentstyle" : "",
				"multi" : 0
			}
, 			{
				"name" : "newobjYellow-1",
				"default" : 				{
					"fontsize" : [ 12.059008 ],
					"accentcolor" : [ 0.82517, 0.78181, 0.059545, 1.0 ]
				}
,
				"parentstyle" : "",
				"multi" : 0
			}
, 			{
				"name" : "numberGold-1",
				"default" : 				{
					"accentcolor" : [ 0.764706, 0.592157, 0.101961, 1.0 ]
				}
,
				"parentstyle" : "",
				"multi" : 0
			}
, 			{
				"name" : "rsliderGold",
				"default" : 				{
					"bgcolor" : [ 0.764706, 0.592157, 0.101961, 1.0 ],
					"color" : [ 0.646639, 0.821777, 0.854593, 1.0 ]
				}
,
				"parentstyle" : "",
				"multi" : 0
			}
, 			{
				"name" : "tap",
				"default" : 				{
					"fontname" : [ "Lato Light" ]
				}
,
				"parentstyle" : "",
				"multi" : 0
			}
 ]
	}

}
