{
	"patcher" : 	{
		"fileversion" : 1,
		"appversion" : 		{
			"major" : 8,
			"minor" : 1,
			"revision" : 3,
			"architecture" : "x64",
			"modernui" : 1
		}
,
		"classnamespace" : "box",
		"rect" : [ 34.0, 56.0, 1672.0, 1030.0 ],
		"bglocked" : 0,
		"openinpresentation" : 1,
		"default_fontsize" : 12.0,
		"default_fontface" : 0,
		"default_fontname" : "Arial",
		"gridonopen" : 1,
		"gridsize" : [ 15.0, 15.0 ],
		"gridsnaponopen" : 1,
		"objectsnaponopen" : 1,
		"statusbarvisible" : 2,
		"toolbarvisible" : 1,
		"lefttoolbarpinned" : 0,
		"toptoolbarpinned" : 0,
		"righttoolbarpinned" : 0,
		"bottomtoolbarpinned" : 0,
		"toolbars_unpinned_last_save" : 0,
		"tallnewobj" : 0,
		"boxanimatetime" : 200,
		"enablehscroll" : 1,
		"enablevscroll" : 1,
		"devicewidth" : 0.0,
		"description" : "",
		"digest" : "",
		"tags" : "",
		"style" : "",
		"subpatcher_template" : "",
		"boxes" : [ 			{
				"box" : 				{
					"id" : "obj-20",
					"maxclass" : "newobj",
					"numinlets" : 2,
					"numoutlets" : 1,
					"outlettype" : [ "signal" ],
					"patching_rect" : [ 1043.0, 428.441845536231995, 34.0, 22.0 ],
					"text" : "*~ 3."
				}

			}
, 			{
				"box" : 				{
					"id" : "obj-21",
					"linecount" : 5,
					"maxclass" : "newobj",
					"numinlets" : 2,
					"numoutlets" : 4,
					"outlettype" : [ "signal", "signal", "list", "list" ],
					"patching_rect" : [ 1042.0, 474.033811867237091, 66.0, 76.0 ],
					"text" : "omx.peaklim~ @threshold -1 @mode 0"
				}

			}
, 			{
				"box" : 				{
					"id" : "obj-19",
					"maxclass" : "newobj",
					"numinlets" : 2,
					"numoutlets" : 1,
					"outlettype" : [ "signal" ],
					"patching_rect" : [ 387.0, 425.0, 34.0, 22.0 ],
					"text" : "*~ 6."
				}

			}
, 			{
				"box" : 				{
					"id" : "obj-132",
					"linecount" : 3,
					"maxclass" : "newobj",
					"numinlets" : 2,
					"numoutlets" : 4,
					"outlettype" : [ "signal", "signal", "list", "list" ],
					"patching_rect" : [ 386.0, 470.591966331005096, 101.0, 49.0 ],
					"text" : "omx.peaklim~ @threshold -1 @mode 0"
				}

			}
, 			{
				"box" : 				{
					"id" : "obj-10",
					"maxclass" : "newobj",
					"numinlets" : 3,
					"numoutlets" : 1,
					"outlettype" : [ "signal" ],
					"patching_rect" : [ 1042.0, 569.488355875015259, 64.0, 22.0 ],
					"text" : "clip~ -1. 1."
				}

			}
, 			{
				"box" : 				{
					"id" : "obj-9",
					"maxclass" : "newobj",
					"numinlets" : 3,
					"numoutlets" : 1,
					"outlettype" : [ "signal" ],
					"patching_rect" : [ 386.0, 569.488355875015259, 64.0, 22.0 ],
					"text" : "clip~ -1. 1."
				}

			}
, 			{
				"box" : 				{
					"id" : "obj-66",
					"linecount" : 3,
					"maxclass" : "newobj",
					"numinlets" : 1,
					"numoutlets" : 1,
					"outlettype" : [ "" ],
					"patcher" : 					{
						"fileversion" : 1,
						"appversion" : 						{
							"major" : 8,
							"minor" : 1,
							"revision" : 3,
							"architecture" : "x64",
							"modernui" : 1
						}
,
						"classnamespace" : "box",
						"rect" : [ 59.0, 81.0, 640.0, 480.0 ],
						"bglocked" : 0,
						"openinpresentation" : 0,
						"default_fontsize" : 12.0,
						"default_fontface" : 0,
						"default_fontname" : "Arial",
						"gridonopen" : 1,
						"gridsize" : [ 15.0, 15.0 ],
						"gridsnaponopen" : 1,
						"objectsnaponopen" : 1,
						"statusbarvisible" : 2,
						"toolbarvisible" : 1,
						"lefttoolbarpinned" : 0,
						"toptoolbarpinned" : 0,
						"righttoolbarpinned" : 0,
						"bottomtoolbarpinned" : 0,
						"toolbars_unpinned_last_save" : 0,
						"tallnewobj" : 0,
						"boxanimatetime" : 200,
						"enablehscroll" : 1,
						"enablevscroll" : 1,
						"devicewidth" : 0.0,
						"description" : "",
						"digest" : "",
						"tags" : "",
						"style" : "",
						"subpatcher_template" : "",
						"boxes" : [ 							{
								"box" : 								{
									"id" : "obj-57",
									"maxclass" : "newobj",
									"numinlets" : 2,
									"numoutlets" : 1,
									"outlettype" : [ "" ],
									"patcher" : 									{
										"fileversion" : 1,
										"appversion" : 										{
											"major" : 8,
											"minor" : 1,
											"revision" : 3,
											"architecture" : "x64",
											"modernui" : 1
										}
,
										"classnamespace" : "box",
										"rect" : [ 0.0, 0.0, 640.0, 480.0 ],
										"bglocked" : 0,
										"openinpresentation" : 0,
										"default_fontsize" : 12.0,
										"default_fontface" : 0,
										"default_fontname" : "Arial",
										"gridonopen" : 1,
										"gridsize" : [ 15.0, 15.0 ],
										"gridsnaponopen" : 1,
										"objectsnaponopen" : 1,
										"statusbarvisible" : 2,
										"toolbarvisible" : 1,
										"lefttoolbarpinned" : 0,
										"toptoolbarpinned" : 0,
										"righttoolbarpinned" : 0,
										"bottomtoolbarpinned" : 0,
										"toolbars_unpinned_last_save" : 0,
										"tallnewobj" : 0,
										"boxanimatetime" : 200,
										"enablehscroll" : 1,
										"enablevscroll" : 1,
										"devicewidth" : 0.0,
										"description" : "",
										"digest" : "",
										"tags" : "",
										"style" : "",
										"subpatcher_template" : "",
										"boxes" : [ 											{
												"box" : 												{
													"id" : "obj-45",
													"linecount" : 5,
													"maxclass" : "message",
													"numinlets" : 2,
													"numoutlets" : 1,
													"outlettype" : [ "" ],
													"patching_rect" : [ 50.0, 100.0, 50.0, 102.0 ],
													"text" : "\"Macintosh HD:/Users/cella/\""
												}

											}
, 											{
												"box" : 												{
													"comment" : "",
													"id" : "obj-53",
													"index" : 1,
													"maxclass" : "inlet",
													"numinlets" : 0,
													"numoutlets" : 1,
													"outlettype" : [ "bang" ],
													"patching_rect" : [ 50.0, 40.0, 30.0, 30.0 ]
												}

											}
, 											{
												"box" : 												{
													"comment" : "",
													"id" : "obj-54",
													"index" : 2,
													"maxclass" : "inlet",
													"numinlets" : 0,
													"numoutlets" : 1,
													"outlettype" : [ "" ],
													"patching_rect" : [ 81.0, 40.0, 30.0, 30.0 ]
												}

											}
, 											{
												"box" : 												{
													"comment" : "",
													"id" : "obj-56",
													"index" : 1,
													"maxclass" : "outlet",
													"numinlets" : 1,
													"numoutlets" : 0,
													"patching_rect" : [ 50.0, 262.0, 30.0, 30.0 ]
												}

											}
 ],
										"lines" : [ 											{
												"patchline" : 												{
													"destination" : [ "obj-56", 0 ],
													"source" : [ "obj-45", 0 ]
												}

											}
, 											{
												"patchline" : 												{
													"destination" : [ "obj-45", 0 ],
													"source" : [ "obj-53", 0 ]
												}

											}
, 											{
												"patchline" : 												{
													"destination" : [ "obj-45", 1 ],
													"source" : [ "obj-54", 0 ]
												}

											}
 ]
									}
,
									"patching_rect" : [ 64.0, 654.0, 29.5, 22.0 ],
									"saved_object_attributes" : 									{
										"description" : "",
										"digest" : "",
										"globalpatchername" : "",
										"tags" : ""
									}
,
									"text" : "p"
								}

							}
, 							{
								"box" : 								{
									"id" : "obj-47",
									"maxclass" : "newobj",
									"numinlets" : 1,
									"numoutlets" : 2,
									"outlettype" : [ "bang", "" ],
									"patching_rect" : [ 64.0, 608.0, 31.0, 22.0 ],
									"text" : "t b s"
								}

							}
, 							{
								"box" : 								{
									"id" : "obj-34",
									"maxclass" : "newobj",
									"numinlets" : 1,
									"numoutlets" : 1,
									"outlettype" : [ "bang" ],
									"patching_rect" : [ 245.5, 473.64312744140625, 58.0, 22.0 ],
									"text" : "loadbang"
								}

							}
, 							{
								"box" : 								{
									"id" : "obj-35",
									"maxclass" : "newobj",
									"numinlets" : 1,
									"numoutlets" : 1,
									"outlettype" : [ "" ],
									"patching_rect" : [ 245.5, 539.0, 57.0, 22.0 ],
									"text" : "tosymbol"
								}

							}
, 							{
								"box" : 								{
									"id" : "obj-36",
									"maxclass" : "newobj",
									"numinlets" : 1,
									"numoutlets" : 1,
									"outlettype" : [ "" ],
									"patching_rect" : [ 245.5, 506.64312744140625, 67.0, 22.0 ],
									"text" : "12c_config"
								}

							}
, 							{
								"box" : 								{
									"id" : "obj-37",
									"maxclass" : "newobj",
									"numinlets" : 1,
									"numoutlets" : 1,
									"outlettype" : [ "" ],
									"patching_rect" : [ 245.5, 569.70001220703125, 69.0, 22.0 ],
									"text" : "sprintf %s\\\""
								}

							}
, 							{
								"box" : 								{
									"id" : "obj-55",
									"maxclass" : "newobj",
									"numinlets" : 2,
									"numoutlets" : 1,
									"outlettype" : [ "" ],
									"patching_rect" : [ 64.0, 689.0, 282.0, 22.0 ],
									"text" : "sprintf read \\\"%snnirror/presets/obxd/leads/%s.fxp\\\""
								}

							}
, 							{
								"box" : 								{
									"fontname" : "Arial",
									"fontsize" : 12.0,
									"id" : "obj-10",
									"maxclass" : "newobj",
									"numinlets" : 1,
									"numoutlets" : 1,
									"outlettype" : [ "" ],
									"patching_rect" : [ 94.0, 519.0, 98.0, 22.0 ],
									"text" : "prepend append"
								}

							}
, 							{
								"box" : 								{
									"fontname" : "Arial",
									"fontsize" : 12.0,
									"id" : "obj-18",
									"maxclass" : "newobj",
									"numinlets" : 2,
									"numoutlets" : 2,
									"outlettype" : [ "bang", "" ],
									"patching_rect" : [ 94.0, 489.0, 59.0, 22.0 ],
									"text" : "select 32"
								}

							}
, 							{
								"box" : 								{
									"fontname" : "Arial",
									"fontsize" : 12.0,
									"id" : "obj-46",
									"maxclass" : "newobj",
									"numinlets" : 3,
									"numoutlets" : 1,
									"outlettype" : [ "int" ],
									"patching_rect" : [ 64.0, 579.0, 46.0, 22.0 ],
									"text" : "itoa"
								}

							}
, 							{
								"box" : 								{
									"fontname" : "Arial",
									"fontsize" : 12.0,
									"id" : "obj-15",
									"maxclass" : "newobj",
									"numinlets" : 3,
									"numoutlets" : 1,
									"outlettype" : [ "list" ],
									"patching_rect" : [ 67.0, 379.0, 46.0, 22.0 ],
									"text" : "atoi"
								}

							}
, 							{
								"box" : 								{
									"fontname" : "Arial",
									"fontsize" : 12.0,
									"id" : "obj-16",
									"maxclass" : "newobj",
									"numinlets" : 1,
									"numoutlets" : 3,
									"outlettype" : [ "set", "bang", "" ],
									"patching_rect" : [ 64.0, 414.0, 49.0, 22.0 ],
									"text" : "t set b l"
								}

							}
, 							{
								"box" : 								{
									"fontname" : "Arial",
									"fontsize" : 12.0,
									"id" : "obj-49",
									"maxclass" : "newobj",
									"numinlets" : 1,
									"numoutlets" : 1,
									"outlettype" : [ "" ],
									"patching_rect" : [ 94.0, 459.0, 27.0, 22.0 ],
									"text" : "iter"
								}

							}
, 							{
								"box" : 								{
									"fontname" : "Arial",
									"fontsize" : 12.0,
									"id" : "obj-17",
									"maxclass" : "message",
									"numinlets" : 2,
									"numoutlets" : 1,
									"outlettype" : [ "" ],
									"patching_rect" : [ 64.0, 549.0, 50.0, 22.0 ]
								}

							}
, 							{
								"box" : 								{
									"id" : "obj-31",
									"maxclass" : "newobj",
									"numinlets" : 2,
									"numoutlets" : 2,
									"outlettype" : [ "bang", "" ],
									"patching_rect" : [ 127.0, 220.0, 34.0, 22.0 ],
									"text" : "sel 1"
								}

							}
, 							{
								"box" : 								{
									"id" : "obj-30",
									"maxclass" : "message",
									"numinlets" : 2,
									"numoutlets" : 1,
									"outlettype" : [ "" ],
									"patching_rect" : [ 50.0, 274.067627000000016, 63.0, 22.0 ],
									"text" : "prepend 0"
								}

							}
, 							{
								"box" : 								{
									"id" : "obj-19",
									"maxclass" : "newobj",
									"numinlets" : 2,
									"numoutlets" : 2,
									"outlettype" : [ "bang", "" ],
									"patching_rect" : [ 60.0, 220.0, 34.0, 22.0 ],
									"text" : "sel 1"
								}

							}
, 							{
								"box" : 								{
									"id" : "obj-27",
									"maxclass" : "newobj",
									"numinlets" : 1,
									"numoutlets" : 4,
									"outlettype" : [ "bang", "int", "int", "int" ],
									"patching_rect" : [ 67.0, 100.0, 50.5, 22.0 ],
									"text" : "t b i i i"
								}

							}
, 							{
								"box" : 								{
									"id" : "obj-20",
									"maxclass" : "newobj",
									"numinlets" : 2,
									"numoutlets" : 1,
									"outlettype" : [ "int" ],
									"patching_rect" : [ 127.0, 171.0, 39.0, 22.0 ],
									"text" : "< 100"
								}

							}
, 							{
								"box" : 								{
									"id" : "obj-21",
									"maxclass" : "newobj",
									"numinlets" : 2,
									"numoutlets" : 1,
									"outlettype" : [ "int" ],
									"patching_rect" : [ 60.0, 159.0, 32.0, 22.0 ],
									"text" : "< 10"
								}

							}
, 							{
								"box" : 								{
									"id" : "obj-22",
									"maxclass" : "message",
									"numinlets" : 2,
									"numoutlets" : 1,
									"outlettype" : [ "" ],
									"patching_rect" : [ 67.0, 338.0, 50.0, 22.0 ],
									"text" : "0 24"
								}

							}
, 							{
								"box" : 								{
									"id" : "obj-25",
									"maxclass" : "message",
									"numinlets" : 2,
									"numoutlets" : 1,
									"outlettype" : [ "" ],
									"patching_rect" : [ 137.0, 267.567627000000016, 63.0, 22.0 ],
									"text" : "prepend 0"
								}

							}
, 							{
								"box" : 								{
									"comment" : "",
									"id" : "obj-58",
									"index" : 1,
									"maxclass" : "inlet",
									"numinlets" : 0,
									"numoutlets" : 1,
									"outlettype" : [ "int" ],
									"patching_rect" : [ 67.0, 40.0, 30.0, 30.0 ]
								}

							}
, 							{
								"box" : 								{
									"comment" : "",
									"id" : "obj-59",
									"index" : 1,
									"maxclass" : "outlet",
									"numinlets" : 1,
									"numoutlets" : 0,
									"patching_rect" : [ 64.0, 771.0, 30.0, 30.0 ]
								}

							}
 ],
						"lines" : [ 							{
								"patchline" : 								{
									"destination" : [ "obj-17", 0 ],
									"source" : [ "obj-10", 0 ]
								}

							}
, 							{
								"patchline" : 								{
									"destination" : [ "obj-16", 0 ],
									"source" : [ "obj-15", 0 ]
								}

							}
, 							{
								"patchline" : 								{
									"destination" : [ "obj-17", 0 ],
									"midpoints" : [ 88.5, 531.0, 73.5, 531.0 ],
									"source" : [ "obj-16", 1 ]
								}

							}
, 							{
								"patchline" : 								{
									"destination" : [ "obj-17", 0 ],
									"midpoints" : [ 73.5, 531.0, 73.5, 531.0 ],
									"source" : [ "obj-16", 0 ]
								}

							}
, 							{
								"patchline" : 								{
									"destination" : [ "obj-49", 0 ],
									"source" : [ "obj-16", 2 ]
								}

							}
, 							{
								"patchline" : 								{
									"destination" : [ "obj-46", 0 ],
									"source" : [ "obj-17", 0 ]
								}

							}
, 							{
								"patchline" : 								{
									"destination" : [ "obj-10", 0 ],
									"source" : [ "obj-18", 1 ]
								}

							}
, 							{
								"patchline" : 								{
									"destination" : [ "obj-30", 0 ],
									"source" : [ "obj-19", 0 ]
								}

							}
, 							{
								"patchline" : 								{
									"destination" : [ "obj-31", 0 ],
									"source" : [ "obj-20", 0 ]
								}

							}
, 							{
								"patchline" : 								{
									"destination" : [ "obj-19", 0 ],
									"source" : [ "obj-21", 0 ]
								}

							}
, 							{
								"patchline" : 								{
									"destination" : [ "obj-15", 0 ],
									"source" : [ "obj-22", 0 ]
								}

							}
, 							{
								"patchline" : 								{
									"destination" : [ "obj-22", 0 ],
									"source" : [ "obj-25", 0 ]
								}

							}
, 							{
								"patchline" : 								{
									"destination" : [ "obj-20", 0 ],
									"source" : [ "obj-27", 2 ]
								}

							}
, 							{
								"patchline" : 								{
									"destination" : [ "obj-21", 0 ],
									"source" : [ "obj-27", 1 ]
								}

							}
, 							{
								"patchline" : 								{
									"destination" : [ "obj-22", 1 ],
									"source" : [ "obj-27", 3 ]
								}

							}
, 							{
								"patchline" : 								{
									"destination" : [ "obj-22", 0 ],
									"source" : [ "obj-27", 0 ]
								}

							}
, 							{
								"patchline" : 								{
									"destination" : [ "obj-22", 0 ],
									"source" : [ "obj-30", 0 ]
								}

							}
, 							{
								"patchline" : 								{
									"destination" : [ "obj-25", 0 ],
									"source" : [ "obj-31", 0 ]
								}

							}
, 							{
								"patchline" : 								{
									"destination" : [ "obj-36", 0 ],
									"source" : [ "obj-34", 0 ]
								}

							}
, 							{
								"patchline" : 								{
									"destination" : [ "obj-37", 0 ],
									"source" : [ "obj-35", 0 ]
								}

							}
, 							{
								"patchline" : 								{
									"destination" : [ "obj-35", 0 ],
									"source" : [ "obj-36", 0 ]
								}

							}
, 							{
								"patchline" : 								{
									"destination" : [ "obj-57", 1 ],
									"source" : [ "obj-37", 0 ]
								}

							}
, 							{
								"patchline" : 								{
									"destination" : [ "obj-47", 0 ],
									"source" : [ "obj-46", 0 ]
								}

							}
, 							{
								"patchline" : 								{
									"destination" : [ "obj-55", 1 ],
									"source" : [ "obj-47", 1 ]
								}

							}
, 							{
								"patchline" : 								{
									"destination" : [ "obj-57", 0 ],
									"source" : [ "obj-47", 0 ]
								}

							}
, 							{
								"patchline" : 								{
									"destination" : [ "obj-18", 0 ],
									"source" : [ "obj-49", 0 ]
								}

							}
, 							{
								"patchline" : 								{
									"destination" : [ "obj-59", 0 ],
									"source" : [ "obj-55", 0 ]
								}

							}
, 							{
								"patchline" : 								{
									"destination" : [ "obj-55", 0 ],
									"source" : [ "obj-57", 0 ]
								}

							}
, 							{
								"patchline" : 								{
									"destination" : [ "obj-27", 0 ],
									"source" : [ "obj-58", 0 ]
								}

							}
 ]
					}
,
					"patching_rect" : [ 864.0, 255.000002324581146, 66.999999999999886, 49.0 ],
					"saved_object_attributes" : 					{
						"description" : "",
						"digest" : "",
						"globalpatchername" : "",
						"tags" : ""
					}
,
					"text" : "p select_lead_preset"
				}

			}
, 			{
				"box" : 				{
					"id" : "obj-61",
					"linecount" : 3,
					"maxclass" : "newobj",
					"numinlets" : 1,
					"numoutlets" : 1,
					"outlettype" : [ "" ],
					"patcher" : 					{
						"fileversion" : 1,
						"appversion" : 						{
							"major" : 8,
							"minor" : 1,
							"revision" : 3,
							"architecture" : "x64",
							"modernui" : 1
						}
,
						"classnamespace" : "box",
						"rect" : [ 34.0, 79.0, 1698.0, 1007.0 ],
						"bglocked" : 0,
						"openinpresentation" : 0,
						"default_fontsize" : 12.0,
						"default_fontface" : 0,
						"default_fontname" : "Arial",
						"gridonopen" : 1,
						"gridsize" : [ 15.0, 15.0 ],
						"gridsnaponopen" : 1,
						"objectsnaponopen" : 1,
						"statusbarvisible" : 2,
						"toolbarvisible" : 1,
						"lefttoolbarpinned" : 0,
						"toptoolbarpinned" : 0,
						"righttoolbarpinned" : 0,
						"bottomtoolbarpinned" : 0,
						"toolbars_unpinned_last_save" : 0,
						"tallnewobj" : 0,
						"boxanimatetime" : 200,
						"enablehscroll" : 1,
						"enablevscroll" : 1,
						"devicewidth" : 0.0,
						"description" : "",
						"digest" : "",
						"tags" : "",
						"style" : "",
						"subpatcher_template" : "",
						"boxes" : [ 							{
								"box" : 								{
									"id" : "obj-57",
									"maxclass" : "newobj",
									"numinlets" : 2,
									"numoutlets" : 1,
									"outlettype" : [ "" ],
									"patcher" : 									{
										"fileversion" : 1,
										"appversion" : 										{
											"major" : 8,
											"minor" : 1,
											"revision" : 3,
											"architecture" : "x64",
											"modernui" : 1
										}
,
										"classnamespace" : "box",
										"rect" : [ 0.0, 0.0, 640.0, 480.0 ],
										"bglocked" : 0,
										"openinpresentation" : 0,
										"default_fontsize" : 12.0,
										"default_fontface" : 0,
										"default_fontname" : "Arial",
										"gridonopen" : 1,
										"gridsize" : [ 15.0, 15.0 ],
										"gridsnaponopen" : 1,
										"objectsnaponopen" : 1,
										"statusbarvisible" : 2,
										"toolbarvisible" : 1,
										"lefttoolbarpinned" : 0,
										"toptoolbarpinned" : 0,
										"righttoolbarpinned" : 0,
										"bottomtoolbarpinned" : 0,
										"toolbars_unpinned_last_save" : 0,
										"tallnewobj" : 0,
										"boxanimatetime" : 200,
										"enablehscroll" : 1,
										"enablevscroll" : 1,
										"devicewidth" : 0.0,
										"description" : "",
										"digest" : "",
										"tags" : "",
										"style" : "",
										"subpatcher_template" : "",
										"boxes" : [ 											{
												"box" : 												{
													"id" : "obj-45",
													"linecount" : 5,
													"maxclass" : "message",
													"numinlets" : 2,
													"numoutlets" : 1,
													"outlettype" : [ "" ],
													"patching_rect" : [ 50.0, 100.0, 50.0, 102.0 ],
													"text" : "\"Macintosh HD:/Users/cella/\""
												}

											}
, 											{
												"box" : 												{
													"comment" : "",
													"id" : "obj-53",
													"index" : 1,
													"maxclass" : "inlet",
													"numinlets" : 0,
													"numoutlets" : 1,
													"outlettype" : [ "bang" ],
													"patching_rect" : [ 50.0, 40.0, 30.0, 30.0 ]
												}

											}
, 											{
												"box" : 												{
													"comment" : "",
													"id" : "obj-54",
													"index" : 2,
													"maxclass" : "inlet",
													"numinlets" : 0,
													"numoutlets" : 1,
													"outlettype" : [ "" ],
													"patching_rect" : [ 81.0, 40.0, 30.0, 30.0 ]
												}

											}
, 											{
												"box" : 												{
													"comment" : "",
													"id" : "obj-56",
													"index" : 1,
													"maxclass" : "outlet",
													"numinlets" : 1,
													"numoutlets" : 0,
													"patching_rect" : [ 50.0, 262.0, 30.0, 30.0 ]
												}

											}
 ],
										"lines" : [ 											{
												"patchline" : 												{
													"destination" : [ "obj-56", 0 ],
													"source" : [ "obj-45", 0 ]
												}

											}
, 											{
												"patchline" : 												{
													"destination" : [ "obj-45", 0 ],
													"source" : [ "obj-53", 0 ]
												}

											}
, 											{
												"patchline" : 												{
													"destination" : [ "obj-45", 1 ],
													"source" : [ "obj-54", 0 ]
												}

											}
 ]
									}
,
									"patching_rect" : [ 64.0, 654.0, 29.5, 22.0 ],
									"saved_object_attributes" : 									{
										"description" : "",
										"digest" : "",
										"globalpatchername" : "",
										"tags" : ""
									}
,
									"text" : "p"
								}

							}
, 							{
								"box" : 								{
									"id" : "obj-47",
									"maxclass" : "newobj",
									"numinlets" : 1,
									"numoutlets" : 2,
									"outlettype" : [ "bang", "" ],
									"patching_rect" : [ 64.0, 608.0, 31.0, 22.0 ],
									"text" : "t b s"
								}

							}
, 							{
								"box" : 								{
									"id" : "obj-34",
									"maxclass" : "newobj",
									"numinlets" : 1,
									"numoutlets" : 1,
									"outlettype" : [ "bang" ],
									"patching_rect" : [ 245.5, 473.64312744140625, 58.0, 22.0 ],
									"text" : "loadbang"
								}

							}
, 							{
								"box" : 								{
									"id" : "obj-35",
									"maxclass" : "newobj",
									"numinlets" : 1,
									"numoutlets" : 1,
									"outlettype" : [ "" ],
									"patching_rect" : [ 245.5, 539.0, 57.0, 22.0 ],
									"text" : "tosymbol"
								}

							}
, 							{
								"box" : 								{
									"id" : "obj-36",
									"maxclass" : "newobj",
									"numinlets" : 1,
									"numoutlets" : 1,
									"outlettype" : [ "" ],
									"patching_rect" : [ 245.5, 506.64312744140625, 67.0, 22.0 ],
									"text" : "12c_config"
								}

							}
, 							{
								"box" : 								{
									"id" : "obj-37",
									"maxclass" : "newobj",
									"numinlets" : 1,
									"numoutlets" : 1,
									"outlettype" : [ "" ],
									"patching_rect" : [ 245.5, 569.70001220703125, 69.0, 22.0 ],
									"text" : "sprintf %s\\\""
								}

							}
, 							{
								"box" : 								{
									"id" : "obj-55",
									"maxclass" : "newobj",
									"numinlets" : 2,
									"numoutlets" : 1,
									"outlettype" : [ "" ],
									"patching_rect" : [ 64.0, 689.0, 278.0, 22.0 ],
									"text" : "sprintf read \\\"%snnirror/presets/obxd/bass/%s.fxp\\\""
								}

							}
, 							{
								"box" : 								{
									"fontname" : "Arial",
									"fontsize" : 12.0,
									"id" : "obj-10",
									"maxclass" : "newobj",
									"numinlets" : 1,
									"numoutlets" : 1,
									"outlettype" : [ "" ],
									"patching_rect" : [ 94.0, 519.0, 98.0, 22.0 ],
									"text" : "prepend append"
								}

							}
, 							{
								"box" : 								{
									"fontname" : "Arial",
									"fontsize" : 12.0,
									"id" : "obj-18",
									"maxclass" : "newobj",
									"numinlets" : 2,
									"numoutlets" : 2,
									"outlettype" : [ "bang", "" ],
									"patching_rect" : [ 94.0, 489.0, 59.0, 22.0 ],
									"text" : "select 32"
								}

							}
, 							{
								"box" : 								{
									"fontname" : "Arial",
									"fontsize" : 12.0,
									"id" : "obj-46",
									"maxclass" : "newobj",
									"numinlets" : 3,
									"numoutlets" : 1,
									"outlettype" : [ "int" ],
									"patching_rect" : [ 64.0, 579.0, 46.0, 22.0 ],
									"text" : "itoa"
								}

							}
, 							{
								"box" : 								{
									"fontname" : "Arial",
									"fontsize" : 12.0,
									"id" : "obj-15",
									"maxclass" : "newobj",
									"numinlets" : 3,
									"numoutlets" : 1,
									"outlettype" : [ "list" ],
									"patching_rect" : [ 67.0, 379.0, 46.0, 22.0 ],
									"text" : "atoi"
								}

							}
, 							{
								"box" : 								{
									"fontname" : "Arial",
									"fontsize" : 12.0,
									"id" : "obj-16",
									"maxclass" : "newobj",
									"numinlets" : 1,
									"numoutlets" : 3,
									"outlettype" : [ "set", "bang", "" ],
									"patching_rect" : [ 64.0, 414.0, 49.0, 22.0 ],
									"text" : "t set b l"
								}

							}
, 							{
								"box" : 								{
									"fontname" : "Arial",
									"fontsize" : 12.0,
									"id" : "obj-49",
									"maxclass" : "newobj",
									"numinlets" : 1,
									"numoutlets" : 1,
									"outlettype" : [ "" ],
									"patching_rect" : [ 94.0, 459.0, 27.0, 22.0 ],
									"text" : "iter"
								}

							}
, 							{
								"box" : 								{
									"fontname" : "Arial",
									"fontsize" : 12.0,
									"id" : "obj-17",
									"maxclass" : "message",
									"numinlets" : 2,
									"numoutlets" : 1,
									"outlettype" : [ "" ],
									"patching_rect" : [ 64.0, 549.0, 50.0, 22.0 ]
								}

							}
, 							{
								"box" : 								{
									"id" : "obj-31",
									"maxclass" : "newobj",
									"numinlets" : 2,
									"numoutlets" : 2,
									"outlettype" : [ "bang", "" ],
									"patching_rect" : [ 127.0, 220.0, 34.0, 22.0 ],
									"text" : "sel 1"
								}

							}
, 							{
								"box" : 								{
									"id" : "obj-30",
									"maxclass" : "message",
									"numinlets" : 2,
									"numoutlets" : 1,
									"outlettype" : [ "" ],
									"patching_rect" : [ 50.0, 274.067627000000016, 63.0, 22.0 ],
									"text" : "prepend 0"
								}

							}
, 							{
								"box" : 								{
									"id" : "obj-19",
									"maxclass" : "newobj",
									"numinlets" : 2,
									"numoutlets" : 2,
									"outlettype" : [ "bang", "" ],
									"patching_rect" : [ 60.0, 220.0, 34.0, 22.0 ],
									"text" : "sel 1"
								}

							}
, 							{
								"box" : 								{
									"id" : "obj-27",
									"maxclass" : "newobj",
									"numinlets" : 1,
									"numoutlets" : 4,
									"outlettype" : [ "bang", "int", "int", "int" ],
									"patching_rect" : [ 67.0, 100.0, 50.5, 22.0 ],
									"text" : "t b i i i"
								}

							}
, 							{
								"box" : 								{
									"id" : "obj-20",
									"maxclass" : "newobj",
									"numinlets" : 2,
									"numoutlets" : 1,
									"outlettype" : [ "int" ],
									"patching_rect" : [ 127.0, 171.0, 39.0, 22.0 ],
									"text" : "< 100"
								}

							}
, 							{
								"box" : 								{
									"id" : "obj-21",
									"maxclass" : "newobj",
									"numinlets" : 2,
									"numoutlets" : 1,
									"outlettype" : [ "int" ],
									"patching_rect" : [ 60.0, 159.0, 32.0, 22.0 ],
									"text" : "< 10"
								}

							}
, 							{
								"box" : 								{
									"id" : "obj-22",
									"maxclass" : "message",
									"numinlets" : 2,
									"numoutlets" : 1,
									"outlettype" : [ "" ],
									"patching_rect" : [ 67.0, 338.0, 50.0, 22.0 ],
									"text" : "0 25"
								}

							}
, 							{
								"box" : 								{
									"id" : "obj-25",
									"maxclass" : "message",
									"numinlets" : 2,
									"numoutlets" : 1,
									"outlettype" : [ "" ],
									"patching_rect" : [ 137.0, 267.567627000000016, 63.0, 22.0 ],
									"text" : "prepend 0"
								}

							}
, 							{
								"box" : 								{
									"comment" : "",
									"id" : "obj-58",
									"index" : 1,
									"maxclass" : "inlet",
									"numinlets" : 0,
									"numoutlets" : 1,
									"outlettype" : [ "int" ],
									"patching_rect" : [ 67.0, 40.0, 30.0, 30.0 ]
								}

							}
, 							{
								"box" : 								{
									"comment" : "",
									"id" : "obj-59",
									"index" : 1,
									"maxclass" : "outlet",
									"numinlets" : 1,
									"numoutlets" : 0,
									"patching_rect" : [ 64.0, 771.0, 30.0, 30.0 ]
								}

							}
 ],
						"lines" : [ 							{
								"patchline" : 								{
									"destination" : [ "obj-17", 0 ],
									"source" : [ "obj-10", 0 ]
								}

							}
, 							{
								"patchline" : 								{
									"destination" : [ "obj-16", 0 ],
									"source" : [ "obj-15", 0 ]
								}

							}
, 							{
								"patchline" : 								{
									"destination" : [ "obj-17", 0 ],
									"midpoints" : [ 88.5, 531.0, 73.5, 531.0 ],
									"source" : [ "obj-16", 1 ]
								}

							}
, 							{
								"patchline" : 								{
									"destination" : [ "obj-17", 0 ],
									"midpoints" : [ 73.5, 531.0, 73.5, 531.0 ],
									"source" : [ "obj-16", 0 ]
								}

							}
, 							{
								"patchline" : 								{
									"destination" : [ "obj-49", 0 ],
									"source" : [ "obj-16", 2 ]
								}

							}
, 							{
								"patchline" : 								{
									"destination" : [ "obj-46", 0 ],
									"source" : [ "obj-17", 0 ]
								}

							}
, 							{
								"patchline" : 								{
									"destination" : [ "obj-10", 0 ],
									"source" : [ "obj-18", 1 ]
								}

							}
, 							{
								"patchline" : 								{
									"destination" : [ "obj-30", 0 ],
									"source" : [ "obj-19", 0 ]
								}

							}
, 							{
								"patchline" : 								{
									"destination" : [ "obj-31", 0 ],
									"source" : [ "obj-20", 0 ]
								}

							}
, 							{
								"patchline" : 								{
									"destination" : [ "obj-19", 0 ],
									"source" : [ "obj-21", 0 ]
								}

							}
, 							{
								"patchline" : 								{
									"destination" : [ "obj-15", 0 ],
									"source" : [ "obj-22", 0 ]
								}

							}
, 							{
								"patchline" : 								{
									"destination" : [ "obj-22", 0 ],
									"source" : [ "obj-25", 0 ]
								}

							}
, 							{
								"patchline" : 								{
									"destination" : [ "obj-20", 0 ],
									"source" : [ "obj-27", 2 ]
								}

							}
, 							{
								"patchline" : 								{
									"destination" : [ "obj-21", 0 ],
									"source" : [ "obj-27", 1 ]
								}

							}
, 							{
								"patchline" : 								{
									"destination" : [ "obj-22", 1 ],
									"source" : [ "obj-27", 3 ]
								}

							}
, 							{
								"patchline" : 								{
									"destination" : [ "obj-22", 0 ],
									"source" : [ "obj-27", 0 ]
								}

							}
, 							{
								"patchline" : 								{
									"destination" : [ "obj-22", 0 ],
									"source" : [ "obj-30", 0 ]
								}

							}
, 							{
								"patchline" : 								{
									"destination" : [ "obj-25", 0 ],
									"source" : [ "obj-31", 0 ]
								}

							}
, 							{
								"patchline" : 								{
									"destination" : [ "obj-36", 0 ],
									"source" : [ "obj-34", 0 ]
								}

							}
, 							{
								"patchline" : 								{
									"destination" : [ "obj-37", 0 ],
									"source" : [ "obj-35", 0 ]
								}

							}
, 							{
								"patchline" : 								{
									"destination" : [ "obj-35", 0 ],
									"source" : [ "obj-36", 0 ]
								}

							}
, 							{
								"patchline" : 								{
									"destination" : [ "obj-57", 1 ],
									"source" : [ "obj-37", 0 ]
								}

							}
, 							{
								"patchline" : 								{
									"destination" : [ "obj-47", 0 ],
									"source" : [ "obj-46", 0 ]
								}

							}
, 							{
								"patchline" : 								{
									"destination" : [ "obj-55", 1 ],
									"source" : [ "obj-47", 1 ]
								}

							}
, 							{
								"patchline" : 								{
									"destination" : [ "obj-57", 0 ],
									"source" : [ "obj-47", 0 ]
								}

							}
, 							{
								"patchline" : 								{
									"destination" : [ "obj-18", 0 ],
									"source" : [ "obj-49", 0 ]
								}

							}
, 							{
								"patchline" : 								{
									"destination" : [ "obj-59", 0 ],
									"source" : [ "obj-55", 0 ]
								}

							}
, 							{
								"patchline" : 								{
									"destination" : [ "obj-55", 0 ],
									"source" : [ "obj-57", 0 ]
								}

							}
, 							{
								"patchline" : 								{
									"destination" : [ "obj-27", 0 ],
									"source" : [ "obj-58", 0 ]
								}

							}
 ]
					}
,
					"patching_rect" : [ 209.0, 255.000002324581146, 68.0, 49.0 ],
					"saved_object_attributes" : 					{
						"description" : "",
						"digest" : "",
						"globalpatchername" : "",
						"tags" : ""
					}
,
					"text" : "p select_bass_preset"
				}

			}
, 			{
				"box" : 				{
					"id" : "obj-11",
					"maxclass" : "newobj",
					"numinlets" : 2,
					"numoutlets" : 1,
					"outlettype" : [ "int" ],
					"patching_rect" : [ 209.0, 222.0, 29.5, 22.0 ],
					"text" : "i"
				}

			}
, 			{
				"box" : 				{
					"id" : "obj-2",
					"maxclass" : "newobj",
					"numinlets" : 2,
					"numoutlets" : 1,
					"outlettype" : [ "int" ],
					"patching_rect" : [ 864.0, 222.0, 29.5, 22.0 ],
					"text" : "i"
				}

			}
, 			{
				"box" : 				{
					"id" : "obj-13",
					"maxclass" : "newobj",
					"numinlets" : 1,
					"numoutlets" : 0,
					"patching_rect" : [ 1042.0, 601.591966331005096, 80.0, 22.0 ],
					"text" : "send~ synth2"
				}

			}
, 			{
				"box" : 				{
					"id" : "obj-3",
					"maxclass" : "newobj",
					"numinlets" : 1,
					"numoutlets" : 0,
					"patching_rect" : [ 385.790711522102356, 601.591966331005096, 80.0, 22.0 ],
					"text" : "send~ synth1"
				}

			}
, 			{
				"box" : 				{
					"id" : "obj-60",
					"maxclass" : "newobj",
					"numinlets" : 7,
					"numoutlets" : 2,
					"outlettype" : [ "int", "" ],
					"patching_rect" : [ 673.0, 222.0, 69.0, 22.0 ],
					"text" : "midiformat"
				}

			}
, 			{
				"box" : 				{
					"id" : "obj-26",
					"maxclass" : "newobj",
					"numinlets" : 2,
					"numoutlets" : 1,
					"outlettype" : [ "signal" ],
					"patching_rect" : [ 1042.0, 382.545456886291504, 32.0, 22.0 ],
					"text" : "*~ 1"
				}

			}
, 			{
				"box" : 				{
					"autosave" : 1,
					"bgmode" : 0,
					"border" : 0,
					"clickthrough" : 0,
					"id" : "obj-12",
					"maxclass" : "newobj",
					"numinlets" : 2,
					"numoutlets" : 8,
					"offset" : [ 0.0, 0.0 ],
					"outlettype" : [ "signal", "signal", "", "list", "int", "", "", "" ],
					"patching_rect" : [ 864.0, 327.545456886291504, 92.5, 22.0 ],
					"save" : [ "#N", "vst~", "loaduniqueid", 0, "Obxd", ";" ],
					"saved_attribute_attributes" : 					{
						"valueof" : 						{
							"parameter_invisible" : 1,
							"parameter_longname" : "vst~[3]",
							"parameter_shortname" : "vst~[1]",
							"parameter_type" : 3
						}

					}
,
					"saved_object_attributes" : 					{
						"parameter_enable" : 1,
						"parameter_mappable" : 0
					}
,
					"snapshot" : 					{
						"filetype" : "C74Snapshot",
						"version" : 2,
						"minorversion" : 0,
						"name" : "snapshotlist",
						"origin" : "vst~",
						"type" : "list",
						"subtype" : "Undefined",
						"embed" : 1,
						"snapshot" : 						{
							"pluginname" : "Obxd.vstinfo",
							"plugindisplayname" : "OB-Xd",
							"pluginsavedname" : "",
							"pluginsaveduniqueid" : 0,
							"version" : 1,
							"isbank" : 0,
							"isbase64" : 1,
							"blob" : "1277.CMlaKA....fQPMDZ....A7jX3QF.AT.......JjdBUDSeQTZ2klakAxQrE1byU1b.............PPvVMjLgfKA...ODEFcy8VctQ1bf.SOh.iHfDSOh.iHfHSOhDiHfLSOhHiK0TVKwHBHzziH03BLz.CLv.CL3DCL1HyLwbSYsDiHfTSOhbiK0TVKwHBH1ziHvHBH2ziHwHBH3ziHwHBH4ziH13BLv.CLv.iLyfCMwfSM2jSYsDiHfDCL8HxLtDiLv.CLv.iMzLyMy.SL1TVKwHBHwDSOhDiHfDiL8HRLh.RLyziHvHBHwPSOh.iHfDSM8HhLtbSM4jSN4jyLvfSM3XSLxTVKwHBHwXSOhXiKwTSN4jSNybCL0bCM4TSLk0RLh.RL2ziHw3BMz.CLv.SMyPCL0biMwbSYsDiHfDCN8HBLh.RL4ziHvHBHx.SOh.iHfHSL8HhLtfCLv.CLwHCLz.SLyfiLzTVKxHBHxHSOhXiKz.CLv.CLy.yL4fyL1fCNk0hLh.hLyziHwHBHxPSOhDiHfHSM8HBLh.hL1ziHvHBHxbSOh.iHfHCN8HBLh.hL4ziH03hMv.CLv.SMzTyL3HSMk0hLh.xLvziHvHBHyDSOhLiK4DSN4jSN3jyMzfCLvDSLk0RLh.xLxziHvHBHyLSOh.iHfLCM8HBLh.xL0ziHvHBHyXSOh.iHfLyM8HBMtXCNv.CLvHCM0TyMwDyL1TVKwHBHyfSOh.iHfLSN8HBLh.BMvziH43BMz.CLv.CL0biLx.CM0jSYsDiHfPSL8HRNtjSN4jSN2jSLyfyL2PyLyTVKxHBHzHSOh.iHfPyL8HBLh.BMzziHvHBHzTSOhbiK1HyMyPyL0LSMzHyLxbSNk0RLh.BM1ziHwHBHzbSOhDiHfPCN8HRLh.BM4ziHvHBH0.SOhjiKwXCLv.CLvfSM3LCL1fCNk0RLh.RMwziHw3RN0HSL3biL1jSNxXCL2DSYsDiHfTiL8HBNtjSL4jSN4TSN4PSM1bCN2TVKwHBH0LSOhDiHfTCM8HxMtLSL4jSN4LyL2DSN1LSMk0RLh.RM0ziHw3RL4jSN4jyMyDCLyPCLzTVKxHBH0XSOhLiK1fCLv.CL4.SLxHiLxHSNk0RLh.RM2ziHy3RN4jSN4jSL1TSMyPSN2LSYsDiHfTCN8HRLh.RM4ziH33BNv.CLv.iM4byL2PyLzPSYsHiHfXCL8HBNt.CLv.CLvTiM1HCMzDiL0TVKxHBH1DSOh.iHfXiL8HhMtLSM4jSN4byM0fCN1TyL1TVKwHBH1LSOhTiK2DSN4jSN1bCL4fiLyXSLk0RLh.hMzziH03RL0jSN4jyMxfiLvHCNxTVKwHBH1TSOhPiK0XCLv.CLy.CLz.yMzDSYsDiHfXiM8HxLtbiMv.CLvDiM4HyM2DSNwTVKwHBH1bSOhPiK1.CLv.CLvfyLzPiM0.yLk0RLh.hM3ziH0TVKwHBH1jSOhTiK2jSN4jSN3LyLw.iM4jSMk0RLh.xMvziHvHBH2DSOhDiHfbiL8HBLh.xMyziHvHBH2PSOh.iHfbSM8HBLh.xM1ziHvHBH2bSOh.iHfbCN8HxLt.CLv.CLvDSL4HCL4HSNk0RLh.xM4ziHvHBH18VZiU1PuUmaz0iHyHiHf.mbuclbg0lSg0VY8HhP5ITQL8EQocWZtUFHGwVXyMWYyIxK9.."
						}
,
						"snapshotlist" : 						{
							"current_snapshot" : 0,
							"entries" : [ 								{
									"filetype" : "C74Snapshot",
									"version" : 2,
									"minorversion" : 0,
									"name" : "OB-Xd",
									"origin" : "Obxd.vstinfo",
									"type" : "VST",
									"subtype" : "Instrument",
									"embed" : 0,
									"snapshot" : 									{
										"pluginname" : "Obxd.vstinfo",
										"plugindisplayname" : "OB-Xd",
										"pluginsavedname" : "",
										"pluginsaveduniqueid" : 0,
										"version" : 1,
										"isbank" : 0,
										"isbase64" : 1,
										"blob" : "1277.CMlaKA....fQPMDZ....A7jX3QF.AT.......JjdBUDSeQTZ2klakAxQrE1byU1b.............PPvVMjLgfKA...ODEFcy8VctQ1bf.SOh.iHfDSOh.iHfHSOhDiHfLSOhHiK0TVKwHBHzziH03BLz.CLv.CL3DCL1HyLwbSYsDiHfTSOhbiK0TVKwHBH1ziHvHBH2ziHwHBH3ziHwHBH4ziH13BLv.CLv.iLyfCMwfSM2jSYsDiHfDCL8HxLtDiLv.CLv.iMzLyMy.SL1TVKwHBHwDSOhDiHfDiL8HRLh.RLyziHvHBHwPSOh.iHfDSM8HhLtbSM4jSN4jyLvfSM3XSLxTVKwHBHwXSOhXiKwTSN4jSNybCL0bCM4TSLk0RLh.RL2ziHw3BMz.CLv.SMyPCL0biMwbSYsDiHfDCN8HBLh.RL4ziHvHBHx.SOh.iHfHSL8HhLtfCLv.CLwHCLz.SLyfiLzTVKxHBHxHSOhXiKz.CLv.CLy.yL4fyL1fCNk0hLh.hLyziHwHBHxPSOhDiHfHSM8HBLh.hL1ziHvHBHxbSOh.iHfHCN8HBLh.hL4ziH03hMv.CLv.SMzTyL3HSMk0hLh.xLvziHvHBHyDSOhLiK4DSN4jSN3jyMzfCLvDSLk0RLh.xLxziHvHBHyLSOh.iHfLCM8HBLh.xL0ziHvHBHyXSOh.iHfLyM8HBMtXCNv.CLvHCM0TyMwDyL1TVKwHBHyfSOh.iHfLSN8HBLh.BMvziH43BMz.CLv.CL0biLx.CM0jSYsDiHfPSL8HRNtjSN4jSN2jSLyfyL2PyLyTVKxHBHzHSOh.iHfPyL8HBLh.BMzziHvHBHzTSOhbiK1HyMyPyL0LSMzHyLxbSNk0RLh.BM1ziHwHBHzbSOhDiHfPCN8HRLh.BM4ziHvHBH0.SOhjiKwXCLv.CLvfSM3LCL1fCNk0RLh.RMwziHw3RN0HSL3biL1jSNxXCL2DSYsDiHfTiL8HBNtjSL4jSN4TSN4PSM1bCN2TVKwHBH0LSOhDiHfTCM8HxMtLSL4jSN4LyL2DSN1LSMk0RLh.RM0ziHw3RL4jSN4jyMyDCLyPCLzTVKxHBH0XSOhLiK1fCLv.CL4.SLxHiLxHSNk0RLh.RM2ziHy3RN4jSN4jSL1TSMyPSN2LSYsDiHfTCN8HRLh.RM4ziH33BNv.CLv.iM4byL2PyLzPSYsHiHfXCL8HBNt.CLv.CLvTiM1HCMzDiL0TVKxHBH1DSOh.iHfXiL8HhMtLSM4jSN4byM0fCN1TyL1TVKwHBH1LSOhTiK2DSN4jSN1bCL4fiLyXSLk0RLh.hMzziH03RL0jSN4jyMxfiLvHCNxTVKwHBH1TSOhPiK0XCLv.CLy.CLz.yMzDSYsDiHfXiM8HxLtbiMv.CLvDiM4HyM2DSNwTVKwHBH1bSOhPiK1.CLv.CLvfyLzPiM0.yLk0RLh.hM3ziH0TVKwHBH1jSOhTiK2jSN4jSN3LyLw.iM4jSMk0RLh.xMvziHvHBH2DSOhDiHfbiL8HBLh.xMyziHvHBH2PSOh.iHfbSM8HBLh.xM1ziHvHBH2bSOh.iHfbCN8HxLt.CLv.CLvDSL4HCL4HSNk0RLh.xM4ziHvHBH18VZiU1PuUmaz0iHyHiHf.mbuclbg0lSg0VY8HhP5ITQL8EQocWZtUFHGwVXyMWYyIxK9.."
									}
,
									"fileref" : 									{
										"name" : "OB-Xd",
										"filename" : "OB-Xd.maxsnap",
										"filepath" : "~/Documents/Max 8/Snapshots",
										"filepos" : -1,
										"snapshotfileid" : "bfd0f8807e7ccc34ac416de33cd73d33"
									}

								}
 ]
						}

					}
,
					"text" : "vst~ Obxd",
					"varname" : "vst~[1]",
					"viewvisibility" : 0
				}

			}
, 			{
				"box" : 				{
					"id" : "obj-62",
					"maxclass" : "newobj",
					"numinlets" : 7,
					"numoutlets" : 2,
					"outlettype" : [ "int", "" ],
					"patching_rect" : [ 18.0, 222.0, 82.0, 22.0 ],
					"text" : "midiformat"
				}

			}
, 			{
				"box" : 				{
					"id" : "obj-24",
					"maxclass" : "newobj",
					"numinlets" : 2,
					"numoutlets" : 1,
					"outlettype" : [ "signal" ],
					"patching_rect" : [ 387.0, 382.545456886291504, 32.0, 22.0 ],
					"text" : "*~ 1"
				}

			}
, 			{
				"box" : 				{
					"autosave" : 1,
					"bgmode" : 0,
					"border" : 0,
					"clickthrough" : 0,
					"id" : "obj-6",
					"maxclass" : "newobj",
					"numinlets" : 2,
					"numoutlets" : 8,
					"offset" : [ 0.0, 0.0 ],
					"outlettype" : [ "signal", "signal", "", "list", "int", "", "", "" ],
					"patching_rect" : [ 209.0, 327.545456886291504, 92.5, 22.0 ],
					"save" : [ "#N", "vst~", "loaduniqueid", 0, "Obxd", ";" ],
					"saved_attribute_attributes" : 					{
						"valueof" : 						{
							"parameter_invisible" : 1,
							"parameter_longname" : "vst~[4]",
							"parameter_shortname" : "vst~",
							"parameter_type" : 3
						}

					}
,
					"saved_object_attributes" : 					{
						"parameter_enable" : 1,
						"parameter_mappable" : 0
					}
,
					"snapshot" : 					{
						"filetype" : "C74Snapshot",
						"version" : 2,
						"minorversion" : 0,
						"name" : "snapshotlist",
						"origin" : "vst~",
						"type" : "list",
						"subtype" : "Undefined",
						"embed" : 1,
						"snapshot" : 						{
							"pluginname" : "Obxd.vstinfo",
							"plugindisplayname" : "OB-Xd",
							"pluginsavedname" : "",
							"pluginsaveduniqueid" : 0,
							"version" : 1,
							"isbank" : 0,
							"isbase64" : 1,
							"blob" : "1010.CMlaKA....fQPMDZ....A7jX3QF.AT.......JjdKUTVeQTXtMVYf7jbmEla.................LfsVMjLgz5....ODEFcy8VctQ1bf.SOh.iHfDSOh.iHfHSOhfiKvLyLxfCL4XCN1XiMvbyMk0RLh.xL8HhLtTSYsDiHfPSOhTiKvLSN4jSNzfSMvDSM3XSNk0RLh.RM8HBMtjSL4jSN4TyL4fSMxDCMxTVKwHBH1ziHvHBH2ziHvHBH3ziHwHBH4ziHx3BNv.CLv.yLvjSNzPSL0LSYsDiHfDCL8HBLh.RLwziHvHBHwHSOhDiHfDyL8HBLh.RLzziHvHBHwTSOhHiK3.CLv.CLvDSL4HCL4HSNk0RLh.RL1ziH43BMz.CLv.CL0biLx.CM0jSYsDiHfDyM8HRMtDiMv.CLvLiLzHCM4HiM3TVKwHBHwfSOhDiHfDSN8HBLh.hLvziHvHBHxDSOhbiKwjSN4jSN1jCLvTSM3PyMk0hLh.hLxziHvHBHxLSOhDiHfHCM8HRLh.hL0ziHvHBHxXSOh.iHfHyM8HBLh.hL3ziHvHBHxjSOh.iHfLCL8HBLh.xLwziHy3BN2jSN4jiLx.yL2DiLzXSYsDiHfLiL8HBLh.xLyziHvHBHyPSOh.iHfLSM8HBLh.xL1ziHwHBHybSOh.iHfLCN8HRLh.xL4ziHvHBHz.SOhDiHfPSL8HRLtfCM4.iMxPCMxbyM4TCMwTVKwHBHzHSOh.iHfPyL8HRLh.BMzziHw3RNx.CLv.CLwXiM3jyLvDSYsDiHfPSM8HxMtHyM4jSN4fSMxDCNvPCNwTVKwHBHzXSOhbiK4jSN4jSN3HSLwfiMvXiMk0hLh.BM2ziHwHBHzfSOh.iHfPSN8HBLh.RMvziHvHBH0DSOh.iHfTiL8HxMtHyL4jSN4byMwDSL3DiMzTVKwHBH0LSOhDiHfTCM8HhLtLiLv.CLv.CNxHSMzPSLk0RLh.RM0ziHvHBH0XSOh.iHfTyM8HRLh.RM3ziHvHBH0jSOh.iHfXCL8HBLh.hMwziHvHBH1HSOhTSYsDiHfXyL8HRMk0RLh.hMzziH0TVKwHBH1TSOhTSYsDiHfXiM8HRMk0RLh.hM2ziH0TVKwHBH1fSOhTSYsDiHfXSN8HRMk0RLh.xMvziHvHBH2DSOhDiHfbiL8HBLh.xMyziHvHBH2PSOh.iHfbSM8HBLh.xM1ziHvHBH2bSOh.iHfbCN8HxLt.CLv.CLvDSL4HCL4HSNk0RLh.xM4ziHvHBH18VZiU1PuUmaz0iHyHiHf.mbuclbg0lSg0VY8HhP5sTQY8EQg41XkAxSxcVXtIxK9.."
						}
,
						"snapshotlist" : 						{
							"current_snapshot" : 0,
							"entries" : [ 								{
									"filetype" : "C74Snapshot",
									"version" : 2,
									"minorversion" : 0,
									"name" : "OB-Xd",
									"origin" : "Obxd.vstinfo",
									"type" : "VST",
									"subtype" : "Instrument",
									"embed" : 0,
									"snapshot" : 									{
										"pluginname" : "Obxd.vstinfo",
										"plugindisplayname" : "OB-Xd",
										"pluginsavedname" : "",
										"pluginsaveduniqueid" : 0,
										"version" : 1,
										"isbank" : 0,
										"isbase64" : 1,
										"blob" : "1010.CMlaKA....fQPMDZ....A7jX3QF.AT.......JjdKUTVeQTXtMVYf7jbmEla.................LfsVMjLgz5....ODEFcy8VctQ1bf.SOh.iHfDSOh.iHfHSOhfiKvLyLxfCL4XCN1XiMvbyMk0RLh.xL8HhLtTSYsDiHfPSOhTiKvLSN4jSNzfSMvDSM3XSNk0RLh.RM8HBMtjSL4jSN4TyL4fSMxDCMxTVKwHBH1ziHvHBH2ziHvHBH3ziHwHBH4ziHx3BNv.CLv.yLvjSNzPSL0LSYsDiHfDCL8HBLh.RLwziHvHBHwHSOhDiHfDyL8HBLh.RLzziHvHBHwTSOhHiK3.CLv.CLvDSL4HCL4HSNk0RLh.RL1ziH43BMz.CLv.CL0biLx.CM0jSYsDiHfDyM8HRMtDiMv.CLvLiLzHCM4HiM3TVKwHBHwfSOhDiHfDSN8HBLh.hLvziHvHBHxDSOhbiKwjSN4jSN1jCLvTSM3PyMk0hLh.hLxziHvHBHxLSOhDiHfHCM8HRLh.hL0ziHvHBHxXSOh.iHfHyM8HBLh.hL3ziHvHBHxjSOh.iHfLCL8HBLh.xLwziHy3BN2jSN4jiLx.yL2DiLzXSYsDiHfLiL8HBLh.xLyziHvHBHyPSOh.iHfLSM8HBLh.xL1ziHwHBHybSOh.iHfLCN8HRLh.xL4ziHvHBHz.SOhDiHfPSL8HRLtfCM4.iMxPCMxbyM4TCMwTVKwHBHzHSOh.iHfPyL8HRLh.BMzziHw3RNx.CLv.CLwXiM3jyLvDSYsDiHfPSM8HxMtHyM4jSN4fSMxDCNvPCNwTVKwHBHzXSOhbiK4jSN4jSN3HSLwfiMvXiMk0hLh.BM2ziHwHBHzfSOh.iHfPSN8HBLh.RMvziHvHBH0DSOh.iHfTiL8HxMtHyL4jSN4byMwDSL3DiMzTVKwHBH0LSOhDiHfTCM8HhLtLiLv.CLv.CNxHSMzPSLk0RLh.RM0ziHvHBH0XSOh.iHfTyM8HRLh.RM3ziHvHBH0jSOh.iHfXCL8HBLh.hMwziHvHBH1HSOhTSYsDiHfXyL8HRMk0RLh.hMzziH0TVKwHBH1TSOhTSYsDiHfXiM8HRMk0RLh.hM2ziH0TVKwHBH1fSOhTSYsDiHfXSN8HRMk0RLh.xMvziHvHBH2DSOhDiHfbiL8HBLh.xMyziHvHBH2PSOh.iHfbSM8HBLh.xM1ziHvHBH2bSOh.iHfbCN8HxLt.CLv.CLvDSL4HCL4HSNk0RLh.xM4ziHvHBH18VZiU1PuUmaz0iHyHiHf.mbuclbg0lSg0VY8HhP5sTQY8EQg41XkAxSxcVXtIxK9.."
									}
,
									"fileref" : 									{
										"name" : "OB-Xd",
										"filename" : "OB-Xd.maxsnap",
										"filepath" : "~/Documents/Max 8/Snapshots",
										"filepos" : -1,
										"snapshotfileid" : "bfd0f8807e7ccc34ac416de33cd73d33"
									}

								}
 ]
						}

					}
,
					"text" : "vst~ Obxd",
					"varname" : "vst~",
					"viewvisibility" : 0
				}

			}
, 			{
				"box" : 				{
					"id" : "obj-4",
					"maxclass" : "newobj",
					"numinlets" : 1,
					"numoutlets" : 4,
					"outlettype" : [ "", "", "", "" ],
					"patching_rect" : [ 443.531738000000018, 23.0, 56.0, 22.0 ],
					"restore" : 					{
						"vst~" : [ 							{
								"filetype" : "C74Snapshot",
								"version" : 2,
								"minorversion" : 0,
								"name" : "OB-Xd",
								"origin" : "Obxd.vstinfo",
								"type" : "VST",
								"subtype" : "Instrument",
								"embed" : 1,
								"snapshot" : 								{
									"pluginname" : "Obxd.vstinfo",
									"plugindisplayname" : "OB-Xd",
									"pluginsavedname" : "",
									"pluginsaveduniqueid" : 0,
									"version" : 1,
									"isbank" : 0,
									"isbase64" : 1,
									"blob" : "1010.CMlaKA....fQPMDZ....A7jX3QF.AT.......JjdKUTVeQTXtMVYf7jbmEla.................LfsVMjLgz5....ODEFcy8VctQ1bf.SOh.iHfDSOh.iHfHSOhfiKvLyLxfCL4XCN1XiMvbyMk0RLh.xL8HhLtTSYsDiHfPSOhTiKvLSN4jSNzfSMvDSM3XSNk0RLh.RM8HBMtjSL4jSN4TyL4fSMxDCMxTVKwHBH1ziHvHBH2ziHvHBH3ziHwHBH4ziHx3BNv.CLv.yLvjSNzPSL0LSYsDiHfDCL8HBLh.RLwziHvHBHwHSOhDiHfDyL8HBLh.RLzziHvHBHwTSOhHiK3.CLv.CLvDSL4HCL4HSNk0RLh.RL1ziH43BMz.CLv.CL0biLx.CM0jSYsDiHfDyM8HRMtDiMv.CLvLiLzHCM4HiM3TVKwHBHwfSOhDiHfDSN8HBLh.hLvziHvHBHxDSOhbiKwjSN4jSN1jCLvTSM3PyMk0hLh.hLxziHvHBHxLSOhDiHfHCM8HRLh.hL0ziHvHBHxXSOh.iHfHyM8HBLh.hL3ziHvHBHxjSOh.iHfLCL8HBLh.xLwziHy3BN2jSN4jiLx.yL2DiLzXSYsDiHfLiL8HBLh.xLyziHvHBHyPSOh.iHfLSM8HBLh.xL1ziHwHBHybSOh.iHfLCN8HRLh.xL4ziHvHBHz.SOhDiHfPSL8HRLtfCM4.iMxPCMxbyM4TCMwTVKwHBHzHSOh.iHfPyL8HRLh.BMzziHw3RNx.CLv.CLwXiM3jyLvDSYsDiHfPSM8HxMtHyM4jSN4fSMxDCNvPCNwTVKwHBHzXSOhbiK4jSN4jSN3HSLwfiMvXiMk0hLh.BM2ziHwHBHzfSOh.iHfPSN8HBLh.RMvziHvHBH0DSOh.iHfTiL8HxMtHyL4jSN4byMwDSL3DiMzTVKwHBH0LSOhDiHfTCM8HhLtLiLv.CLv.CNxHSMzPSLk0RLh.RM0ziHvHBH0XSOh.iHfTyM8HRLh.RM3ziHvHBH0jSOh.iHfXCL8HBLh.hMwziHvHBH1HSOhTSYsDiHfXyL8HRMk0RLh.hMzziH0TVKwHBH1TSOhTSYsDiHfXiM8HRMk0RLh.hM2ziH0TVKwHBH1fSOhTSYsDiHfXSN8HRMk0RLh.xMvziHvHBH2DSOhDiHfbiL8HBLh.xMyziHvHBH2PSOh.iHfbSM8HBLh.xM1ziHvHBH2bSOh.iHfbCN8HxLt.CLv.CLvDSL4HCL4HSNk0RLh.xM4ziHvHBH18VZiU1PuUmaz0iHyHiHf.mbuclbg0lSg0VY8HhP5sTQY8EQg41XkAxSxcVXtIxK9.."
								}

							}
 ],
						"vst~[1]" : [ 							{
								"filetype" : "C74Snapshot",
								"version" : 2,
								"minorversion" : 0,
								"name" : "OB-Xd",
								"origin" : "Obxd.vstinfo",
								"type" : "VST",
								"subtype" : "Instrument",
								"embed" : 1,
								"snapshot" : 								{
									"pluginname" : "Obxd.vstinfo",
									"plugindisplayname" : "OB-Xd",
									"pluginsavedname" : "",
									"pluginsaveduniqueid" : 0,
									"version" : 1,
									"isbank" : 0,
									"isbase64" : 1,
									"blob" : "1277.CMlaKA....fQPMDZ....A7jX3QF.AT.......JjdBUDSeQTZ2klakAxQrE1byU1b.............PPvVMjLgfKA...ODEFcy8VctQ1bf.SOh.iHfDSOh.iHfHSOhDiHfLSOhHiK0TVKwHBHzziH03BLz.CLv.CL3DCL1HyLwbSYsDiHfTSOhbiK0TVKwHBH1ziHvHBH2ziHwHBH3ziHwHBH4ziH13BLv.CLv.iLyfCMwfSM2jSYsDiHfDCL8HxLtDiLv.CLv.iMzLyMy.SL1TVKwHBHwDSOhDiHfDiL8HRLh.RLyziHvHBHwPSOh.iHfDSM8HhLtbSM4jSN4jyLvfSM3XSLxTVKwHBHwXSOhXiKwTSN4jSNybCL0bCM4TSLk0RLh.RL2ziHw3BMz.CLv.SMyPCL0biMwbSYsDiHfDCN8HBLh.RL4ziHvHBHx.SOh.iHfHSL8HhLtfCLv.CLwHCLz.SLyfiLzTVKxHBHxHSOhXiKz.CLv.CLy.yL4fyL1fCNk0hLh.hLyziHwHBHxPSOhDiHfHSM8HBLh.hL1ziHvHBHxbSOh.iHfHCN8HBLh.hL4ziH03hMv.CLv.SMzTyL3HSMk0hLh.xLvziHvHBHyDSOhLiK4DSN4jSN3jyMzfCLvDSLk0RLh.xLxziHvHBHyLSOh.iHfLCM8HBLh.xL0ziHvHBHyXSOh.iHfLyM8HBMtXCNv.CLvHCM0TyMwDyL1TVKwHBHyfSOh.iHfLSN8HBLh.BMvziH43BMz.CLv.CL0biLx.CM0jSYsDiHfPSL8HRNtjSN4jSN2jSLyfyL2PyLyTVKxHBHzHSOh.iHfPyL8HBLh.BMzziHvHBHzTSOhbiK1HyMyPyL0LSMzHyLxbSNk0RLh.BM1ziHwHBHzbSOhDiHfPCN8HRLh.BM4ziHvHBH0.SOhjiKwXCLv.CLvfSM3LCL1fCNk0RLh.RMwziHw3RN0HSL3biL1jSNxXCL2DSYsDiHfTiL8HBNtjSL4jSN4TSN4PSM1bCN2TVKwHBH0LSOhDiHfTCM8HxMtLSL4jSN4LyL2DSN1LSMk0RLh.RM0ziHw3RL4jSN4jyMyDCLyPCLzTVKxHBH0XSOhLiK1fCLv.CL4.SLxHiLxHSNk0RLh.RM2ziHy3RN4jSN4jSL1TSMyPSN2LSYsDiHfTCN8HRLh.RM4ziH33BNv.CLv.iM4byL2PyLzPSYsHiHfXCL8HBNt.CLv.CLvTiM1HCMzDiL0TVKxHBH1DSOh.iHfXiL8HhMtLSM4jSN4byM0fCN1TyL1TVKwHBH1LSOhTiK2DSN4jSN1bCL4fiLyXSLk0RLh.hMzziH03RL0jSN4jyMxfiLvHCNxTVKwHBH1TSOhPiK0XCLv.CLy.CLz.yMzDSYsDiHfXiM8HxLtbiMv.CLvDiM4HyM2DSNwTVKwHBH1bSOhPiK1.CLv.CLvfyLzPiM0.yLk0RLh.hM3ziH0TVKwHBH1jSOhTiK2jSN4jSN3LyLw.iM4jSMk0RLh.xMvziHvHBH2DSOhDiHfbiL8HBLh.xMyziHvHBH2PSOh.iHfbSM8HBLh.xM1ziHvHBH2bSOh.iHfbCN8HxLt.CLv.CLvDSL4HCL4HSNk0RLh.xM4ziHvHBH18VZiU1PuUmaz0iHyHiHf.mbuclbg0lSg0VY8HhP5ITQL8EQocWZtUFHGwVXyMWYyIxK9.."
								}

							}
 ]
					}
,
					"text" : "autopattr",
					"varname" : "u941074834"
				}

			}
, 			{
				"box" : 				{
					"args" : [ "@min", 60, "@max", 96, "@midi_destination", 2, "@1", "Cutoff", "@2", "Detune", "@3", "Resonance", "@presets", 36 ],
					"bgmode" : 0,
					"border" : 0,
					"clickthrough" : 0,
					"enablehscroll" : 0,
					"enablevscroll" : 0,
					"id" : "obj-148",
					"lockeddragscroll" : 0,
					"maxclass" : "bpatcher",
					"name" : "_midi_seq.maxpat",
					"numinlets" : 0,
					"numoutlets" : 3,
					"offset" : [ 0.0, 0.0 ],
					"outlettype" : [ "", "", "signal" ],
					"patching_rect" : [ 673.0, 23.0, 401.000000000000057, 187.0 ],
					"presentation" : 1,
					"presentation_rect" : [ 332.161925999999994, -0.333341, 325.777770999999973, 180.428513000000009 ],
					"varname" : "_midi_seq2",
					"viewvisibility" : 1
				}

			}
, 			{
				"box" : 				{
					"args" : [ "@min", 36, "@max", 60, "@midi_destination", 1, "@1", "Cutoff", "@2", "Detune", "@3", "Resonance", "@presets", 39 ],
					"bgmode" : 0,
					"border" : 0,
					"clickthrough" : 0,
					"enablehscroll" : 0,
					"enablevscroll" : 0,
					"id" : "obj-1",
					"lockeddragscroll" : 0,
					"maxclass" : "bpatcher",
					"name" : "_midi_seq.maxpat",
					"numinlets" : 0,
					"numoutlets" : 3,
					"offset" : [ 0.0, 0.0 ],
					"outlettype" : [ "", "", "signal" ],
					"patching_rect" : [ 18.0, 23.0, 401.0, 187.0 ],
					"presentation" : 1,
					"presentation_rect" : [ -1.0, -0.333341, 325.777770999999973, 180.428513000000009 ],
					"varname" : "_midi_seq",
					"viewvisibility" : 1
				}

			}
 ],
		"lines" : [ 			{
				"patchline" : 				{
					"destination" : [ "obj-11", 0 ],
					"source" : [ "obj-1", 1 ]
				}

			}
, 			{
				"patchline" : 				{
					"destination" : [ "obj-24", 1 ],
					"source" : [ "obj-1", 2 ]
				}

			}
, 			{
				"patchline" : 				{
					"destination" : [ "obj-62", 0 ],
					"source" : [ "obj-1", 0 ]
				}

			}
, 			{
				"patchline" : 				{
					"destination" : [ "obj-13", 0 ],
					"source" : [ "obj-10", 0 ]
				}

			}
, 			{
				"patchline" : 				{
					"destination" : [ "obj-61", 0 ],
					"source" : [ "obj-11", 0 ]
				}

			}
, 			{
				"patchline" : 				{
					"destination" : [ "obj-26", 0 ],
					"midpoints" : [ 873.5, 362.60436075925827, 1051.5, 362.60436075925827 ],
					"source" : [ "obj-12", 0 ]
				}

			}
, 			{
				"patchline" : 				{
					"destination" : [ "obj-9", 0 ],
					"source" : [ "obj-132", 0 ]
				}

			}
, 			{
				"patchline" : 				{
					"destination" : [ "obj-2", 0 ],
					"source" : [ "obj-148", 1 ]
				}

			}
, 			{
				"patchline" : 				{
					"destination" : [ "obj-26", 1 ],
					"source" : [ "obj-148", 2 ]
				}

			}
, 			{
				"patchline" : 				{
					"destination" : [ "obj-60", 0 ],
					"source" : [ "obj-148", 0 ]
				}

			}
, 			{
				"patchline" : 				{
					"destination" : [ "obj-132", 0 ],
					"source" : [ "obj-19", 0 ]
				}

			}
, 			{
				"patchline" : 				{
					"destination" : [ "obj-66", 0 ],
					"source" : [ "obj-2", 0 ]
				}

			}
, 			{
				"patchline" : 				{
					"destination" : [ "obj-21", 0 ],
					"source" : [ "obj-20", 0 ]
				}

			}
, 			{
				"patchline" : 				{
					"destination" : [ "obj-10", 0 ],
					"source" : [ "obj-21", 0 ]
				}

			}
, 			{
				"patchline" : 				{
					"destination" : [ "obj-19", 0 ],
					"source" : [ "obj-24", 0 ]
				}

			}
, 			{
				"patchline" : 				{
					"destination" : [ "obj-20", 0 ],
					"source" : [ "obj-26", 0 ]
				}

			}
, 			{
				"patchline" : 				{
					"destination" : [ "obj-24", 0 ],
					"midpoints" : [ 218.5, 364.636365473270416, 396.5, 364.636365473270416 ],
					"source" : [ "obj-6", 0 ]
				}

			}
, 			{
				"patchline" : 				{
					"destination" : [ "obj-12", 0 ],
					"midpoints" : [ 732.5, 313.397265553474426, 873.5, 313.397265553474426 ],
					"source" : [ "obj-60", 1 ]
				}

			}
, 			{
				"patchline" : 				{
					"destination" : [ "obj-6", 0 ],
					"source" : [ "obj-61", 0 ]
				}

			}
, 			{
				"patchline" : 				{
					"destination" : [ "obj-6", 0 ],
					"midpoints" : [ 90.5, 313.363638818264008, 218.5, 313.363638818264008 ],
					"source" : [ "obj-62", 1 ]
				}

			}
, 			{
				"patchline" : 				{
					"destination" : [ "obj-12", 0 ],
					"source" : [ "obj-66", 0 ]
				}

			}
, 			{
				"patchline" : 				{
					"destination" : [ "obj-3", 0 ],
					"source" : [ "obj-9", 0 ]
				}

			}
 ],
		"styles" : [ 			{
				"name" : "AudioStatus_Menu",
				"default" : 				{
					"bgfillcolor" : 					{
						"type" : "color",
						"color" : [ 0.294118, 0.313726, 0.337255, 1 ],
						"color1" : [ 0.454902, 0.462745, 0.482353, 0.0 ],
						"color2" : [ 0.290196, 0.309804, 0.301961, 1.0 ],
						"angle" : 270.0,
						"proportion" : 0.39,
						"autogradient" : 0
					}

				}
,
				"parentstyle" : "",
				"multi" : 0
			}
, 			{
				"name" : "buttonGreen-1",
				"default" : 				{
					"bgcolor" : [ 0.043137, 0.364706, 0.094118, 1.0 ]
				}
,
				"parentstyle" : "",
				"multi" : 0
			}
, 			{
				"name" : "dUG Yello 01-1",
				"toggle" : 				{
					"bgcolor" : [ 1.0, 0.941176, 0.803922, 1.0 ]
				}
,
				"newobj" : 				{
					"bgcolor" : [ 1.0, 0.941176, 0.803922, 1.0 ],
					"textcolor_inverse" : [ 0.0, 0.0, 0.0, 1.0 ],
					"fontface" : [ 1 ],
					"fontsize" : [ 10.0 ]
				}
,
				"default" : 				{
					"bgcolor" : [ 1.0, 0.941176, 0.803922, 1.0 ],
					"textcolor_inverse" : [ 0.0, 0.0, 0.0, 1.0 ],
					"bgfillcolor" : 					{
						"type" : "gradient",
						"color" : [ 0.290196, 0.309804, 0.301961, 1.0 ],
						"color1" : [ 0.94902, 0.992157, 1.0, 1.0 ],
						"color2" : [ 0.862745, 0.870588, 0.878431, 1.0 ],
						"angle" : 270.0,
						"proportion" : 0.39,
						"autogradient" : 0
					}
,
					"fontface" : [ 1 ],
					"fontsize" : [ 10.0 ]
				}
,
				"button" : 				{
					"bgcolor" : [ 1.0, 0.941176, 0.803922, 1.0 ]
				}
,
				"message" : 				{
					"textcolor_inverse" : [ 0.0, 0.0, 0.0, 1.0 ],
					"bgfillcolor" : 					{
						"type" : "gradient",
						"color" : [ 0.290196, 0.309804, 0.301961, 1.0 ],
						"color1" : [ 0.94902, 0.992157, 1.0, 1.0 ],
						"color2" : [ 0.862745, 0.870588, 0.878431, 1.0 ],
						"angle" : 270.0,
						"proportion" : 0.39,
						"autogradient" : 0
					}
,
					"fontface" : [ 1 ],
					"fontsize" : [ 10.0 ]
				}
,
				"parentstyle" : "",
				"multi" : 0
			}
, 			{
				"name" : "ksliderWhite",
				"default" : 				{
					"color" : [ 1.0, 1.0, 1.0, 1.0 ]
				}
,
				"parentstyle" : "",
				"multi" : 0
			}
, 			{
				"name" : "newobjBlue-1",
				"default" : 				{
					"accentcolor" : [ 0.317647, 0.654902, 0.976471, 1.0 ]
				}
,
				"parentstyle" : "",
				"multi" : 0
			}
, 			{
				"name" : "newobjBrown-1",
				"default" : 				{
					"accentcolor" : [ 0.654902, 0.572549, 0.376471, 1.0 ]
				}
,
				"parentstyle" : "",
				"multi" : 0
			}
, 			{
				"name" : "newobjCyan-1",
				"default" : 				{
					"accentcolor" : [ 0.029546, 0.773327, 0.821113, 1.0 ]
				}
,
				"parentstyle" : "",
				"multi" : 0
			}
, 			{
				"name" : "newobjGreen-1",
				"default" : 				{
					"accentcolor" : [ 0.0, 0.533333, 0.168627, 1.0 ]
				}
,
				"parentstyle" : "",
				"multi" : 0
			}
, 			{
				"name" : "newobjYellow-1",
				"default" : 				{
					"accentcolor" : [ 0.82517, 0.78181, 0.059545, 1.0 ],
					"fontsize" : [ 12.059008 ]
				}
,
				"parentstyle" : "",
				"multi" : 0
			}
, 			{
				"name" : "numberGold-1",
				"default" : 				{
					"accentcolor" : [ 0.764706, 0.592157, 0.101961, 1.0 ]
				}
,
				"parentstyle" : "",
				"multi" : 0
			}
, 			{
				"name" : "rsliderGold",
				"default" : 				{
					"bgcolor" : [ 0.764706, 0.592157, 0.101961, 1.0 ],
					"color" : [ 0.646639, 0.821777, 0.854593, 1.0 ]
				}
,
				"parentstyle" : "",
				"multi" : 0
			}
, 			{
				"name" : "tap",
				"default" : 				{
					"fontname" : [ "Lato Light" ]
				}
,
				"parentstyle" : "",
				"multi" : 0
			}
 ]
	}

}
