{
	"patcher" : 	{
		"fileversion" : 1,
		"appversion" : 		{
			"major" : 8,
			"minor" : 1,
			"revision" : 3,
			"architecture" : "x64",
			"modernui" : 1
		}
,
		"classnamespace" : "box",
		"rect" : [ 34.0, 56.0, 1724.0, 1030.0 ],
		"bglocked" : 0,
		"openinpresentation" : 1,
		"default_fontsize" : 12.0,
		"default_fontface" : 0,
		"default_fontname" : "Arial",
		"gridonopen" : 1,
		"gridsize" : [ 15.0, 15.0 ],
		"gridsnaponopen" : 1,
		"objectsnaponopen" : 1,
		"statusbarvisible" : 2,
		"toolbarvisible" : 1,
		"lefttoolbarpinned" : 0,
		"toptoolbarpinned" : 0,
		"righttoolbarpinned" : 0,
		"bottomtoolbarpinned" : 0,
		"toolbars_unpinned_last_save" : 0,
		"tallnewobj" : 0,
		"boxanimatetime" : 200,
		"enablehscroll" : 1,
		"enablevscroll" : 1,
		"devicewidth" : 0.0,
		"description" : "",
		"digest" : "",
		"tags" : "",
		"style" : "",
		"subpatcher_template" : "",
		"boxes" : [ 			{
				"box" : 				{
					"id" : "obj-97",
					"linecount" : 8,
					"maxclass" : "comment",
					"numinlets" : 1,
					"numoutlets" : 0,
					"patching_rect" : [ 607.608684062957764, 734.782594680786133, 166.304347515106201, 114.0 ],
					"text" : "record system output to a file in root directory (where nnirror.maxpat lives).\n\nthe file will be named according to the current time and date e.g \"_6_21_2020_22_6_3.wav\""
				}

			}
, 			{
				"box" : 				{
					"id" : "obj-93",
					"maxclass" : "newobj",
					"numinlets" : 2,
					"numoutlets" : 2,
					"outlettype" : [ "int", "bang" ],
					"patcher" : 					{
						"fileversion" : 1,
						"appversion" : 						{
							"major" : 8,
							"minor" : 1,
							"revision" : 3,
							"architecture" : "x64",
							"modernui" : 1
						}
,
						"classnamespace" : "box",
						"rect" : [ 0.0, 0.0, 640.0, 480.0 ],
						"bglocked" : 0,
						"openinpresentation" : 0,
						"default_fontsize" : 12.0,
						"default_fontface" : 0,
						"default_fontname" : "Arial",
						"gridonopen" : 1,
						"gridsize" : [ 15.0, 15.0 ],
						"gridsnaponopen" : 1,
						"objectsnaponopen" : 1,
						"statusbarvisible" : 2,
						"toolbarvisible" : 1,
						"lefttoolbarpinned" : 0,
						"toptoolbarpinned" : 0,
						"righttoolbarpinned" : 0,
						"bottomtoolbarpinned" : 0,
						"toolbars_unpinned_last_save" : 0,
						"tallnewobj" : 0,
						"boxanimatetime" : 200,
						"enablehscroll" : 1,
						"enablevscroll" : 1,
						"devicewidth" : 0.0,
						"description" : "",
						"digest" : "",
						"tags" : "",
						"style" : "",
						"subpatcher_template" : "",
						"boxes" : [ 							{
								"box" : 								{
									"id" : "obj-88",
									"maxclass" : "newobj",
									"numinlets" : 2,
									"numoutlets" : 1,
									"outlettype" : [ "int" ],
									"patching_rect" : [ 50.0, 194.097801923751831, 29.5, 22.0 ],
									"text" : "0"
								}

							}
, 							{
								"box" : 								{
									"id" : "obj-87",
									"maxclass" : "newobj",
									"numinlets" : 1,
									"numoutlets" : 2,
									"outlettype" : [ "int", "bang" ],
									"patching_rect" : [ 85.099799394607544, 185.586133003234863, 32.0, 22.0 ],
									"text" : "t 1 b"
								}

							}
, 							{
								"box" : 								{
									"id" : "obj-86",
									"maxclass" : "newobj",
									"numinlets" : 3,
									"numoutlets" : 3,
									"outlettype" : [ "bang", "bang", "" ],
									"patching_rect" : [ 62.599799394607544, 145.406396389007568, 44.0, 22.0 ],
									"text" : "sel 0 1"
								}

							}
, 							{
								"box" : 								{
									"id" : "obj-79",
									"maxclass" : "newobj",
									"numinlets" : 1,
									"numoutlets" : 5,
									"outlettype" : [ "", "", "", "", "" ],
									"patching_rect" : [ 115.882408380508423, 495.493331432342529, 144.0, 22.0 ],
									"text" : "regexp \" \\\\.\" @substitute ."
								}

							}
, 							{
								"box" : 								{
									"id" : "obj-75",
									"maxclass" : "message",
									"numinlets" : 2,
									"numoutlets" : 1,
									"outlettype" : [ "" ],
									"patching_rect" : [ 139.215741713841794, 402.015072345733643, 69.0, 22.0 ],
									"text" : "prepend $1"
								}

							}
, 							{
								"box" : 								{
									"id" : "obj-73",
									"maxclass" : "message",
									"numinlets" : 2,
									"numoutlets" : 1,
									"outlettype" : [ "" ],
									"patching_rect" : [ 52.099799394607544, 402.015072345733643, 65.0, 22.0 ],
									"text" : "append $1"
								}

							}
, 							{
								"box" : 								{
									"id" : "obj-69",
									"maxclass" : "newobj",
									"numinlets" : 1,
									"numoutlets" : 4,
									"outlettype" : [ "bang", "open", ".wav", "" ],
									"patching_rect" : [ 115.882408380508423, 349.62373960018158, 89.0, 22.0 ],
									"text" : "t b open .wav s"
								}

							}
, 							{
								"box" : 								{
									"id" : "obj-68",
									"linecount" : 2,
									"maxclass" : "message",
									"numinlets" : 2,
									"numoutlets" : 1,
									"outlettype" : [ "" ],
									"patching_rect" : [ 115.882408380508423, 443.183209419250488, 177.0, 35.0 ],
									"text" : "open _6_21_2020_22_10_19 .wav"
								}

							}
, 							{
								"box" : 								{
									"id" : "obj-51",
									"maxclass" : "newobj",
									"numinlets" : 1,
									"numoutlets" : 5,
									"outlettype" : [ "", "", "", "", "" ],
									"patching_rect" : [ 115.882408380508423, 310.957075476646423, 137.0, 22.0 ],
									"text" : "regexp \" \" @substitute _"
								}

							}
, 							{
								"box" : 								{
									"id" : "obj-39",
									"maxclass" : "newobj",
									"numinlets" : 2,
									"numoutlets" : 2,
									"outlettype" : [ "", "" ],
									"patching_rect" : [ 115.882408380508423, 279.081682205200195, 39.0, 22.0 ],
									"text" : "zl join"
								}

							}
, 							{
								"box" : 								{
									"id" : "obj-35",
									"maxclass" : "message",
									"numinlets" : 2,
									"numoutlets" : 1,
									"outlettype" : [ "" ],
									"patching_rect" : [ 115.882408380508423, 212.341162919998169, 61.0, 22.0 ],
									"text" : "time, date"
								}

							}
, 							{
								"box" : 								{
									"id" : "obj-21",
									"maxclass" : "newobj",
									"numinlets" : 1,
									"numoutlets" : 3,
									"outlettype" : [ "list", "list", "int" ],
									"patching_rect" : [ 115.882408380508423, 241.688988447189331, 59.0, 22.0 ],
									"text" : "date"
								}

							}
, 							{
								"box" : 								{
									"id" : "obj-55",
									"maxclass" : "newobj",
									"numinlets" : 1,
									"numoutlets" : 1,
									"outlettype" : [ "bang" ],
									"patching_rect" : [ 148.382408380508423, 100.0, 22.0, 22.0 ],
									"text" : "t b"
								}

							}
, 							{
								"box" : 								{
									"comment" : "",
									"id" : "obj-89",
									"index" : 1,
									"maxclass" : "inlet",
									"numinlets" : 0,
									"numoutlets" : 1,
									"outlettype" : [ "int" ],
									"patching_rect" : [ 62.599792578124948, 39.999981888000434, 30.0, 30.0 ]
								}

							}
, 							{
								"box" : 								{
									"comment" : "",
									"id" : "obj-90",
									"index" : 2,
									"maxclass" : "inlet",
									"numinlets" : 0,
									"numoutlets" : 1,
									"outlettype" : [ "" ],
									"patching_rect" : [ 148.382385578124968, 39.999981888000434, 30.0, 30.0 ]
								}

							}
, 							{
								"box" : 								{
									"comment" : "",
									"id" : "obj-91",
									"index" : 1,
									"maxclass" : "outlet",
									"numinlets" : 1,
									"numoutlets" : 0,
									"patching_rect" : [ 77.660705578124976, 577.493389888000593, 30.0, 30.0 ]
								}

							}
, 							{
								"box" : 								{
									"comment" : "",
									"id" : "obj-92",
									"index" : 2,
									"maxclass" : "outlet",
									"numinlets" : 1,
									"numoutlets" : 0,
									"patching_rect" : [ 148.382385578124968, 577.493389888000593, 30.0, 30.0 ]
								}

							}
 ],
						"lines" : [ 							{
								"patchline" : 								{
									"destination" : [ "obj-39", 1 ],
									"source" : [ "obj-21", 1 ]
								}

							}
, 							{
								"patchline" : 								{
									"destination" : [ "obj-39", 0 ],
									"source" : [ "obj-21", 0 ]
								}

							}
, 							{
								"patchline" : 								{
									"destination" : [ "obj-21", 0 ],
									"source" : [ "obj-35", 0 ]
								}

							}
, 							{
								"patchline" : 								{
									"destination" : [ "obj-51", 0 ],
									"source" : [ "obj-39", 0 ]
								}

							}
, 							{
								"patchline" : 								{
									"destination" : [ "obj-69", 0 ],
									"source" : [ "obj-51", 0 ]
								}

							}
, 							{
								"patchline" : 								{
									"destination" : [ "obj-92", 0 ],
									"source" : [ "obj-55", 0 ]
								}

							}
, 							{
								"patchline" : 								{
									"destination" : [ "obj-79", 0 ],
									"source" : [ "obj-68", 0 ]
								}

							}
, 							{
								"patchline" : 								{
									"destination" : [ "obj-68", 1 ],
									"midpoints" : [ 195.382408380508423, 385.167246580123901, 283.382408380508423, 385.167246580123901 ],
									"source" : [ "obj-69", 3 ]
								}

							}
, 							{
								"patchline" : 								{
									"destination" : [ "obj-68", 0 ],
									"source" : [ "obj-69", 0 ]
								}

							}
, 							{
								"patchline" : 								{
									"destination" : [ "obj-73", 0 ],
									"midpoints" : [ 172.04907504717508, 382.993333578109741, 61.599799394607544, 382.993333578109741 ],
									"source" : [ "obj-69", 2 ]
								}

							}
, 							{
								"patchline" : 								{
									"destination" : [ "obj-75", 0 ],
									"source" : [ "obj-69", 1 ]
								}

							}
, 							{
								"patchline" : 								{
									"destination" : [ "obj-68", 0 ],
									"midpoints" : [ 61.599799394607544, 434.080289125442505, 125.382408380508423, 434.080289125442505 ],
									"source" : [ "obj-73", 0 ]
								}

							}
, 							{
								"patchline" : 								{
									"destination" : [ "obj-68", 0 ],
									"midpoints" : [ 148.715741713841794, 433.536810874938965, 125.382408380508423, 433.536810874938965 ],
									"source" : [ "obj-75", 0 ]
								}

							}
, 							{
								"patchline" : 								{
									"destination" : [ "obj-91", 0 ],
									"source" : [ "obj-79", 0 ]
								}

							}
, 							{
								"patchline" : 								{
									"destination" : [ "obj-87", 0 ],
									"source" : [ "obj-86", 1 ]
								}

							}
, 							{
								"patchline" : 								{
									"destination" : [ "obj-88", 0 ],
									"source" : [ "obj-86", 0 ]
								}

							}
, 							{
								"patchline" : 								{
									"destination" : [ "obj-35", 0 ],
									"source" : [ "obj-87", 1 ]
								}

							}
, 							{
								"patchline" : 								{
									"destination" : [ "obj-91", 0 ],
									"source" : [ "obj-87", 0 ]
								}

							}
, 							{
								"patchline" : 								{
									"destination" : [ "obj-91", 0 ],
									"source" : [ "obj-88", 0 ]
								}

							}
, 							{
								"patchline" : 								{
									"destination" : [ "obj-86", 0 ],
									"source" : [ "obj-89", 0 ]
								}

							}
, 							{
								"patchline" : 								{
									"destination" : [ "obj-55", 0 ],
									"source" : [ "obj-90", 0 ]
								}

							}
 ]
					}
,
					"patching_rect" : [ 536.834971006042451, 790.919689304885878, 53.0, 22.0 ],
					"saved_object_attributes" : 					{
						"description" : "",
						"digest" : "",
						"globalpatchername" : "",
						"tags" : ""
					}
,
					"text" : "p record"
				}

			}
, 			{
				"box" : 				{
					"id" : "obj-5",
					"maxclass" : "newobj",
					"numinlets" : 1,
					"numoutlets" : 1,
					"outlettype" : [ "" ],
					"patching_rect" : [ 299.527727842330933, 777.08695650100708, 132.0, 22.0 ],
					"text" : "loadmess samptype 24"
				}

			}
, 			{
				"box" : 				{
					"bgcolor" : [ 0.301961, 0.301961, 0.301961, 1.0 ],
					"bgcolor2" : [ 0.301961, 0.301961, 0.301961, 1.0 ],
					"bgfillcolor_angle" : 270.0,
					"bgfillcolor_autogradient" : 0.0,
					"bgfillcolor_color" : [ 0.568627450980392, 0.0, 0.0, 1.0 ],
					"bgfillcolor_color1" : [ 0.301961, 0.301961, 0.301961, 1.0 ],
					"bgfillcolor_color2" : [ 0.2, 0.2, 0.2, 1.0 ],
					"bgfillcolor_proportion" : 0.5,
					"bgfillcolor_type" : "color",
					"fontsize" : 6.0,
					"gradient" : 1,
					"id" : "obj-48",
					"maxclass" : "message",
					"numinlets" : 2,
					"numoutlets" : 1,
					"outlettype" : [ "" ],
					"patching_rect" : [ 570.834971006042451, 750.550125122070312, 30.0, 15.0 ],
					"presentation" : 1,
					"presentation_rect" : [ 523.057102918624878, 375.252071380615234, 17.699699699878693, 15.0 ],
					"text" : "rec"
				}

			}
, 			{
				"box" : 				{
					"id" : "obj-13",
					"maxclass" : "toggle",
					"numinlets" : 1,
					"numoutlets" : 1,
					"outlettype" : [ "int" ],
					"parameter_enable" : 0,
					"patching_rect" : [ 536.834971006042451, 746.050125122070312, 24.0, 24.0 ],
					"presentation" : 1,
					"presentation_rect" : [ 541.293219208717346, 377.053873181343079, 11.764631986618042, 11.764631986618042 ]
				}

			}
, 			{
				"box" : 				{
					"bgmode" : 0,
					"border" : 0,
					"clickthrough" : 0,
					"enablehscroll" : 0,
					"enablevscroll" : 0,
					"id" : "obj-3",
					"lockeddragscroll" : 0,
					"maxclass" : "bpatcher",
					"name" : "2019_thruzerofm.maxpat",
					"numinlets" : 1,
					"numoutlets" : 1,
					"offset" : [ 0.0, 0.0 ],
					"outlettype" : [ "signal" ],
					"patching_rect" : [ 185.8585205078125, 992.975152015686035, 107.666664123535156, 48.0 ],
					"presentation" : 1,
					"presentation_rect" : [ 419.868544578552246, 349.950294554233551, 133.356109619140625, 44.785903871059418 ],
					"varname" : "pfftwtf",
					"viewvisibility" : 1
				}

			}
, 			{
				"box" : 				{
					"bgmode" : 0,
					"border" : 0,
					"clickthrough" : 0,
					"enablehscroll" : 0,
					"enablevscroll" : 0,
					"id" : "obj-25",
					"lockeddragscroll" : 0,
					"maxclass" : "bpatcher",
					"name" : "valhalla.maxpat",
					"numinlets" : 1,
					"numoutlets" : 2,
					"offset" : [ 0.0, 0.0 ],
					"outlettype" : [ "signal", "signal" ],
					"patching_rect" : [ 1502.0247802734375, 1061.121437788009644, 122.0, 121.333335876464844 ],
					"presentation" : 1,
					"presentation_rect" : [ 421.155928611755371, 215.770982265472412, 132.0687255859375, 137.667257368564606 ],
					"varname" : "genverb2019",
					"viewvisibility" : 1
				}

			}
, 			{
				"box" : 				{
					"bgmode" : 0,
					"border" : 0,
					"clickthrough" : 0,
					"enablehscroll" : 0,
					"enablevscroll" : 0,
					"id" : "obj-1",
					"lockeddragscroll" : 0,
					"maxclass" : "bpatcher",
					"name" : "argotlunar.maxpat",
					"numinlets" : 1,
					"numoutlets" : 1,
					"offset" : [ 0.0, 0.0 ],
					"outlettype" : [ "signal" ],
					"patching_rect" : [ 860.623046875, 1019.707931160926819, 106.0, 116.0 ],
					"presentation" : 1,
					"presentation_rect" : [ 421.155928611755371, 0.900900900363922, 132.0687255859375, 222.133636474609375 ],
					"varname" : "clouds",
					"viewvisibility" : 1
				}

			}
, 			{
				"box" : 				{
					"id" : "obj-84",
					"linecount" : 4,
					"maxclass" : "newobj",
					"numinlets" : 2,
					"numoutlets" : 1,
					"outlettype" : [ "signal" ],
					"patcher" : 					{
						"fileversion" : 1,
						"appversion" : 						{
							"major" : 8,
							"minor" : 1,
							"revision" : 3,
							"architecture" : "x64",
							"modernui" : 1
						}
,
						"classnamespace" : "box",
						"rect" : [ 59.0, 81.0, 640.0, 480.0 ],
						"bglocked" : 0,
						"openinpresentation" : 0,
						"default_fontsize" : 12.0,
						"default_fontface" : 0,
						"default_fontname" : "Arial",
						"gridonopen" : 1,
						"gridsize" : [ 15.0, 15.0 ],
						"gridsnaponopen" : 1,
						"objectsnaponopen" : 1,
						"statusbarvisible" : 2,
						"toolbarvisible" : 1,
						"lefttoolbarpinned" : 0,
						"toptoolbarpinned" : 0,
						"righttoolbarpinned" : 0,
						"bottomtoolbarpinned" : 0,
						"toolbars_unpinned_last_save" : 0,
						"tallnewobj" : 0,
						"boxanimatetime" : 200,
						"enablehscroll" : 1,
						"enablevscroll" : 1,
						"devicewidth" : 0.0,
						"description" : "",
						"digest" : "",
						"tags" : "",
						"style" : "",
						"subpatcher_template" : "",
						"visible" : 1,
						"boxes" : [ 							{
								"box" : 								{
									"id" : "obj-51",
									"maxclass" : "newobj",
									"numinlets" : 2,
									"numoutlets" : 1,
									"outlettype" : [ "signal" ],
									"patching_rect" : [ 50.0, 100.0, 40.0, 22.0 ],
									"text" : "*~ 0.9"
								}

							}
, 							{
								"box" : 								{
									"id" : "obj-53",
									"maxclass" : "newobj",
									"numinlets" : 2,
									"numoutlets" : 1,
									"outlettype" : [ "signal" ],
									"patching_rect" : [ 108.477272570133209, 100.0, 40.0, 22.0 ],
									"text" : "*~ 0.1"
								}

							}
, 							{
								"box" : 								{
									"comment" : "",
									"id" : "obj-81",
									"index" : 1,
									"maxclass" : "inlet",
									"numinlets" : 0,
									"numoutlets" : 1,
									"outlettype" : [ "signal" ],
									"patching_rect" : [ 50.000000551193239, 40.000012011646277, 30.0, 30.0 ]
								}

							}
, 							{
								"box" : 								{
									"comment" : "",
									"id" : "obj-82",
									"index" : 2,
									"maxclass" : "inlet",
									"numinlets" : 0,
									"numoutlets" : 1,
									"outlettype" : [ "signal" ],
									"patching_rect" : [ 108.477295551193265, 40.000012011646277, 30.0, 30.0 ]
								}

							}
, 							{
								"box" : 								{
									"comment" : "",
									"id" : "obj-83",
									"index" : 1,
									"maxclass" : "outlet",
									"numinlets" : 1,
									"numoutlets" : 0,
									"patching_rect" : [ 73.238648551193251, 182.000012011646277, 30.0, 30.0 ]
								}

							}
 ],
						"lines" : [ 							{
								"patchline" : 								{
									"destination" : [ "obj-83", 0 ],
									"source" : [ "obj-51", 0 ]
								}

							}
, 							{
								"patchline" : 								{
									"destination" : [ "obj-83", 0 ],
									"source" : [ "obj-53", 0 ]
								}

							}
, 							{
								"patchline" : 								{
									"destination" : [ "obj-51", 0 ],
									"source" : [ "obj-81", 0 ]
								}

							}
, 							{
								"patchline" : 								{
									"destination" : [ "obj-53", 0 ],
									"source" : [ "obj-82", 0 ]
								}

							}
 ]
					}
,
					"patching_rect" : [ 530.313232421875, 626.488389253616333, 43.458165407180786, 62.0 ],
					"saved_object_attributes" : 					{
						"description" : "",
						"digest" : "",
						"globalpatchername" : "",
						"tags" : ""
					}
,
					"text" : "p not_hard_pan_R"
				}

			}
, 			{
				"box" : 				{
					"id" : "obj-80",
					"linecount" : 4,
					"maxclass" : "newobj",
					"numinlets" : 2,
					"numoutlets" : 1,
					"outlettype" : [ "signal" ],
					"patcher" : 					{
						"fileversion" : 1,
						"appversion" : 						{
							"major" : 8,
							"minor" : 1,
							"revision" : 3,
							"architecture" : "x64",
							"modernui" : 1
						}
,
						"classnamespace" : "box",
						"rect" : [ 59.0, 81.0, 640.0, 480.0 ],
						"bglocked" : 0,
						"openinpresentation" : 0,
						"default_fontsize" : 12.0,
						"default_fontface" : 0,
						"default_fontname" : "Arial",
						"gridonopen" : 1,
						"gridsize" : [ 15.0, 15.0 ],
						"gridsnaponopen" : 1,
						"objectsnaponopen" : 1,
						"statusbarvisible" : 2,
						"toolbarvisible" : 1,
						"lefttoolbarpinned" : 0,
						"toptoolbarpinned" : 0,
						"righttoolbarpinned" : 0,
						"bottomtoolbarpinned" : 0,
						"toolbars_unpinned_last_save" : 0,
						"tallnewobj" : 0,
						"boxanimatetime" : 200,
						"enablehscroll" : 1,
						"enablevscroll" : 1,
						"devicewidth" : 0.0,
						"description" : "",
						"digest" : "",
						"tags" : "",
						"style" : "",
						"subpatcher_template" : "",
						"boxes" : [ 							{
								"box" : 								{
									"id" : "obj-24",
									"maxclass" : "newobj",
									"numinlets" : 2,
									"numoutlets" : 1,
									"outlettype" : [ "signal" ],
									"patching_rect" : [ 99.0, 100.0, 40.0, 22.0 ],
									"text" : "*~ 0.1"
								}

							}
, 							{
								"box" : 								{
									"id" : "obj-18",
									"maxclass" : "newobj",
									"numinlets" : 2,
									"numoutlets" : 1,
									"outlettype" : [ "signal" ],
									"patching_rect" : [ 50.0, 100.0, 40.0, 22.0 ],
									"text" : "*~ 0.9"
								}

							}
, 							{
								"box" : 								{
									"comment" : "",
									"id" : "obj-77",
									"index" : 1,
									"maxclass" : "inlet",
									"numinlets" : 0,
									"numoutlets" : 1,
									"outlettype" : [ "signal" ],
									"patching_rect" : [ 49.999999726562521, 39.999983828620884, 30.0, 30.0 ]
								}

							}
, 							{
								"box" : 								{
									"comment" : "",
									"id" : "obj-78",
									"index" : 2,
									"maxclass" : "inlet",
									"numinlets" : 0,
									"numoutlets" : 1,
									"outlettype" : [ "signal" ],
									"patching_rect" : [ 98.999999726562521, 39.999983828620884, 30.0, 30.0 ]
								}

							}
, 							{
								"box" : 								{
									"comment" : "",
									"id" : "obj-79",
									"index" : 1,
									"maxclass" : "outlet",
									"numinlets" : 1,
									"numoutlets" : 0,
									"patching_rect" : [ 68.499999726562521, 181.999983828620884, 30.0, 30.0 ]
								}

							}
 ],
						"lines" : [ 							{
								"patchline" : 								{
									"destination" : [ "obj-79", 0 ],
									"source" : [ "obj-18", 0 ]
								}

							}
, 							{
								"patchline" : 								{
									"destination" : [ "obj-79", 0 ],
									"source" : [ "obj-24", 0 ]
								}

							}
, 							{
								"patchline" : 								{
									"destination" : [ "obj-18", 0 ],
									"source" : [ "obj-77", 0 ]
								}

							}
, 							{
								"patchline" : 								{
									"destination" : [ "obj-24", 0 ],
									"source" : [ "obj-78", 0 ]
								}

							}
 ]
					}
,
					"patching_rect" : [ 450.6810302734375, 629.545448370262193, 41.795455157756805, 62.0 ],
					"saved_object_attributes" : 					{
						"description" : "",
						"digest" : "",
						"globalpatchername" : "",
						"tags" : ""
					}
,
					"text" : "p not_hard_pan_L"
				}

			}
, 			{
				"box" : 				{
					"fontname" : "Arial",
					"fontsize" : 13.0,
					"id" : "obj-20",
					"maxclass" : "newobj",
					"numinlets" : 2,
					"numoutlets" : 1,
					"outlettype" : [ "signal" ],
					"patching_rect" : [ 450.647705078125, 825.778362035751343, 74.0, 23.0 ],
					"text" : "sfrecord~ 2"
				}

			}
, 			{
				"box" : 				{
					"id" : "obj-12",
					"maxclass" : "newobj",
					"numinlets" : 1,
					"numoutlets" : 1,
					"outlettype" : [ "signal" ],
					"patching_rect" : [ 340.329742431640625, 522.4215087890625, 95.0, 22.0 ],
					"text" : "mixer_log_scale"
				}

			}
, 			{
				"box" : 				{
					"id" : "obj-46",
					"maxclass" : "newobj",
					"numinlets" : 1,
					"numoutlets" : 1,
					"outlettype" : [ "" ],
					"patching_rect" : [ 340.329742431640625, 456.5, 70.0, 22.0 ],
					"text" : "loadmess 1"
				}

			}
, 			{
				"box" : 				{
					"fontface" : 1,
					"id" : "obj-45",
					"linecount" : 12,
					"maxclass" : "comment",
					"numinlets" : 1,
					"numoutlets" : 0,
					"patching_rect" : [ 202.525924682617188, 138.687454223632812, 20.0, 167.0 ],
					"presentation" : 1,
					"presentation_rect" : [ 76.943458557128906, 372.260955810546875, 119.262649536132812, 20.0 ],
					"text" : "MASTER VOLUME",
					"textcolor" : [ 1.0, 1.0, 1.0, 0.800000011920929 ],
					"textjustification" : 1
				}

			}
, 			{
				"box" : 				{
					"id" : "obj-28",
					"maxclass" : "newobj",
					"numinlets" : 2,
					"numoutlets" : 1,
					"outlettype" : [ "signal" ],
					"patching_rect" : [ 530.313232421875, 576.2891845703125, 30.0, 22.0 ],
					"text" : "*~ 1"
				}

			}
, 			{
				"box" : 				{
					"id" : "obj-27",
					"maxclass" : "newobj",
					"numinlets" : 2,
					"numoutlets" : 1,
					"outlettype" : [ "signal" ],
					"patching_rect" : [ 450.6810302734375, 576.2891845703125, 30.0, 22.0 ],
					"text" : "*~ 1"
				}

			}
, 			{
				"box" : 				{
					"contdata" : 1,
					"id" : "obj-17",
					"maxclass" : "multislider",
					"numinlets" : 1,
					"numoutlets" : 2,
					"orientation" : 0,
					"outlettype" : [ "", "" ],
					"parameter_enable" : 0,
					"patching_rect" : [ 340.329742431640625, 492.4215087890625, 79.857147216796875, 21.948051452636719 ],
					"presentation" : 1,
					"presentation_rect" : [ 0.793650805950165, 370.7679443359375, 312.476806640625, 23.968254089355469 ],
					"setminmax" : [ 0.0, 1.0 ],
					"slidercolor" : [ 0.952941176470588, 0.564705882352941, 0.098039215686275, 0.74 ],
					"thickness" : 10,
					"varname" : "master_volume"
				}

			}
, 			{
				"box" : 				{
					"bgmode" : 0,
					"border" : 0,
					"clickthrough" : 0,
					"enablehscroll" : 0,
					"enablevscroll" : 0,
					"id" : "obj-11",
					"lockeddragscroll" : 0,
					"maxclass" : "bpatcher",
					"name" : "_lpg2_outer.maxpat",
					"numinlets" : 1,
					"numoutlets" : 1,
					"offset" : [ 0.0, 0.0 ],
					"outlettype" : [ "signal" ],
					"patching_rect" : [ 1502.0247802734375, 1262.5069580078125, 104.0, 61.0 ],
					"presentation" : 1,
					"presentation_rect" : [ 105.84246826171875, 311.7362060546875, 104.0, 61.0 ],
					"varname" : "reverb_lpg",
					"viewvisibility" : 1
				}

			}
, 			{
				"box" : 				{
					"bgmode" : 0,
					"border" : 0,
					"clickthrough" : 0,
					"enablehscroll" : 0,
					"enablevscroll" : 0,
					"id" : "obj-10",
					"lockeddragscroll" : 0,
					"maxclass" : "bpatcher",
					"name" : "_lpg2_outer.maxpat",
					"numinlets" : 1,
					"numoutlets" : 1,
					"offset" : [ 0.0, 0.0 ],
					"outlettype" : [ "signal" ],
					"patching_rect" : [ 860.623046875, 1262.5069580078125, 104.0, 61.0 ],
					"presentation" : 1,
					"presentation_rect" : [ 0.0, 311.7362060546875, 104.0, 61.0 ],
					"varname" : "grain_lpg",
					"viewvisibility" : 1
				}

			}
, 			{
				"box" : 				{
					"bgmode" : 0,
					"border" : 0,
					"clickthrough" : 0,
					"enablehscroll" : 0,
					"enablevscroll" : 0,
					"id" : "obj-8",
					"lockeddragscroll" : 0,
					"maxclass" : "bpatcher",
					"name" : "_lpg2_outer.maxpat",
					"numinlets" : 1,
					"numoutlets" : 1,
					"offset" : [ 0.0, 0.0 ],
					"outlettype" : [ "signal" ],
					"patching_rect" : [ 185.8585205078125, 1127.3341064453125, 104.0, 61.0 ],
					"presentation" : 1,
					"presentation_rect" : [ 210.84246826171875, 311.7362060546875, 104.0, 61.0 ],
					"varname" : "fm_lpg",
					"viewvisibility" : 1
				}

			}
, 			{
				"box" : 				{
					"id" : "obj-4",
					"maxclass" : "newobj",
					"numinlets" : 1,
					"numoutlets" : 1,
					"outlettype" : [ "signal" ],
					"patching_rect" : [ 185.8585205078125, 1087.86376953125, 34.0, 22.0 ],
					"text" : "limi~"
				}

			}
, 			{
				"box" : 				{
					"bgmode" : 0,
					"border" : 0,
					"clickthrough" : 0,
					"enablehscroll" : 0,
					"enablevscroll" : 0,
					"id" : "obj-70",
					"lockeddragscroll" : 0,
					"maxclass" : "bpatcher",
					"name" : "spectcomptest.maxpat",
					"numinlets" : 2,
					"numoutlets" : 2,
					"offset" : [ 0.0, 0.0 ],
					"outlettype" : [ "signal", "signal" ],
					"patching_rect" : [ 541.37554931640625, 456.5, 124.4202880859375, 38.689918518066406 ],
					"presentation" : 1,
					"presentation_rect" : [ 315.84246826171875, 311.7362060546875, 344.15753173828125, 83.048858642578125 ],
					"varname" : "spectcomptest",
					"viewvisibility" : 1
				}

			}
, 			{
				"box" : 				{
					"bgmode" : 0,
					"border" : 0,
					"clickthrough" : 0,
					"enablehscroll" : 0,
					"enablevscroll" : 0,
					"id" : "obj-52",
					"lockeddragscroll" : 0,
					"maxclass" : "bpatcher",
					"name" : "vocodefx.maxpat",
					"numinlets" : 2,
					"numoutlets" : 1,
					"offset" : [ 0.0, 0.0 ],
					"outlettype" : [ "signal" ],
					"patching_rect" : [ 860.623046875, 942.637635588645935, 107.666664123535156, 60.666664123535156 ],
					"presentation" : 1,
					"presentation_rect" : [ 0.84246826171875, 231.035064697265625, 106.0, 78.0 ],
					"varname" : "grain_vocoder",
					"viewvisibility" : 1
				}

			}
, 			{
				"box" : 				{
					"bgmode" : 0,
					"border" : 0,
					"clickthrough" : 0,
					"enablehscroll" : 0,
					"enablevscroll" : 0,
					"id" : "obj-43",
					"lockeddragscroll" : 0,
					"maxclass" : "bpatcher",
					"name" : "vocodefx.maxpat",
					"numinlets" : 2,
					"numoutlets" : 1,
					"offset" : [ 0.0, 0.0 ],
					"outlettype" : [ "signal" ],
					"patching_rect" : [ 185.8585205078125, 917.283981323242188, 107.666664123535156, 60.666664123535156 ],
					"presentation" : 1,
					"presentation_rect" : [ 210.84246826171875, 231.035064697265625, 106.0, 78.0 ],
					"varname" : "FFT_vocoder",
					"viewvisibility" : 1
				}

			}
, 			{
				"box" : 				{
					"bgmode" : 0,
					"border" : 0,
					"clickthrough" : 0,
					"enablehscroll" : 0,
					"enablevscroll" : 0,
					"id" : "obj-26",
					"lockeddragscroll" : 0,
					"maxclass" : "bpatcher",
					"name" : "vocodefx.maxpat",
					"numinlets" : 2,
					"numoutlets" : 1,
					"offset" : [ 0.0, 0.0 ],
					"outlettype" : [ "signal" ],
					"patching_rect" : [ 1502.0247802734375, 968.287225008010864, 107.666664123535156, 60.666664123535156 ],
					"presentation" : 1,
					"presentation_rect" : [ 105.84246826171875, 231.035064697265625, 106.0, 78.0 ],
					"varname" : "reverb_vocoder",
					"viewvisibility" : 1
				}

			}
, 			{
				"box" : 				{
					"id" : "obj-14",
					"maxclass" : "newobj",
					"numinlets" : 1,
					"numoutlets" : 1,
					"outlettype" : [ "signal" ],
					"patching_rect" : [ 1502.0247802734375, 1229.5, 34.0, 22.0 ],
					"text" : "limi~"
				}

			}
, 			{
				"box" : 				{
					"id" : "obj-41",
					"maxclass" : "newobj",
					"numinlets" : 1,
					"numoutlets" : 1,
					"outlettype" : [ "signal" ],
					"patching_rect" : [ 860.623046875, 1169.5, 34.0, 22.0 ],
					"text" : "limi~"
				}

			}
, 			{
				"box" : 				{
					"id" : "obj-7",
					"maxclass" : "newobj",
					"numinlets" : 3,
					"numoutlets" : 1,
					"outlettype" : [ "signal" ],
					"patching_rect" : [ 530.313232421875, 522.4215087890625, 64.0, 22.0 ],
					"text" : "clip~ -1. 1."
				}

			}
, 			{
				"box" : 				{
					"id" : "obj-2",
					"maxclass" : "newobj",
					"numinlets" : 3,
					"numoutlets" : 1,
					"outlettype" : [ "signal" ],
					"patching_rect" : [ 450.6810302734375, 522.4215087890625, 64.0, 22.0 ],
					"text" : "clip~ -1. 1."
				}

			}
, 			{
				"box" : 				{
					"id" : "obj-42",
					"maxclass" : "newobj",
					"numinlets" : 1,
					"numoutlets" : 0,
					"patching_rect" : [ 185.6085205078125, 1203.7423095703125, 103.0, 22.0 ],
					"text" : "send~ spectralfxL"
				}

			}
, 			{
				"box" : 				{
					"comment" : "connects to main autopattr for inclusion/exclusion",
					"id" : "obj-72",
					"index" : 1,
					"maxclass" : "inlet",
					"numinlets" : 0,
					"numoutlets" : 1,
					"outlettype" : [ "" ],
					"patching_rect" : [ 185.8585205078125, 25.000017166137695, 30.0, 30.0 ]
				}

			}
, 			{
				"box" : 				{
					"id" : "obj-60",
					"maxclass" : "newobj",
					"numinlets" : 2,
					"numoutlets" : 1,
					"outlettype" : [ "signal" ],
					"patching_rect" : [ 680.91650390625, 325.001556396484375, 30.0, 22.0 ],
					"text" : "*~ 1"
				}

			}
, 			{
				"box" : 				{
					"id" : "obj-29",
					"maxclass" : "newobj",
					"numinlets" : 19,
					"numoutlets" : 1,
					"outlettype" : [ "multichannelsignal" ],
					"patching_rect" : [ 452.014862060546875, 360.576019287109375, 208.0, 22.0 ],
					"text" : "mc.pack~ 19"
				}

			}
, 			{
				"box" : 				{
					"id" : "obj-31",
					"maxclass" : "newobj",
					"numinlets" : 1,
					"numoutlets" : 0,
					"patching_rect" : [ 499.647705078125, 706.16674792766571, 51.0, 22.0 ],
					"text" : "dac~ 2"
				}

			}
, 			{
				"box" : 				{
					"id" : "obj-32",
					"maxclass" : "newobj",
					"numinlets" : 1,
					"numoutlets" : 0,
					"patching_rect" : [ 429.6810302734375, 706.16674792766571, 51.0, 22.0 ],
					"text" : "dac~ 1"
				}

			}
, 			{
				"box" : 				{
					"id" : "obj-96",
					"maxclass" : "newobj",
					"numinlets" : 1,
					"numoutlets" : 1,
					"outlettype" : [ "signal" ],
					"patching_rect" : [ 860.623046875, 904.66680908203125, 45.0, 22.0 ],
					"text" : "hipass"
				}

			}
, 			{
				"box" : 				{
					"id" : "obj-95",
					"maxclass" : "newobj",
					"numinlets" : 1,
					"numoutlets" : 1,
					"outlettype" : [ "signal" ],
					"patching_rect" : [ 1502.0247802734375, 915.13360595703125, 45.0, 22.0 ],
					"text" : "hipass"
				}

			}
, 			{
				"box" : 				{
					"id" : "obj-37",
					"maxclass" : "newobj",
					"numinlets" : 1,
					"numoutlets" : 0,
					"patching_rect" : [ 860.623046875, 1334.8404541015625, 96.0, 22.0 ],
					"text" : "send~ gendelay"
				}

			}
, 			{
				"box" : 				{
					"id" : "obj-19",
					"maxclass" : "newobj",
					"numinlets" : 1,
					"numoutlets" : 0,
					"patching_rect" : [ 1502.0247802734375, 1334.8404541015625, 97.0, 22.0 ],
					"text" : "send~ gen_verb"
				}

			}
, 			{
				"box" : 				{
					"id" : "obj-22",
					"maxclass" : "newobj",
					"numinlets" : 3,
					"numoutlets" : 1,
					"outlettype" : [ "signal" ],
					"patching_rect" : [ 1502.0247802734375, 886.13360595703125, 66.0, 22.0 ],
					"text" : "clip~ -1. 1."
				}

			}
, 			{
				"box" : 				{
					"args" : [ 17, 0.0, 0.0, 0.0, 0.0, 0.0, 0.0, 0.0, 0.0, 0.0, 0.0, 0.0, 0.0, 0.0, 0.0, 0.0, 0.0, 0.0, 0.0, 0.0 ],
					"bgmode" : 0,
					"border" : 0,
					"clickthrough" : 0,
					"enablehscroll" : 0,
					"enablevscroll" : 0,
					"id" : "obj-23",
					"lockeddragscroll" : 0,
					"maxclass" : "bpatcher",
					"name" : "master_mixer_ui_inner_short.maxpat",
					"numinlets" : 1,
					"numoutlets" : 21,
					"offset" : [ 0.0, 0.0 ],
					"outlettype" : [ "signal", "signal", "signal", "signal", "signal", "signal", "signal", "signal", "signal", "signal", "signal", "signal", "signal", "signal", "signal", "signal", "signal", "signal", "signal", "signal", "int" ],
					"patching_rect" : [ 1506.29150390625, 582.13336181640625, 114.4666748046875, 255.833526611328125 ],
					"presentation" : 1,
					"presentation_rect" : [ 105.84246826171875, 0.647262573242188, 104.65753173828125, 232.433151245117188 ],
					"varname" : "reverb_mixer",
					"viewvisibility" : 1
				}

			}
, 			{
				"box" : 				{
					"id" : "obj-16",
					"maxclass" : "newobj",
					"numinlets" : 3,
					"numoutlets" : 1,
					"outlettype" : [ "signal" ],
					"patching_rect" : [ 185.8585205078125, 867.36663818359375, 66.0, 22.0 ],
					"text" : "clip~ -1. 1."
				}

			}
, 			{
				"box" : 				{
					"args" : [ 18, 0.0, 0.0, 0.0, 0.0, 0.0, 0.0, 0.0, 0.0, 0.0, 0.0, 0.0, 0.0, 0.0, 0.0, 0.0, 0.0, 0.0, 0.0, 0.0 ],
					"bgmode" : 0,
					"border" : 0,
					"clickthrough" : 0,
					"enablehscroll" : 0,
					"enablevscroll" : 0,
					"id" : "obj-15",
					"lockeddragscroll" : 0,
					"maxclass" : "bpatcher",
					"name" : "master_mixer_ui_inner_short.maxpat",
					"numinlets" : 1,
					"numoutlets" : 21,
					"offset" : [ 0.0, 0.0 ],
					"outlettype" : [ "signal", "signal", "signal", "signal", "signal", "signal", "signal", "signal", "signal", "signal", "signal", "signal", "signal", "signal", "signal", "signal", "signal", "signal", "signal", "signal", "int" ],
					"patching_rect" : [ 185.8585205078125, 582.13336181640625, 120.696182250976562, 255.833526611328125 ],
					"presentation" : 1,
					"presentation_rect" : [ 210.84246826171875, 0.647262573242188, 104.65753173828125, 232.521865844726562 ],
					"varname" : "aux_mixer",
					"viewvisibility" : 1
				}

			}
, 			{
				"box" : 				{
					"id" : "obj-9",
					"maxclass" : "newobj",
					"numinlets" : 1,
					"numoutlets" : 4,
					"outlettype" : [ "", "", "", "" ],
					"patching_rect" : [ 51.333484649658203, 162.13330078125, 56.0, 22.0 ],
					"restore" : 					{
						"master_volume" : [ 1.0 ]
					}
,
					"text" : "autopattr",
					"varname" : "u543016529"
				}

			}
, 			{
				"box" : 				{
					"id" : "obj-364",
					"maxclass" : "newobj",
					"numinlets" : 3,
					"numoutlets" : 1,
					"outlettype" : [ "signal" ],
					"patching_rect" : [ 860.623046875, 868.70001220703125, 66.0, 22.0 ],
					"text" : "clip~ -1. 1."
				}

			}
, 			{
				"box" : 				{
					"args" : [ 16, 0.0, 0.0, 0.0, 0.0, 0.0, 0.0, 0.0, 0.0, 0.0, 0.0, 0.0, 0.0, 0.0, 0.0, 0.0, 0.0, 0.0, 0.0, 0.0 ],
					"bgmode" : 0,
					"border" : 0,
					"clickthrough" : 0,
					"enablehscroll" : 0,
					"enablevscroll" : 0,
					"id" : "obj-365",
					"lockeddragscroll" : 0,
					"maxclass" : "bpatcher",
					"name" : "master_mixer_ui_inner_short.maxpat",
					"numinlets" : 1,
					"numoutlets" : 21,
					"offset" : [ 0.0, 0.0 ],
					"outlettype" : [ "signal", "signal", "signal", "signal", "signal", "signal", "signal", "signal", "signal", "signal", "signal", "signal", "signal", "signal", "signal", "signal", "signal", "signal", "signal", "signal", "int" ],
					"patching_rect" : [ 864.873046875, 582.13336181640625, 114.5, 257.133331298828125 ],
					"presentation" : 1,
					"presentation_rect" : [ 0.842464447021484, 0.647262573242188, 104.65753173828125, 232.521865844726562 ],
					"varname" : "delay_mixer",
					"viewvisibility" : 1
				}

			}
, 			{
				"box" : 				{
					"args" : [ -1, 1.0, 1.0, 1.0, 1.0, 1.0, 1.0, 1.0, 1.0, 1.0, 1.0, 1.0, 1.0, 1.0, 1.0, 1.0, 1.0, 1.0, 1.0, 1.0 ],
					"bgmode" : 0,
					"border" : 0,
					"clickthrough" : 0,
					"enablehscroll" : 0,
					"enablevscroll" : 0,
					"id" : "obj-203",
					"lockeddragscroll" : 0,
					"maxclass" : "bpatcher",
					"name" : "master_mixer_ui_inner.maxpat",
					"numinlets" : 1,
					"numoutlets" : 21,
					"offset" : [ 0.0, 0.0 ],
					"outlettype" : [ "signal", "signal", "signal", "signal", "signal", "signal", "signal", "signal", "signal", "signal", "signal", "signal", "signal", "signal", "signal", "signal", "signal", "signal", "signal", "signal", "int" ],
					"patching_rect" : [ 452.200836181640625, 3.706832885742188, 239.31402587890625, 260.6549072265625 ],
					"presentation" : 1,
					"presentation_rect" : [ 315.84246826171875, 0.647260665893555, 104.65753173828125, 309.088958740234375 ],
					"varname" : "main_mixer",
					"viewvisibility" : 1
				}

			}
, 			{
				"box" : 				{
					"id" : "obj-147",
					"linecount" : 2,
					"maxclass" : "newobj",
					"numinlets" : 1,
					"numoutlets" : 1,
					"outlettype" : [ "" ],
					"patching_rect" : [ 473.183135986328125, 452.5, 51.0, 35.0 ],
					"text" : "loadmess start"
				}

			}
, 			{
				"box" : 				{
					"bgmode" : 0,
					"border" : 0,
					"clickthrough" : 0,
					"enablehscroll" : 0,
					"enablevscroll" : 0,
					"id" : "obj-34",
					"lockeddragscroll" : 0,
					"maxclass" : "bpatcher",
					"name" : "phys_mixer.maxpat",
					"numinlets" : 1,
					"numoutlets" : 2,
					"offset" : [ 0.0, 0.0 ],
					"outlettype" : [ "signal", "signal" ],
					"patching_rect" : [ 452.0361328125, 395.93975830078125, 97.277107238769531, 31.61445426940918 ],
					"presentation" : 1,
					"presentation_rect" : [ 551.8614501953125, 0.647260665893555, 107.689186096191406, 310.271881103515625 ],
					"varname" : "phys_mixer",
					"viewvisibility" : 1
				}

			}
, 			{
				"box" : 				{
					"angle" : 270.0,
					"bgcolor" : [ 1.0, 1.0, 1.0, 0.964511 ],
					"border" : 1,
					"bordercolor" : [ 0.0, 0.0, 0.0, 1.0 ],
					"id" : "obj-64",
					"maxclass" : "panel",
					"mode" : 0,
					"numinlets" : 1,
					"numoutlets" : 0,
					"patching_rect" : [ 51.333485000000003, 25.000017, 128.0, 128.0 ],
					"presentation" : 1,
					"presentation_rect" : [ 0.0, 0.0, 660.0, 311.16912841796875 ],
					"proportion" : 0.39,
					"rounded" : 0
				}

			}
 ],
		"lines" : [ 			{
				"patchline" : 				{
					"destination" : [ "obj-41", 0 ],
					"source" : [ "obj-1", 0 ]
				}

			}
, 			{
				"patchline" : 				{
					"destination" : [ "obj-37", 0 ],
					"source" : [ "obj-10", 0 ]
				}

			}
, 			{
				"patchline" : 				{
					"destination" : [ "obj-19", 0 ],
					"source" : [ "obj-11", 0 ]
				}

			}
, 			{
				"patchline" : 				{
					"destination" : [ "obj-27", 1 ],
					"midpoints" : [ 349.829742431640625, 559.333350002765656, 471.1810302734375, 559.333350002765656 ],
					"order" : 1,
					"source" : [ "obj-12", 0 ]
				}

			}
, 			{
				"patchline" : 				{
					"destination" : [ "obj-28", 1 ],
					"midpoints" : [ 349.829742431640625, 559.740254402160645, 550.813232421875, 559.740254402160645 ],
					"order" : 0,
					"source" : [ "obj-12", 0 ]
				}

			}
, 			{
				"patchline" : 				{
					"destination" : [ "obj-93", 0 ],
					"source" : [ "obj-13", 0 ]
				}

			}
, 			{
				"patchline" : 				{
					"destination" : [ "obj-11", 0 ],
					"source" : [ "obj-14", 0 ]
				}

			}
, 			{
				"patchline" : 				{
					"destination" : [ "obj-31", 0 ],
					"midpoints" : [ 482.683135986328125, 509.66664907336235, 521.458269566297531, 509.66664907336235, 521.458269566297531, 683.486616581678391, 509.147705078125, 683.486616581678391 ],
					"order" : 0,
					"source" : [ "obj-147", 0 ]
				}

			}
, 			{
				"patchline" : 				{
					"destination" : [ "obj-32", 0 ],
					"midpoints" : [ 482.683135986328125, 517.526647806167603, 429.973981499671936, 517.526647806167603, 429.973981499671936, 604.024591237306595, 439.1810302734375, 604.024591237306595 ],
					"order" : 1,
					"source" : [ "obj-147", 0 ]
				}

			}
, 			{
				"patchline" : 				{
					"destination" : [ "obj-16", 0 ],
					"midpoints" : [ 291.969893646240223, 847.618997097015381, 195.3585205078125, 847.618997097015381 ],
					"source" : [ "obj-15", 19 ]
				}

			}
, 			{
				"patchline" : 				{
					"destination" : [ "obj-16", 0 ],
					"midpoints" : [ 281.800275421142544, 847.133602999999994, 195.3585205078125, 847.133602999999994 ],
					"source" : [ "obj-15", 17 ]
				}

			}
, 			{
				"patchline" : 				{
					"destination" : [ "obj-16", 0 ],
					"midpoints" : [ 276.715466308593761, 846.800269999999955, 195.3585205078125, 846.800269999999955 ],
					"source" : [ "obj-15", 16 ]
				}

			}
, 			{
				"patchline" : 				{
					"destination" : [ "obj-16", 0 ],
					"midpoints" : [ 271.630657196044922, 847.800269999999955, 195.3585205078125, 847.800269999999955 ],
					"source" : [ "obj-15", 15 ]
				}

			}
, 			{
				"patchline" : 				{
					"destination" : [ "obj-16", 0 ],
					"midpoints" : [ 266.545848083496082, 847.466917999999964, 195.3585205078125, 847.466917999999964 ],
					"source" : [ "obj-15", 14 ]
				}

			}
, 			{
				"patchline" : 				{
					"destination" : [ "obj-16", 0 ],
					"midpoints" : [ 261.461038970947243, 847.883586000000037, 195.3585205078125, 847.883586000000037 ],
					"source" : [ "obj-15", 13 ]
				}

			}
, 			{
				"patchline" : 				{
					"destination" : [ "obj-16", 0 ],
					"midpoints" : [ 256.376229858398403, 845.800252999999998, 195.3585205078125, 845.800252999999998 ],
					"source" : [ "obj-15", 12 ]
				}

			}
, 			{
				"patchline" : 				{
					"destination" : [ "obj-16", 0 ],
					"midpoints" : [ 251.291420745849592, 847.383586000000037, 195.3585205078125, 847.383586000000037 ],
					"source" : [ "obj-15", 11 ]
				}

			}
, 			{
				"patchline" : 				{
					"destination" : [ "obj-16", 0 ],
					"midpoints" : [ 246.206611633300781, 845.800252999999998, 195.3585205078125, 845.800252999999998 ],
					"source" : [ "obj-15", 10 ]
				}

			}
, 			{
				"patchline" : 				{
					"destination" : [ "obj-16", 0 ],
					"midpoints" : [ 241.121802520751942, 847.466919999999959, 195.3585205078125, 847.466919999999959 ],
					"source" : [ "obj-15", 9 ]
				}

			}
, 			{
				"patchline" : 				{
					"destination" : [ "obj-16", 0 ],
					"midpoints" : [ 236.036993408203102, 845.800252999999998, 195.3585205078125, 845.800252999999998 ],
					"source" : [ "obj-15", 8 ]
				}

			}
, 			{
				"patchline" : 				{
					"destination" : [ "obj-16", 0 ],
					"midpoints" : [ 230.952184295654291, 846.633586000000037, 195.3585205078125, 846.633586000000037 ],
					"source" : [ "obj-15", 7 ]
				}

			}
, 			{
				"patchline" : 				{
					"destination" : [ "obj-16", 0 ],
					"midpoints" : [ 225.867375183105452, 846.050252999999998, 195.3585205078125, 846.050252999999998 ],
					"source" : [ "obj-15", 6 ]
				}

			}
, 			{
				"patchline" : 				{
					"destination" : [ "obj-16", 0 ],
					"midpoints" : [ 220.782566070556641, 846.800252999999998, 195.3585205078125, 846.800252999999998 ],
					"source" : [ "obj-15", 5 ]
				}

			}
, 			{
				"patchline" : 				{
					"destination" : [ "obj-16", 0 ],
					"midpoints" : [ 215.697756958007801, 845.466918999999962, 195.3585205078125, 845.466918999999962 ],
					"source" : [ "obj-15", 4 ]
				}

			}
, 			{
				"patchline" : 				{
					"destination" : [ "obj-16", 0 ],
					"midpoints" : [ 210.612947845458962, 847.133586000000037, 195.3585205078125, 847.133586000000037 ],
					"source" : [ "obj-15", 3 ]
				}

			}
, 			{
				"patchline" : 				{
					"destination" : [ "obj-16", 0 ],
					"midpoints" : [ 205.528138732910151, 847.466919999999959, 195.3585205078125, 847.466919999999959 ],
					"source" : [ "obj-15", 2 ]
				}

			}
, 			{
				"patchline" : 				{
					"destination" : [ "obj-16", 0 ],
					"midpoints" : [ 200.443329620361311, 846.133586000000037, 195.3585205078125, 846.133586000000037 ],
					"source" : [ "obj-15", 1 ]
				}

			}
, 			{
				"patchline" : 				{
					"destination" : [ "obj-16", 0 ],
					"source" : [ "obj-15", 0 ]
				}

			}
, 			{
				"patchline" : 				{
					"destination" : [ "obj-43", 1 ],
					"midpoints" : [ 195.3585205078125, 905.025146126747131, 284.025184631347656, 905.025146126747131 ],
					"order" : 0,
					"source" : [ "obj-16", 0 ]
				}

			}
, 			{
				"patchline" : 				{
					"destination" : [ "obj-43", 0 ],
					"order" : 1,
					"source" : [ "obj-16", 0 ]
				}

			}
, 			{
				"patchline" : 				{
					"destination" : [ "obj-12", 0 ],
					"source" : [ "obj-17", 0 ]
				}

			}
, 			{
				"patchline" : 				{
					"destination" : [ "obj-27", 0 ],
					"source" : [ "obj-2", 0 ]
				}

			}
, 			{
				"patchline" : 				{
					"destination" : [ "obj-29", 18 ],
					"source" : [ "obj-203", 18 ]
				}

			}
, 			{
				"patchline" : 				{
					"destination" : [ "obj-29", 17 ],
					"source" : [ "obj-203", 17 ]
				}

			}
, 			{
				"patchline" : 				{
					"destination" : [ "obj-29", 16 ],
					"source" : [ "obj-203", 16 ]
				}

			}
, 			{
				"patchline" : 				{
					"destination" : [ "obj-29", 15 ],
					"source" : [ "obj-203", 15 ]
				}

			}
, 			{
				"patchline" : 				{
					"destination" : [ "obj-29", 14 ],
					"source" : [ "obj-203", 14 ]
				}

			}
, 			{
				"patchline" : 				{
					"destination" : [ "obj-29", 13 ],
					"source" : [ "obj-203", 13 ]
				}

			}
, 			{
				"patchline" : 				{
					"destination" : [ "obj-29", 12 ],
					"source" : [ "obj-203", 12 ]
				}

			}
, 			{
				"patchline" : 				{
					"destination" : [ "obj-29", 11 ],
					"source" : [ "obj-203", 11 ]
				}

			}
, 			{
				"patchline" : 				{
					"destination" : [ "obj-29", 10 ],
					"source" : [ "obj-203", 10 ]
				}

			}
, 			{
				"patchline" : 				{
					"destination" : [ "obj-29", 9 ],
					"source" : [ "obj-203", 9 ]
				}

			}
, 			{
				"patchline" : 				{
					"destination" : [ "obj-29", 8 ],
					"source" : [ "obj-203", 8 ]
				}

			}
, 			{
				"patchline" : 				{
					"destination" : [ "obj-29", 7 ],
					"source" : [ "obj-203", 7 ]
				}

			}
, 			{
				"patchline" : 				{
					"destination" : [ "obj-29", 6 ],
					"source" : [ "obj-203", 6 ]
				}

			}
, 			{
				"patchline" : 				{
					"destination" : [ "obj-29", 5 ],
					"source" : [ "obj-203", 5 ]
				}

			}
, 			{
				"patchline" : 				{
					"destination" : [ "obj-29", 4 ],
					"source" : [ "obj-203", 4 ]
				}

			}
, 			{
				"patchline" : 				{
					"destination" : [ "obj-29", 3 ],
					"source" : [ "obj-203", 3 ]
				}

			}
, 			{
				"patchline" : 				{
					"destination" : [ "obj-29", 2 ],
					"source" : [ "obj-203", 2 ]
				}

			}
, 			{
				"patchline" : 				{
					"destination" : [ "obj-29", 1 ],
					"source" : [ "obj-203", 1 ]
				}

			}
, 			{
				"patchline" : 				{
					"destination" : [ "obj-29", 0 ],
					"source" : [ "obj-203", 0 ]
				}

			}
, 			{
				"patchline" : 				{
					"destination" : [ "obj-60", 0 ],
					"midpoints" : [ 670.999160766601562, 308.510644733905792, 690.41650390625, 308.510644733905792 ],
					"source" : [ "obj-203", 19 ]
				}

			}
, 			{
				"patchline" : 				{
					"destination" : [ "obj-95", 0 ],
					"source" : [ "obj-22", 0 ]
				}

			}
, 			{
				"patchline" : 				{
					"destination" : [ "obj-22", 0 ],
					"midpoints" : [ 1606.48484497070308, 877.333339869976044, 1511.5247802734375, 877.333339869976044 ],
					"source" : [ "obj-23", 19 ]
				}

			}
, 			{
				"patchline" : 				{
					"destination" : [ "obj-22", 0 ],
					"midpoints" : [ 1601.711511230468659, 876.133603999999991, 1511.5247802734375, 876.133603999999991 ],
					"source" : [ "obj-23", 18 ]
				}

			}
, 			{
				"patchline" : 				{
					"destination" : [ "obj-22", 0 ],
					"midpoints" : [ 1592.164843750000045, 876.800270999999952, 1511.5247802734375, 876.800270999999952 ],
					"source" : [ "obj-23", 16 ]
				}

			}
, 			{
				"patchline" : 				{
					"destination" : [ "obj-22", 0 ],
					"midpoints" : [ 1587.391510009765625, 877.800270999999952, 1511.5247802734375, 877.800270999999952 ],
					"source" : [ "obj-23", 15 ]
				}

			}
, 			{
				"patchline" : 				{
					"destination" : [ "obj-22", 0 ],
					"midpoints" : [ 1582.618176269531205, 877.466918999999962, 1511.5247802734375, 877.466918999999962 ],
					"source" : [ "obj-23", 14 ]
				}

			}
, 			{
				"patchline" : 				{
					"destination" : [ "obj-22", 0 ],
					"midpoints" : [ 1577.844842529296784, 877.883587000000034, 1511.5247802734375, 877.883587000000034 ],
					"source" : [ "obj-23", 13 ]
				}

			}
, 			{
				"patchline" : 				{
					"destination" : [ "obj-22", 0 ],
					"midpoints" : [ 1573.071508789062364, 875.800253999999995, 1511.5247802734375, 875.800253999999995 ],
					"source" : [ "obj-23", 12 ]
				}

			}
, 			{
				"patchline" : 				{
					"destination" : [ "obj-22", 0 ],
					"midpoints" : [ 1568.29817504882817, 877.383587000000034, 1511.5247802734375, 877.383587000000034 ],
					"source" : [ "obj-23", 11 ]
				}

			}
, 			{
				"patchline" : 				{
					"destination" : [ "obj-22", 0 ],
					"midpoints" : [ 1563.52484130859375, 875.800253999999995, 1511.5247802734375, 875.800253999999995 ],
					"source" : [ "obj-23", 10 ]
				}

			}
, 			{
				"patchline" : 				{
					"destination" : [ "obj-22", 0 ],
					"midpoints" : [ 1558.75150756835933, 877.466920999999957, 1511.5247802734375, 877.466920999999957 ],
					"source" : [ "obj-23", 9 ]
				}

			}
, 			{
				"patchline" : 				{
					"destination" : [ "obj-22", 0 ],
					"midpoints" : [ 1553.978173828124909, 875.800253999999995, 1511.5247802734375, 875.800253999999995 ],
					"source" : [ "obj-23", 8 ]
				}

			}
, 			{
				"patchline" : 				{
					"destination" : [ "obj-22", 0 ],
					"midpoints" : [ 1549.204840087890489, 876.633587000000034, 1511.5247802734375, 876.633587000000034 ],
					"source" : [ "obj-23", 7 ]
				}

			}
, 			{
				"patchline" : 				{
					"destination" : [ "obj-22", 0 ],
					"midpoints" : [ 1544.431506347656295, 876.050253999999995, 1511.5247802734375, 876.050253999999995 ],
					"source" : [ "obj-23", 6 ]
				}

			}
, 			{
				"patchline" : 				{
					"destination" : [ "obj-22", 0 ],
					"midpoints" : [ 1539.658172607421875, 876.800253999999995, 1511.5247802734375, 876.800253999999995 ],
					"source" : [ "obj-23", 5 ]
				}

			}
, 			{
				"patchline" : 				{
					"destination" : [ "obj-22", 0 ],
					"midpoints" : [ 1534.884838867187455, 875.466919999999959, 1511.5247802734375, 875.466919999999959 ],
					"source" : [ "obj-23", 4 ]
				}

			}
, 			{
				"patchline" : 				{
					"destination" : [ "obj-22", 0 ],
					"midpoints" : [ 1530.111505126953034, 877.133587000000034, 1511.5247802734375, 877.133587000000034 ],
					"source" : [ "obj-23", 3 ]
				}

			}
, 			{
				"patchline" : 				{
					"destination" : [ "obj-22", 0 ],
					"midpoints" : [ 1525.338171386718614, 877.466920999999957, 1511.5247802734375, 877.466920999999957 ],
					"source" : [ "obj-23", 2 ]
				}

			}
, 			{
				"patchline" : 				{
					"destination" : [ "obj-22", 0 ],
					"midpoints" : [ 1520.56483764648442, 876.133587000000034, 1511.5247802734375, 876.133587000000034 ],
					"source" : [ "obj-23", 1 ]
				}

			}
, 			{
				"patchline" : 				{
					"destination" : [ "obj-22", 0 ],
					"source" : [ "obj-23", 0 ]
				}

			}
, 			{
				"patchline" : 				{
					"destination" : [ "obj-14", 0 ],
					"source" : [ "obj-25", 0 ]
				}

			}
, 			{
				"patchline" : 				{
					"destination" : [ "obj-25", 0 ],
					"source" : [ "obj-26", 0 ]
				}

			}
, 			{
				"patchline" : 				{
					"destination" : [ "obj-80", 0 ],
					"order" : 1,
					"source" : [ "obj-27", 0 ]
				}

			}
, 			{
				"patchline" : 				{
					"destination" : [ "obj-84", 0 ],
					"midpoints" : [ 460.1810302734375, 620.318743586540222, 539.813232421875, 620.318743586540222 ],
					"order" : 0,
					"source" : [ "obj-27", 0 ]
				}

			}
, 			{
				"patchline" : 				{
					"destination" : [ "obj-80", 1 ],
					"midpoints" : [ 539.813232421875, 613.147428631782532, 482.976485431194305, 613.147428631782532 ],
					"order" : 1,
					"source" : [ "obj-28", 0 ]
				}

			}
, 			{
				"patchline" : 				{
					"destination" : [ "obj-84", 1 ],
					"midpoints" : [ 539.813232421875, 603.187268972396851, 564.271397829055786, 603.187268972396851 ],
					"order" : 0,
					"source" : [ "obj-28", 0 ]
				}

			}
, 			{
				"patchline" : 				{
					"destination" : [ "obj-34", 0 ],
					"source" : [ "obj-29", 0 ]
				}

			}
, 			{
				"patchline" : 				{
					"destination" : [ "obj-4", 0 ],
					"source" : [ "obj-3", 0 ]
				}

			}
, 			{
				"patchline" : 				{
					"destination" : [ "obj-70", 1 ],
					"midpoints" : [ 539.813240051269531, 438.0, 656.29583740234375, 438.0 ],
					"source" : [ "obj-34", 1 ]
				}

			}
, 			{
				"patchline" : 				{
					"destination" : [ "obj-70", 0 ],
					"midpoints" : [ 461.5361328125, 445.0, 550.87554931640625, 445.0 ],
					"source" : [ "obj-34", 0 ]
				}

			}
, 			{
				"patchline" : 				{
					"destination" : [ "obj-96", 0 ],
					"source" : [ "obj-364", 0 ]
				}

			}
, 			{
				"patchline" : 				{
					"destination" : [ "obj-364", 0 ],
					"midpoints" : [ 965.098046875000023, 860.122736811637878, 870.123046875, 860.122736811637878 ],
					"source" : [ "obj-365", 19 ]
				}

			}
, 			{
				"patchline" : 				{
					"destination" : [ "obj-364", 0 ],
					"midpoints" : [ 960.323046875000045, 859.933465667968676, 870.123046875, 859.933465667968676 ],
					"source" : [ "obj-365", 18 ]
				}

			}
, 			{
				"patchline" : 				{
					"destination" : [ "obj-364", 0 ],
					"midpoints" : [ 955.548046875000068, 858.933465667968676, 870.123046875, 858.933465667968676 ],
					"source" : [ "obj-365", 17 ]
				}

			}
, 			{
				"patchline" : 				{
					"destination" : [ "obj-364", 0 ],
					"midpoints" : [ 945.998046875, 858.266798667968715, 870.123046875, 858.266798667968715 ],
					"source" : [ "obj-365", 15 ]
				}

			}
, 			{
				"patchline" : 				{
					"destination" : [ "obj-364", 0 ],
					"midpoints" : [ 941.223046875000023, 859.26679266796873, 870.123046875, 859.26679266796873 ],
					"source" : [ "obj-365", 14 ]
				}

			}
, 			{
				"patchline" : 				{
					"destination" : [ "obj-364", 0 ],
					"midpoints" : [ 936.448046875000045, 860.600129667968758, 870.123046875, 860.600129667968758 ],
					"source" : [ "obj-365", 13 ]
				}

			}
, 			{
				"patchline" : 				{
					"destination" : [ "obj-364", 0 ],
					"midpoints" : [ 931.673046875000068, 858.600129667968758, 870.123046875, 858.600129667968758 ],
					"source" : [ "obj-365", 12 ]
				}

			}
, 			{
				"patchline" : 				{
					"destination" : [ "obj-364", 0 ],
					"midpoints" : [ 926.898046874999977, 859.600129667968758, 870.123046875, 859.600129667968758 ],
					"source" : [ "obj-365", 11 ]
				}

			}
, 			{
				"patchline" : 				{
					"destination" : [ "obj-364", 0 ],
					"midpoints" : [ 922.123046875, 859.600129667968758, 870.123046875, 859.600129667968758 ],
					"source" : [ "obj-365", 10 ]
				}

			}
, 			{
				"patchline" : 				{
					"destination" : [ "obj-364", 0 ],
					"midpoints" : [ 917.348046875000023, 858.26679666796872, 870.123046875, 858.26679666796872 ],
					"source" : [ "obj-365", 9 ]
				}

			}
, 			{
				"patchline" : 				{
					"destination" : [ "obj-364", 0 ],
					"midpoints" : [ 912.573046875000045, 859.933463667968681, 870.123046875, 859.933463667968681 ],
					"source" : [ "obj-365", 8 ]
				}

			}
, 			{
				"patchline" : 				{
					"destination" : [ "obj-364", 0 ],
					"midpoints" : [ 907.798046875000068, 858.26679666796872, 870.123046875, 858.26679666796872 ],
					"source" : [ "obj-365", 7 ]
				}

			}
, 			{
				"patchline" : 				{
					"destination" : [ "obj-364", 0 ],
					"midpoints" : [ 903.023046874999977, 860.600129667968758, 870.123046875, 860.600129667968758 ],
					"source" : [ "obj-365", 6 ]
				}

			}
, 			{
				"patchline" : 				{
					"destination" : [ "obj-364", 0 ],
					"midpoints" : [ 898.248046875, 858.933463667968681, 870.123046875, 858.933463667968681 ],
					"source" : [ "obj-365", 5 ]
				}

			}
, 			{
				"patchline" : 				{
					"destination" : [ "obj-364", 0 ],
					"midpoints" : [ 893.473046875000023, 862.26679666796872, 870.123046875, 862.26679666796872 ],
					"source" : [ "obj-365", 4 ]
				}

			}
, 			{
				"patchline" : 				{
					"destination" : [ "obj-364", 0 ],
					"midpoints" : [ 888.698046875000045, 858.933463667968681, 870.123046875, 858.933463667968681 ],
					"source" : [ "obj-365", 3 ]
				}

			}
, 			{
				"patchline" : 				{
					"destination" : [ "obj-364", 0 ],
					"midpoints" : [ 883.923046875000068, 862.26679666796872, 870.123046875, 862.26679666796872 ],
					"source" : [ "obj-365", 2 ]
				}

			}
, 			{
				"patchline" : 				{
					"destination" : [ "obj-364", 0 ],
					"midpoints" : [ 879.148046874999977, 860.600129667968758, 870.123046875, 860.600129667968758 ],
					"source" : [ "obj-365", 1 ]
				}

			}
, 			{
				"patchline" : 				{
					"destination" : [ "obj-364", 0 ],
					"source" : [ "obj-365", 0 ]
				}

			}
, 			{
				"patchline" : 				{
					"destination" : [ "obj-8", 0 ],
					"source" : [ "obj-4", 0 ]
				}

			}
, 			{
				"patchline" : 				{
					"destination" : [ "obj-10", 0 ],
					"source" : [ "obj-41", 0 ]
				}

			}
, 			{
				"patchline" : 				{
					"destination" : [ "obj-3", 0 ],
					"source" : [ "obj-43", 0 ]
				}

			}
, 			{
				"patchline" : 				{
					"destination" : [ "obj-17", 0 ],
					"source" : [ "obj-46", 0 ]
				}

			}
, 			{
				"patchline" : 				{
					"destination" : [ "obj-93", 1 ],
					"source" : [ "obj-48", 0 ]
				}

			}
, 			{
				"patchline" : 				{
					"destination" : [ "obj-20", 0 ],
					"midpoints" : [ 309.027727842330933, 814.673897504806519, 460.147705078125, 814.673897504806519 ],
					"source" : [ "obj-5", 0 ]
				}

			}
, 			{
				"patchline" : 				{
					"destination" : [ "obj-1", 0 ],
					"source" : [ "obj-52", 0 ]
				}

			}
, 			{
				"patchline" : 				{
					"destination" : [ "obj-70", 1 ],
					"midpoints" : [ 690.41650390625, 432.227531433105469, 656.29583740234375, 432.227531433105469 ],
					"order" : 0,
					"source" : [ "obj-60", 0 ]
				}

			}
, 			{
				"patchline" : 				{
					"destination" : [ "obj-70", 0 ],
					"midpoints" : [ 690.41650390625, 432.701465129852295, 550.87554931640625, 432.701465129852295 ],
					"order" : 1,
					"source" : [ "obj-60", 0 ]
				}

			}
, 			{
				"patchline" : 				{
					"destination" : [ "obj-28", 0 ],
					"source" : [ "obj-7", 0 ]
				}

			}
, 			{
				"patchline" : 				{
					"destination" : [ "obj-2", 0 ],
					"midpoints" : [ 550.87554931640625, 504.0, 460.1810302734375, 504.0 ],
					"source" : [ "obj-70", 0 ]
				}

			}
, 			{
				"patchline" : 				{
					"destination" : [ "obj-7", 0 ],
					"midpoints" : [ 656.29583740234375, 515.0, 539.813232421875, 515.0 ],
					"source" : [ "obj-70", 1 ]
				}

			}
, 			{
				"patchline" : 				{
					"destination" : [ "obj-42", 0 ],
					"source" : [ "obj-8", 0 ]
				}

			}
, 			{
				"patchline" : 				{
					"destination" : [ "obj-20", 0 ],
					"midpoints" : [ 460.1810302734375, 698.649405002593994, 410.800255417823792, 698.649405002593994, 410.800255417823792, 735.742296814918518, 460.147705078125, 735.742296814918518 ],
					"order" : 0,
					"source" : [ "obj-80", 0 ]
				}

			}
, 			{
				"patchline" : 				{
					"destination" : [ "obj-32", 0 ],
					"midpoints" : [ 460.1810302734375, 698.80480170249939, 439.1810302734375, 698.80480170249939 ],
					"order" : 1,
					"source" : [ "obj-80", 0 ]
				}

			}
, 			{
				"patchline" : 				{
					"destination" : [ "obj-20", 1 ],
					"midpoints" : [ 539.813232421875, 699.250998616218567, 563.145411252975464, 699.250998616218567, 563.145411252975464, 734.855528116226196, 515.147705078125, 734.855528116226196 ],
					"order" : 0,
					"source" : [ "obj-84", 0 ]
				}

			}
, 			{
				"patchline" : 				{
					"destination" : [ "obj-31", 0 ],
					"midpoints" : [ 539.813232421875, 697.609582543373108, 509.147705078125, 697.609582543373108 ],
					"order" : 1,
					"source" : [ "obj-84", 0 ]
				}

			}
, 			{
				"patchline" : 				{
					"destination" : [ "obj-13", 0 ],
					"midpoints" : [ 580.334971006042451, 819.565201759338379, 603.260858058929443, 819.565201759338379, 603.260858058929443, 739.673898935317993, 546.334971006042451, 739.673898935317993 ],
					"source" : [ "obj-93", 1 ]
				}

			}
, 			{
				"patchline" : 				{
					"destination" : [ "obj-20", 0 ],
					"midpoints" : [ 546.334971006042451, 819.021723508834839, 460.147705078125, 819.021723508834839 ],
					"source" : [ "obj-93", 0 ]
				}

			}
, 			{
				"patchline" : 				{
					"destination" : [ "obj-26", 1 ],
					"midpoints" : [ 1511.5247802734375, 953.266353249549866, 1600.191444396972656, 953.266353249549866 ],
					"order" : 0,
					"source" : [ "obj-95", 0 ]
				}

			}
, 			{
				"patchline" : 				{
					"destination" : [ "obj-26", 0 ],
					"order" : 1,
					"source" : [ "obj-95", 0 ]
				}

			}
, 			{
				"patchline" : 				{
					"destination" : [ "obj-52", 1 ],
					"midpoints" : [ 870.123046875, 934.673388004302979, 958.789710998535156, 934.673388004302979 ],
					"order" : 0,
					"source" : [ "obj-96", 0 ]
				}

			}
, 			{
				"patchline" : 				{
					"destination" : [ "obj-52", 0 ],
					"order" : 1,
					"source" : [ "obj-96", 0 ]
				}

			}
 ],
		"styles" : [ 			{
				"name" : "AudioStatus_Menu",
				"default" : 				{
					"bgfillcolor" : 					{
						"type" : "color",
						"color" : [ 0.294118, 0.313726, 0.337255, 1 ],
						"color1" : [ 0.454902, 0.462745, 0.482353, 0.0 ],
						"color2" : [ 0.290196, 0.309804, 0.301961, 1.0 ],
						"angle" : 270.0,
						"proportion" : 0.39,
						"autogradient" : 0
					}

				}
,
				"parentstyle" : "",
				"multi" : 0
			}
, 			{
				"name" : "buttonGreen-1",
				"default" : 				{
					"bgcolor" : [ 0.043137, 0.364706, 0.094118, 1.0 ]
				}
,
				"parentstyle" : "",
				"multi" : 0
			}
, 			{
				"name" : "dUG Yello 01-1",
				"default" : 				{
					"fontface" : [ 1 ],
					"bgcolor" : [ 1.0, 0.941176, 0.803922, 1.0 ],
					"textcolor_inverse" : [ 0.0, 0.0, 0.0, 1.0 ],
					"bgfillcolor" : 					{
						"type" : "gradient",
						"color" : [ 0.290196, 0.309804, 0.301961, 1.0 ],
						"color1" : [ 0.94902, 0.992157, 1.0, 1.0 ],
						"color2" : [ 0.862745, 0.870588, 0.878431, 1.0 ],
						"angle" : 270.0,
						"proportion" : 0.39,
						"autogradient" : 0
					}
,
					"fontsize" : [ 10.0 ]
				}
,
				"newobj" : 				{
					"fontface" : [ 1 ],
					"bgcolor" : [ 1.0, 0.941176, 0.803922, 1.0 ],
					"textcolor_inverse" : [ 0.0, 0.0, 0.0, 1.0 ],
					"fontsize" : [ 10.0 ]
				}
,
				"message" : 				{
					"fontface" : [ 1 ],
					"textcolor_inverse" : [ 0.0, 0.0, 0.0, 1.0 ],
					"bgfillcolor" : 					{
						"type" : "gradient",
						"color" : [ 0.290196, 0.309804, 0.301961, 1.0 ],
						"color1" : [ 0.94902, 0.992157, 1.0, 1.0 ],
						"color2" : [ 0.862745, 0.870588, 0.878431, 1.0 ],
						"angle" : 270.0,
						"proportion" : 0.39,
						"autogradient" : 0
					}
,
					"fontsize" : [ 10.0 ]
				}
,
				"button" : 				{
					"bgcolor" : [ 1.0, 0.941176, 0.803922, 1.0 ]
				}
,
				"toggle" : 				{
					"bgcolor" : [ 1.0, 0.941176, 0.803922, 1.0 ]
				}
,
				"parentstyle" : "",
				"multi" : 0
			}
, 			{
				"name" : "ksliderWhite",
				"default" : 				{
					"color" : [ 1.0, 1.0, 1.0, 1.0 ]
				}
,
				"parentstyle" : "",
				"multi" : 0
			}
, 			{
				"name" : "newobjBlue-1",
				"default" : 				{
					"accentcolor" : [ 0.317647, 0.654902, 0.976471, 1.0 ]
				}
,
				"parentstyle" : "",
				"multi" : 0
			}
, 			{
				"name" : "newobjBrown-1",
				"default" : 				{
					"accentcolor" : [ 0.654902, 0.572549, 0.376471, 1.0 ]
				}
,
				"parentstyle" : "",
				"multi" : 0
			}
, 			{
				"name" : "newobjCyan-1",
				"default" : 				{
					"accentcolor" : [ 0.029546, 0.773327, 0.821113, 1.0 ]
				}
,
				"parentstyle" : "",
				"multi" : 0
			}
, 			{
				"name" : "newobjGreen-1",
				"default" : 				{
					"accentcolor" : [ 0.0, 0.533333, 0.168627, 1.0 ]
				}
,
				"parentstyle" : "",
				"multi" : 0
			}
, 			{
				"name" : "newobjYellow-1",
				"default" : 				{
					"accentcolor" : [ 0.82517, 0.78181, 0.059545, 1.0 ],
					"fontsize" : [ 12.059008 ]
				}
,
				"parentstyle" : "",
				"multi" : 0
			}
, 			{
				"name" : "numberGold-1",
				"default" : 				{
					"accentcolor" : [ 0.764706, 0.592157, 0.101961, 1.0 ]
				}
,
				"parentstyle" : "",
				"multi" : 0
			}
, 			{
				"name" : "rsliderGold",
				"default" : 				{
					"bgcolor" : [ 0.764706, 0.592157, 0.101961, 1.0 ],
					"color" : [ 0.646639, 0.821777, 0.854593, 1.0 ]
				}
,
				"parentstyle" : "",
				"multi" : 0
			}
, 			{
				"name" : "tap",
				"default" : 				{
					"fontname" : [ "Lato Light" ]
				}
,
				"parentstyle" : "",
				"multi" : 0
			}
 ]
	}

}
