{
	"patcher" : 	{
		"fileversion" : 1,
		"appversion" : 		{
			"major" : 8,
			"minor" : 1,
			"revision" : 3,
			"architecture" : "x64",
			"modernui" : 1
		}
,
		"classnamespace" : "box",
		"rect" : [ 34.0, 56.0, 1412.0, 1030.0 ],
		"bglocked" : 0,
		"openinpresentation" : 1,
		"default_fontsize" : 12.0,
		"default_fontface" : 0,
		"default_fontname" : "Arial",
		"gridonopen" : 1,
		"gridsize" : [ 15.0, 15.0 ],
		"gridsnaponopen" : 1,
		"objectsnaponopen" : 1,
		"statusbarvisible" : 2,
		"toolbarvisible" : 1,
		"lefttoolbarpinned" : 0,
		"toptoolbarpinned" : 0,
		"righttoolbarpinned" : 0,
		"bottomtoolbarpinned" : 0,
		"toolbars_unpinned_last_save" : 0,
		"tallnewobj" : 0,
		"boxanimatetime" : 200,
		"enablehscroll" : 1,
		"enablevscroll" : 1,
		"devicewidth" : 0.0,
		"description" : "",
		"digest" : "",
		"tags" : "",
		"style" : "",
		"subpatcher_template" : "",
		"boxes" : [ 			{
				"box" : 				{
					"fontface" : 1,
					"fontsize" : 9.0,
					"id" : "obj-48",
					"maxclass" : "comment",
					"numinlets" : 1,
					"numoutlets" : 0,
					"patching_rect" : [ 240.6610107421875, 97.694915771484375, 136.0, 17.0 ],
					"presentation" : 1,
					"presentation_rect" : [ 102.0, 23.0, 20.06779670715332, 17.0 ],
					"text" : "16",
					"textcolor" : [ 0.395999997854233, 0.395999997854233, 0.395999997854233, 1.0 ]
				}

			}
, 			{
				"box" : 				{
					"fontface" : 1,
					"fontsize" : 9.0,
					"id" : "obj-47",
					"maxclass" : "comment",
					"numinlets" : 1,
					"numoutlets" : 0,
					"patching_rect" : [ 225.6610107421875, 82.694915771484375, 136.0, 17.0 ],
					"presentation" : 1,
					"presentation_rect" : [ 102.0, 43.0, 20.06779670715332, 17.0 ],
					"text" : "12",
					"textcolor" : [ 0.395999997854233, 0.395999997854233, 0.395999997854233, 1.0 ]
				}

			}
, 			{
				"box" : 				{
					"id" : "obj-34",
					"maxclass" : "live.line",
					"numinlets" : 1,
					"numoutlets" : 0,
					"patching_rect" : [ 198.0, 580.0, 5.0, 100.0 ],
					"presentation" : 1,
					"presentation_rect" : [ -0.916671752929688, 30.0, 106.335922241210938, 9.0 ]
				}

			}
, 			{
				"box" : 				{
					"id" : "obj-38",
					"linecolor" : [ 0.352941176470588, 0.352941176470588, 0.352941176470588, 0.5 ],
					"maxclass" : "live.line",
					"numinlets" : 1,
					"numoutlets" : 0,
					"patching_rect" : [ 183.0, 565.0, 5.0, 100.0 ],
					"presentation" : 1,
					"presentation_rect" : [ -0.916671752929688, 35.0, 106.335922241210938, 9.0 ]
				}

			}
, 			{
				"box" : 				{
					"id" : "obj-41",
					"maxclass" : "live.line",
					"numinlets" : 1,
					"numoutlets" : 0,
					"patching_rect" : [ 168.0, 550.0, 5.0, 100.0 ],
					"presentation" : 1,
					"presentation_rect" : [ -0.916671752929688, 40.0, 106.335922241210938, 9.0 ]
				}

			}
, 			{
				"box" : 				{
					"id" : "obj-42",
					"linecolor" : [ 0.352941176470588, 0.352941176470588, 0.352941176470588, 0.5 ],
					"maxclass" : "live.line",
					"numinlets" : 1,
					"numoutlets" : 0,
					"patching_rect" : [ 153.0, 535.0, 5.0, 100.0 ],
					"presentation" : 1,
					"presentation_rect" : [ -0.916671752929688, 46.0, 106.335922241210938, 9.0 ]
				}

			}
, 			{
				"box" : 				{
					"id" : "obj-43",
					"maxclass" : "live.line",
					"numinlets" : 1,
					"numoutlets" : 0,
					"patching_rect" : [ 183.0, 565.0, 5.0, 100.0 ],
					"presentation" : 1,
					"presentation_rect" : [ -0.916671752929688, 51.0, 106.335922241210938, 9.0 ]
				}

			}
, 			{
				"box" : 				{
					"id" : "obj-44",
					"linecolor" : [ 0.352941176470588, 0.352941176470588, 0.352941176470588, 0.5 ],
					"maxclass" : "live.line",
					"numinlets" : 1,
					"numoutlets" : 0,
					"patching_rect" : [ 168.0, 550.0, 5.0, 100.0 ],
					"presentation" : 1,
					"presentation_rect" : [ -0.916671752929688, 56.0, 106.335922241210938, 9.0 ]
				}

			}
, 			{
				"box" : 				{
					"id" : "obj-45",
					"maxclass" : "live.line",
					"numinlets" : 1,
					"numoutlets" : 0,
					"patching_rect" : [ 153.0, 535.0, 5.0, 100.0 ],
					"presentation" : 1,
					"presentation_rect" : [ -0.916671752929688, 62.0, 106.335922241210938, 9.0 ]
				}

			}
, 			{
				"box" : 				{
					"id" : "obj-46",
					"linecolor" : [ 0.352941176470588, 0.352941176470588, 0.352941176470588, 0.5 ],
					"maxclass" : "live.line",
					"numinlets" : 1,
					"numoutlets" : 0,
					"patching_rect" : [ 138.0, 520.0, 5.0, 100.0 ],
					"presentation" : 1,
					"presentation_rect" : [ -0.916671752929688, 67.0, 106.335922241210938, 9.0 ]
				}

			}
, 			{
				"box" : 				{
					"fontface" : 1,
					"fontsize" : 9.0,
					"id" : "obj-33",
					"maxclass" : "comment",
					"numinlets" : 1,
					"numoutlets" : 0,
					"patching_rect" : [ 210.6610107421875, 67.694915771484375, 136.0, 17.0 ],
					"presentation" : 1,
					"presentation_rect" : [ 102.0, 65.0, 16.0, 17.0 ],
					"text" : "8",
					"textcolor" : [ 0.395999997854233, 0.395999997854233, 0.395999997854233, 1.0 ]
				}

			}
, 			{
				"box" : 				{
					"id" : "obj-29",
					"maxclass" : "live.line",
					"numinlets" : 1,
					"numoutlets" : 0,
					"patching_rect" : [ 183.0, 565.0, 5.0, 100.0 ],
					"presentation" : 1,
					"presentation_rect" : [ -0.916667938232422, 72.0, 106.335922241210938, 9.0 ]
				}

			}
, 			{
				"box" : 				{
					"id" : "obj-30",
					"linecolor" : [ 0.352941176470588, 0.352941176470588, 0.352941176470588, 0.5 ],
					"maxclass" : "live.line",
					"numinlets" : 1,
					"numoutlets" : 0,
					"patching_rect" : [ 168.0, 550.0, 5.0, 100.0 ],
					"presentation" : 1,
					"presentation_rect" : [ -0.916667938232422, 77.0, 106.335922241210938, 9.0 ]
				}

			}
, 			{
				"box" : 				{
					"id" : "obj-31",
					"maxclass" : "live.line",
					"numinlets" : 1,
					"numoutlets" : 0,
					"patching_rect" : [ 153.0, 535.0, 5.0, 100.0 ],
					"presentation" : 1,
					"presentation_rect" : [ -0.916667938232422, 83.0, 106.335922241210938, 9.0 ]
				}

			}
, 			{
				"box" : 				{
					"id" : "obj-32",
					"linecolor" : [ 0.352941176470588, 0.352941176470588, 0.352941176470588, 0.5 ],
					"maxclass" : "live.line",
					"numinlets" : 1,
					"numoutlets" : 0,
					"patching_rect" : [ 138.0, 520.0, 5.0, 100.0 ],
					"presentation" : 1,
					"presentation_rect" : [ -0.916667938232422, 88.0, 106.335922241210938, 9.0 ]
				}

			}
, 			{
				"box" : 				{
					"fontface" : 1,
					"fontsize" : 9.0,
					"id" : "obj-28",
					"maxclass" : "comment",
					"numinlets" : 1,
					"numoutlets" : 0,
					"patching_rect" : [ 226.3389892578125, 107.864410400390625, 136.0, 17.0 ],
					"presentation" : 1,
					"presentation_rect" : [ 102.0, 86.0, 16.0, 17.0 ],
					"text" : "4",
					"textcolor" : [ 0.395999997854233, 0.395999997854233, 0.395999997854233, 1.0 ]
				}

			}
, 			{
				"box" : 				{
					"id" : "obj-25",
					"maxclass" : "newobj",
					"numinlets" : 1,
					"numoutlets" : 1,
					"outlettype" : [ "" ],
					"patching_rect" : [ 207.894760131835938, 45.333335876464844, 130.0, 22.0 ],
					"text" : "loadmess 0 0 0 0 0 0 0"
				}

			}
, 			{
				"box" : 				{
					"id" : "obj-9",
					"maxclass" : "newobj",
					"numinlets" : 1,
					"numoutlets" : 1,
					"outlettype" : [ "" ],
					"patching_rect" : [ 11.572699546813965, 45.333335876464844, 130.0, 22.0 ],
					"text" : "loadmess 1 1 1 1 1 1 1"
				}

			}
, 			{
				"box" : 				{
					"bgcolor" : [ 0.32549, 0.345098, 0.372549, 0.230516 ],
					"candicane2" : [ 0.749019607843137, 0.007843137254902, 0.007843137254902, 0.56078431372549 ],
					"candicane3" : [ 0.52156862745098, 0.082352941176471, 0.082352941176471, 0.588235294117647 ],
					"candycane" : 3,
					"contdata" : 1,
					"id" : "obj-5",
					"maxclass" : "multislider",
					"numinlets" : 1,
					"numoutlets" : 2,
					"outlettype" : [ "", "" ],
					"parameter_enable" : 1,
					"patching_rect" : [ 91.062469482421875, 109.833335876464844, 47.145244598388672, 8.0 ],
					"presentation" : 1,
					"presentation_rect" : [ -0.916667938232422, 114.0, 106.335922241210938, 9.0 ],
					"saved_attribute_attributes" : 					{
						"valueof" : 						{
							"parameter_type" : 3,
							"parameter_longname" : "ModularSendsLocks",
							"parameter_initial_enable" : 1,
							"parameter_invisible" : 1,
							"parameter_initial" : [ 1, 1, 1, 1, 1, 1, 1, 1, 1, 1, 1, 1 ],
							"parameter_shortname" : "ModularSendsLocks"
						}

					}
,
					"setminmax" : [ 0.0, 1.0 ],
					"setstyle" : 1,
					"settype" : 0,
					"size" : 7,
					"slidercolor" : [ 0.972549019607843, 0.313725490196078, 0.313725490196078, 0.450980392156863 ],
					"spacing" : 2,
					"thickness" : 1,
					"varname" : "ModularSendsLocks"
				}

			}
, 			{
				"box" : 				{
					"args" : [ "@scripting_name", "ModularSends", "@display_name", "snd", "@int_mode", 1 ],
					"bgmode" : 0,
					"border" : 0,
					"clickthrough" : 0,
					"enablehscroll" : 0,
					"enablevscroll" : 0,
					"id" : "obj-190",
					"lockeddragscroll" : 0,
					"maxclass" : "bpatcher",
					"name" : "_multislider_markov_ui_2019.maxpat",
					"numinlets" : 2,
					"numoutlets" : 3,
					"offset" : [ 0.0, 0.0 ],
					"outlettype" : [ "", "", "" ],
					"patching_rect" : [ 23.494544982910156, 135.333343505859375, 107.744186401367188, 25.837209701538086 ],
					"presentation" : 1,
					"presentation_rect" : [ -1.1201171875, 0.267618179321289, 106.53936767578125, 24.632390975952148 ],
					"varname" : "prob_multislider_markov_ui_2019",
					"viewvisibility" : 1
				}

			}
, 			{
				"box" : 				{
					"fontface" : 1,
					"fontsize" : 9.0,
					"id" : "obj-37",
					"maxclass" : "comment",
					"numinlets" : 1,
					"numoutlets" : 0,
					"patching_rect" : [ 387.3157958984375, 152.333343505859375, 136.0, 17.0 ],
					"presentation" : 1,
					"presentation_rect" : [ 102.0, 105.0, 16.0, 17.0 ],
					"text" : "0",
					"textcolor" : [ 0.395999997854233, 0.395999997854233, 0.395999997854233, 1.0 ]
				}

			}
, 			{
				"box" : 				{
					"id" : "obj-12",
					"maxclass" : "live.line",
					"numinlets" : 1,
					"numoutlets" : 0,
					"patching_rect" : [ 168.0, 550.0, 5.0, 100.0 ],
					"presentation" : 1,
					"presentation_rect" : [ -0.916667938232422, 93.0, 106.335922241210938, 9.0 ]
				}

			}
, 			{
				"box" : 				{
					"id" : "obj-8",
					"linecolor" : [ 0.352941176470588, 0.352941176470588, 0.352941176470588, 0.5 ],
					"maxclass" : "live.line",
					"numinlets" : 1,
					"numoutlets" : 0,
					"patching_rect" : [ 153.0, 535.0, 5.0, 100.0 ],
					"presentation" : 1,
					"presentation_rect" : [ -0.916667938232422, 98.0, 106.335922241210938, 9.0 ]
				}

			}
, 			{
				"box" : 				{
					"id" : "obj-7",
					"maxclass" : "live.line",
					"numinlets" : 1,
					"numoutlets" : 0,
					"patching_rect" : [ 138.0, 520.0, 5.0, 100.0 ],
					"presentation" : 1,
					"presentation_rect" : [ -0.916667938232422, 103.0, 106.335922241210938, 9.0 ]
				}

			}
, 			{
				"box" : 				{
					"id" : "obj-6",
					"linecolor" : [ 0.352941176470588, 0.352941176470588, 0.352941176470588, 0.5 ],
					"maxclass" : "live.line",
					"numinlets" : 1,
					"numoutlets" : 0,
					"patching_rect" : [ 123.0, 505.0, 5.0, 100.0 ],
					"presentation" : 1,
					"presentation_rect" : [ -0.916667997837067, 108.0, 106.335922241210938, 9.0 ]
				}

			}
, 			{
				"box" : 				{
					"id" : "obj-26",
					"maxclass" : "newobj",
					"numinlets" : 1,
					"numoutlets" : 4,
					"outlettype" : [ "", "", "", "" ],
					"patching_rect" : [ 34.0, 15.0, 56.0, 22.0 ],
					"restore" : 					{
						"ModularSends" : [ 6, 8, 9, 10, 10, 10, 9 ],
						"ModularSendsLocks" : [ 1, 1, 1, 1, 1, 1, 1 ]
					}
,
					"text" : "autopattr",
					"varname" : "u036017214"
				}

			}
, 			{
				"box" : 				{
					"fontface" : 1,
					"fontsize" : 8.0,
					"id" : "obj-39",
					"maxclass" : "comment",
					"numinlets" : 1,
					"numoutlets" : 0,
					"patching_rect" : [ 61.816680908203125, 72.0, 20.36663818359375, 15.0 ],
					"presentation" : 1,
					"presentation_rect" : [ 29.855630576610565, 111.400009155273438, 15.0, 15.0 ],
					"text" : "3",
					"textcolor" : [ 0.396078437566757, 0.396078437566757, 0.396078437566757, 1.0 ],
					"textjustification" : 1
				}

			}
, 			{
				"box" : 				{
					"fontface" : 1,
					"fontsize" : 8.0,
					"id" : "obj-22",
					"maxclass" : "comment",
					"numinlets" : 1,
					"numoutlets" : 0,
					"patching_rect" : [ 58.816680908203125, 75.0, 20.36663818359375, 15.0 ],
					"presentation" : 1,
					"presentation_rect" : [ 89.093989163637161, 111.400009155273438, 15.0, 15.0 ],
					"text" : "8",
					"textcolor" : [ 0.396078437566757, 0.396078437566757, 0.396078437566757, 1.0 ],
					"textjustification" : 1
				}

			}
, 			{
				"box" : 				{
					"fontface" : 1,
					"fontsize" : 8.0,
					"id" : "obj-18",
					"maxclass" : "comment",
					"numinlets" : 1,
					"numoutlets" : 0,
					"patching_rect" : [ 61.816680908203125, 72.0, 20.36663818359375, 15.0 ],
					"presentation" : 1,
					"presentation_rect" : [ 75.093989163637161, 111.400009155273438, 15.0, 15.0 ],
					"text" : "6",
					"textcolor" : [ 0.396078437566757, 0.396078437566757, 0.396078437566757, 1.0 ],
					"textjustification" : 1
				}

			}
, 			{
				"box" : 				{
					"fontface" : 1,
					"fontsize" : 8.0,
					"id" : "obj-16",
					"maxclass" : "comment",
					"numinlets" : 1,
					"numoutlets" : 0,
					"patching_rect" : [ 58.816680908203125, 75.0, 20.36663818359375, 15.0 ],
					"presentation" : 1,
					"presentation_rect" : [ 60.00332123041153, 111.400009155273438, 15.0, 15.0 ],
					"text" : "5",
					"textcolor" : [ 0.396078437566757, 0.396078437566757, 0.396078437566757, 1.0 ],
					"textjustification" : 1
				}

			}
, 			{
				"box" : 				{
					"fontface" : 1,
					"fontsize" : 8.0,
					"id" : "obj-15",
					"maxclass" : "comment",
					"numinlets" : 1,
					"numoutlets" : 0,
					"patching_rect" : [ 67.183319091796875, 72.0, 20.36663818359375, 15.0 ],
					"presentation" : 1,
					"presentation_rect" : [ 45.00332123041153, 111.400009155273438, 15.0, 15.0 ],
					"text" : "4",
					"textcolor" : [ 0.396078437566757, 0.396078437566757, 0.396078437566757, 1.0 ],
					"textjustification" : 1
				}

			}
, 			{
				"box" : 				{
					"fontface" : 1,
					"fontsize" : 8.0,
					"id" : "obj-13",
					"maxclass" : "comment",
					"numinlets" : 1,
					"numoutlets" : 0,
					"patching_rect" : [ 51.816680908203125, 76.38330078125, 20.36663818359375, 15.0 ],
					"presentation" : 1,
					"presentation_rect" : [ 14.839556008577347, 111.400009155273438, 15.0, 15.0 ],
					"text" : "2",
					"textcolor" : [ 0.396078437566757, 0.396078437566757, 0.396078437566757, 1.0 ],
					"textjustification" : 1
				}

			}
, 			{
				"box" : 				{
					"fontface" : 1,
					"fontsize" : 8.0,
					"id" : "obj-11",
					"maxclass" : "comment",
					"numinlets" : 1,
					"numoutlets" : 0,
					"patching_rect" : [ 51.816680908203125, 76.38330078125, 20.36663818359375, 15.0 ],
					"presentation" : 1,
					"presentation_rect" : [ 0.083332061767578, 111.400009155273438, 15.0, 15.0 ],
					"text" : "1",
					"textcolor" : [ 0.396078437566757, 0.396078437566757, 0.396078437566757, 1.0 ],
					"textjustification" : 1
				}

			}
, 			{
				"box" : 				{
					"id" : "obj-3",
					"maxclass" : "newobj",
					"numinlets" : 1,
					"numoutlets" : 1,
					"outlettype" : [ "bang" ],
					"patching_rect" : [ 222.399993896484375, 11.6666259765625, 60.0, 22.0 ],
					"text" : "loadbang"
				}

			}
, 			{
				"box" : 				{
					"comment" : "(list) reset all to center",
					"id" : "obj-1",
					"index" : 1,
					"maxclass" : "inlet",
					"numinlets" : 0,
					"numoutlets" : 1,
					"outlettype" : [ "" ],
					"patching_rect" : [ 120.399993896484375, 7.6666259765625, 30.0, 30.0 ]
				}

			}
, 			{
				"box" : 				{
					"comment" : "(list) pan values out",
					"id" : "obj-21",
					"index" : 1,
					"maxclass" : "outlet",
					"numinlets" : 1,
					"numoutlets" : 0,
					"patching_rect" : [ 150.0, 236.9500732421875, 30.0, 30.0 ]
				}

			}
, 			{
				"box" : 				{
					"bgcolor" : [ 0.32549, 0.345098, 0.372549, 0.230516 ],
					"candicane2" : [ 0.011765, 0.396078, 0.752941, 0.56 ],
					"candicane3" : [ 0.086275, 0.309804, 0.52549, 0.59 ],
					"candycane" : 3,
					"contdata" : 1,
					"id" : "obj-2",
					"maxclass" : "multislider",
					"numinlets" : 1,
					"numoutlets" : 2,
					"outlettype" : [ "", "" ],
					"parameter_enable" : 1,
					"patching_rect" : [ 150.0, 80.0, 71.199996948242188, 143.199996948242188 ],
					"presentation" : 1,
					"presentation_rect" : [ -0.916667997837067, 24.900009155273438, 106.335918486118317, 88.499984741210938 ],
					"saved_attribute_attributes" : 					{
						"valueof" : 						{
							"parameter_type" : 3,
							"parameter_longname" : "Master Panning[2]",
							"parameter_initial_enable" : 1,
							"parameter_invisible" : 1,
							"parameter_initial" : [ 0.0, 0.0, 0.0, 0.0, 0.0, 0.0, 0.0, 0.0, 0.0, 0.0, 0.0 ],
							"parameter_shortname" : "Master Panning"
						}

					}
,
					"setminmax" : [ 0.0, 17.0 ],
					"setstyle" : 1,
					"settype" : 0,
					"size" : 7,
					"slidercolor" : [ 0.317647, 0.654902, 0.976471, 0.45 ],
					"spacing" : 2,
					"thickness" : 1,
					"varname" : "ModularSends"
				}

			}
 ],
		"lines" : [ 			{
				"patchline" : 				{
					"destination" : [ "obj-2", 0 ],
					"midpoints" : [ 129.899993896484375, 58.999999976562492, 159.5, 58.999999976562492 ],
					"source" : [ "obj-1", 0 ]
				}

			}
, 			{
				"patchline" : 				{
					"destination" : [ "obj-2", 0 ],
					"midpoints" : [ 32.994544982910156, 169.948185920715332, 138.341968417167664, 169.948185920715332, 138.341968417167664, 73.575129270553589, 159.5, 73.575129270553589 ],
					"source" : [ "obj-190", 0 ]
				}

			}
, 			{
				"patchline" : 				{
					"destination" : [ "obj-190", 0 ],
					"midpoints" : [ 159.5, 229.015543222427368, 142.487046122550964, 229.015543222427368, 142.487046122550964, 126.943004727363586, 32.994544982910156, 126.943004727363586 ],
					"order" : 1,
					"source" : [ "obj-2", 0 ]
				}

			}
, 			{
				"patchline" : 				{
					"destination" : [ "obj-21", 0 ],
					"order" : 0,
					"source" : [ "obj-2", 0 ]
				}

			}
, 			{
				"patchline" : 				{
					"destination" : [ "obj-2", 0 ],
					"midpoints" : [ 217.394760131835938, 73.684213161468506, 159.5, 73.684213161468506 ],
					"source" : [ "obj-25", 0 ]
				}

			}
, 			{
				"patchline" : 				{
					"destination" : [ "obj-2", 0 ],
					"midpoints" : [ 231.899993896484375, 43.999999976562492, 159.5, 43.999999976562492 ],
					"source" : [ "obj-3", 0 ]
				}

			}
, 			{
				"patchline" : 				{
					"destination" : [ "obj-190", 1 ],
					"midpoints" : [ 100.562469482421875, 121.661724150180817, 121.738731384277344, 121.661724150180817 ],
					"source" : [ "obj-5", 0 ]
				}

			}
, 			{
				"patchline" : 				{
					"destination" : [ "obj-5", 0 ],
					"midpoints" : [ 21.072699546813965, 87.833830118179321, 100.562469482421875, 87.833830118179321 ],
					"source" : [ "obj-9", 0 ]
				}

			}
 ],
		"styles" : [ 			{
				"name" : "AudioStatus_Menu",
				"default" : 				{
					"bgfillcolor" : 					{
						"type" : "color",
						"color" : [ 0.294118, 0.313726, 0.337255, 1 ],
						"color1" : [ 0.454902, 0.462745, 0.482353, 0.0 ],
						"color2" : [ 0.290196, 0.309804, 0.301961, 1.0 ],
						"angle" : 270.0,
						"proportion" : 0.39,
						"autogradient" : 0
					}

				}
,
				"parentstyle" : "",
				"multi" : 0
			}
, 			{
				"name" : "buttonGreen-1",
				"default" : 				{
					"bgcolor" : [ 0.043137, 0.364706, 0.094118, 1.0 ]
				}
,
				"parentstyle" : "",
				"multi" : 0
			}
, 			{
				"name" : "dUG Yello 01-1",
				"default" : 				{
					"fontface" : [ 1 ],
					"bgcolor" : [ 1.0, 0.941176, 0.803922, 1.0 ],
					"textcolor_inverse" : [ 0.0, 0.0, 0.0, 1.0 ],
					"bgfillcolor" : 					{
						"type" : "gradient",
						"color" : [ 0.290196, 0.309804, 0.301961, 1.0 ],
						"color1" : [ 0.94902, 0.992157, 1.0, 1.0 ],
						"color2" : [ 0.862745, 0.870588, 0.878431, 1.0 ],
						"angle" : 270.0,
						"proportion" : 0.39,
						"autogradient" : 0
					}
,
					"fontsize" : [ 10.0 ]
				}
,
				"newobj" : 				{
					"fontface" : [ 1 ],
					"bgcolor" : [ 1.0, 0.941176, 0.803922, 1.0 ],
					"textcolor_inverse" : [ 0.0, 0.0, 0.0, 1.0 ],
					"fontsize" : [ 10.0 ]
				}
,
				"message" : 				{
					"fontface" : [ 1 ],
					"textcolor_inverse" : [ 0.0, 0.0, 0.0, 1.0 ],
					"bgfillcolor" : 					{
						"type" : "gradient",
						"color" : [ 0.290196, 0.309804, 0.301961, 1.0 ],
						"color1" : [ 0.94902, 0.992157, 1.0, 1.0 ],
						"color2" : [ 0.862745, 0.870588, 0.878431, 1.0 ],
						"angle" : 270.0,
						"proportion" : 0.39,
						"autogradient" : 0
					}
,
					"fontsize" : [ 10.0 ]
				}
,
				"button" : 				{
					"bgcolor" : [ 1.0, 0.941176, 0.803922, 1.0 ]
				}
,
				"toggle" : 				{
					"bgcolor" : [ 1.0, 0.941176, 0.803922, 1.0 ]
				}
,
				"parentstyle" : "",
				"multi" : 0
			}
, 			{
				"name" : "newobjBlue-1",
				"default" : 				{
					"accentcolor" : [ 0.317647, 0.654902, 0.976471, 1.0 ]
				}
,
				"parentstyle" : "",
				"multi" : 0
			}
, 			{
				"name" : "newobjBrown-1",
				"default" : 				{
					"accentcolor" : [ 0.654902, 0.572549, 0.376471, 1.0 ]
				}
,
				"parentstyle" : "",
				"multi" : 0
			}
, 			{
				"name" : "newobjGreen-1",
				"default" : 				{
					"accentcolor" : [ 0.0, 0.533333, 0.168627, 1.0 ]
				}
,
				"parentstyle" : "",
				"multi" : 0
			}
, 			{
				"name" : "newobjYellow-1",
				"default" : 				{
					"fontsize" : [ 12.059008 ],
					"accentcolor" : [ 0.82517, 0.78181, 0.059545, 1.0 ]
				}
,
				"parentstyle" : "",
				"multi" : 0
			}
, 			{
				"name" : "numberGold-1",
				"default" : 				{
					"accentcolor" : [ 0.764706, 0.592157, 0.101961, 1.0 ]
				}
,
				"parentstyle" : "",
				"multi" : 0
			}
, 			{
				"name" : "rsliderGold",
				"default" : 				{
					"bgcolor" : [ 0.764706, 0.592157, 0.101961, 1.0 ],
					"color" : [ 0.646639, 0.821777, 0.854593, 1.0 ]
				}
,
				"parentstyle" : "",
				"multi" : 0
			}
, 			{
				"name" : "tap",
				"default" : 				{
					"fontname" : [ "Lato Light" ]
				}
,
				"parentstyle" : "",
				"multi" : 0
			}
 ]
	}

}
